<svg width="170" height="45" viewBox="0 0 170 45" fill="none" xmlns="http://www.w3.org/2000/svg">
<g clip-path="url(#clip0_4991_80810)">
<path fill-rule="evenodd" clip-rule="evenodd" d="M88.227 15.9189C88.2208 15.9135 88.2169 15.91 88.214 15.9074C88.2194 15.9122 88.227 15.9189 88.227 15.9189ZM112.758 13.7408C112.775 13.7348 112.77 13.7367 112.758 13.7408V13.7408ZM69.0703 3.25653L71.1301 3.07002C71.5202 3.03464 71.7826 2.758 71.7826 2.38171V1.43789C71.7826 1.13497 71.5805 0.847633 71.1301 0.888489L69.0703 1.07491C68.6199 1.11568 68.4183 1.43958 68.4183 1.7425V2.68631C68.4183 3.06269 68.6803 3.29182 69.0703 3.25653ZM107.559 11.3282C108.281 11.8829 109.17 12.1183 110.202 12.0249C111.63 11.8956 112.712 11.6589 113.516 11.3023C113.794 11.1757 113.954 10.942 113.954 10.6606V9.84922C113.955 9.3186 113.512 9.19443 113.199 9.30125C112.442 9.55203 111.462 9.72918 110.202 9.84315C109.857 9.87432 109.562 9.78065 109.325 9.56171C109.086 9.34168 108.965 9.0642 108.965 8.73381V4.80837C108.965 4.4795 109.086 4.1786 109.324 3.91687C109.563 3.65506 109.858 3.50764 110.202 3.47656C111.46 3.36267 112.468 3.36258 113.195 3.47538C113.552 3.53274 113.954 3.31785 113.954 2.79144V1.9798C113.954 1.71302 113.811 1.51127 113.535 1.41549C112.736 1.20405 111.646 1.1642 110.202 1.29494C109.171 1.38819 108.274 1.79161 107.537 2.49282C106.812 3.17978 106.428 4.06101 106.428 5.03792V8.96337C106.428 9.95637 106.808 10.7511 107.559 11.3282ZM74.3382 15.2714L75.5699 15.16C75.9599 15.1246 76.2224 14.8476 76.2224 14.4716V7.75429C76.2224 7.43982 76.3465 7.1358 76.5829 6.86152C76.8204 6.60114 77.1153 6.45372 77.4601 6.42247L79.1163 6.27261C79.4481 6.24262 79.7328 6.34009 79.9716 6.57267C80.2114 6.79253 80.3317 7.06547 80.3317 7.38237V14.0996C80.3317 14.4757 80.595 14.7051 80.9851 14.6698L82.2376 14.5564C82.2996 14.5508 82.3596 14.5313 82.4164 14.5012C82.7897 14.3021 82.8685 14.0486 82.8685 13.87V7.15274C82.8685 6.83701 82.9924 6.53308 83.2294 6.25989C83.4669 5.99942 83.7619 5.85209 84.1063 5.82092L85.762 5.67106C86.097 5.64073 86.3842 5.73811 86.6392 5.96918C86.879 6.18904 86.9998 6.46189 86.9998 6.7788V13.4961C86.9998 13.8721 87.2625 14.1016 87.6526 14.0663L88.8835 13.9549C89.2735 13.9196 89.536 13.6426 89.536 13.2665V6.54925C89.536 5.54908 89.1539 4.75943 88.4059 4.20556C87.6822 3.64824 86.792 3.41422 85.7619 3.50747L84.1062 3.65733C83.13 3.7457 82.2896 4.09664 81.6003 4.70206C80.9142 4.22114 80.0801 4.02175 79.1163 4.10902L77.4601 4.25897C76.4392 4.35129 75.5444 4.74553 74.7951 5.43755C74.0699 6.12486 73.6861 7.00557 73.6861 7.98392V14.7012C73.6861 15.0773 73.9482 15.3067 74.3382 15.2714ZM88.2562 15.9437C88.37 16.0508 88.4862 16.1918 88.6053 16.3669C88.7244 16.5422 88.8474 16.725 88.9744 16.9153L93.5057 23.3927V16.4781C93.5057 16.0289 93.6022 15.6838 93.7953 15.4431C93.8004 15.4369 93.8061 15.4314 93.8112 15.4252L88.227 15.9189C88.2366 15.9274 88.2468 15.935 88.2562 15.9437ZM70.7269 4.86843L69.474 4.9819C69.0235 5.02267 68.8215 5.34767 68.8215 5.65093V15.1416C68.8215 15.5176 69.084 15.7471 69.474 15.7118L70.7269 15.5984C71.1165 15.5631 71.3789 15.2862 71.3789 14.91V5.41936C71.3789 5.11618 71.1773 4.82758 70.7269 4.86843ZM90.8012 3.85807C90.9476 3.77788 91.0687 3.66862 91.1663 3.54462L93.6576 6.1102L92.1717 6.61268C92.1243 6.46863 92.0391 6.33891 91.9135 6.24228C91.5459 5.95941 90.9935 6.04955 90.6768 6.44437C90.361 6.83912 90.4015 7.38844 90.7686 7.67148C91.1351 7.9541 91.6892 7.86278 92.0042 7.46838C92.0913 7.3603 92.1488 7.24085 92.1819 7.11719L93.6727 7.81115C93.6726 7.84071 93.6683 7.86961 93.6683 7.89909C93.6683 11.0886 96.2557 13.4402 99.4474 13.1513C102.639 12.8624 105.227 10.0423 105.227 6.85276C105.227 3.66323 102.639 1.31187 99.4474 1.60081C98.2512 1.70914 97.1395 2.17313 96.2177 2.87914L94.9585 2.00726C95.0515 1.86195 95.1115 1.69491 95.1204 1.51632C95.145 1.00053 94.7479 0.598792 94.2326 0.61943C93.7186 0.642006 93.281 1.07895 93.2559 1.59584C93.2316 2.11155 93.6285 2.51329 94.1432 2.49079C94.2838 2.4854 94.4176 2.44632 94.5402 2.38516L94.8155 4.11273L91.4108 2.95781C91.4334 2.76828 91.4083 2.57503 91.3243 2.39956C91.0788 1.88764 90.4463 1.71074 89.9116 2.00389C89.3773 2.29705 89.1431 2.95074 89.3889 3.46257C89.6338 3.97449 90.2678 4.15207 90.8012 3.85807ZM100.73 9.34438C101.154 9.30605 101.496 9.61933 101.496 10.0409C101.496 10.4642 101.154 10.8382 100.73 10.8766C100.307 10.9149 99.9642 10.6028 99.9642 10.1796C99.9643 9.75799 100.307 9.38279 100.73 9.34438ZM98.0649 9.58572C98.489 9.54731 98.8318 9.86051 98.8318 10.282C98.8318 10.7053 98.4891 11.0794 98.0649 11.1178C97.6411 11.1562 97.2989 10.844 97.2989 10.4209C97.2989 9.99925 97.641 9.62397 98.0649 9.58572ZM103.93 14.5282C103.911 14.5275 103.902 14.5272 103.899 14.5271C103.904 14.5273 103.918 14.5278 103.93 14.5282ZM102.179 16.476L100.624 16.6043V24.4945L102.409 24.3471C102.801 24.3148 103.108 24.2789 103.33 24.2395C103.552 24.2 103.782 24.1281 104.02 24.0238C104.258 23.9197 104.465 23.7837 104.639 23.6159C105.428 22.8847 105.822 21.7052 105.822 20.0769C105.822 18.9298 105.648 18.085 105.302 17.5427C104.955 17.0003 104.528 16.6722 104.02 16.5581C103.513 16.4441 102.899 16.4166 102.179 16.476ZM76.9916 23.7721L80.4674 23.4853L78.7135 18.8326L76.9916 23.7721ZM118.73 15.787C118.617 15.787 118.613 15.8675 118.613 15.8675C118.613 15.8773 118.614 15.8872 118.614 15.8971C118.614 16.1774 118.515 16.438 118.316 16.679C118.118 16.9201 117.871 17.0528 117.574 17.0772C117.305 17.0995 117.1 17.049 116.959 16.9257C116.819 16.8025 116.667 16.5944 116.503 16.3012C116.291 15.88 116.038 15.5587 115.741 15.3372C115.445 15.1159 114.969 15.0322 114.313 15.0863C113.704 15.1366 113.214 15.3107 112.841 15.6082C112.468 15.9061 112.281 16.2425 112.281 16.6179C112.281 16.8506 112.345 17.0462 112.472 17.2049C112.599 17.3637 112.773 17.4946 112.995 17.5978C113.218 17.7012 113.443 17.7778 113.67 17.8276C113.897 17.8776 114.273 17.9471 114.797 18.036C115.453 18.1353 116.047 18.2553 116.579 18.3965C117.11 18.5377 117.563 18.725 117.935 18.9585C118.308 19.1921 118.599 19.5025 118.808 19.8896C118.82 19.9114 118.83 19.9345 118.841 19.9569V15.8676C118.841 15.8674 118.827 15.787 118.73 15.787ZM99.1741 14.9151C99.127 14.9298 99.0814 14.9455 99.0381 14.963L99.1741 14.951V14.9151ZM103.95 14.5288C103.944 14.5286 103.941 14.5285 103.937 14.5283C103.944 14.5286 103.95 14.5288 103.95 14.5288ZM116.987 24.738C116.289 25.1129 115.461 25.3398 114.503 25.4187C113.355 25.5135 112.408 25.3748 111.662 25.0029C111.133 24.7346 110.703 24.3539 110.373 23.8604C110.042 23.3669 109.877 22.8744 109.877 22.3828C109.877 22.0972 109.976 21.8447 110.174 21.6247C110.373 21.4048 110.625 21.2822 110.932 21.2568C111.181 21.2364 111.391 21.2983 111.563 21.4427C111.735 21.5871 111.882 21.8103 112.004 22.112C112.152 22.47 112.312 22.7661 112.484 23.0002C112.656 23.2347 112.897 23.4195 113.21 23.5549C113.522 23.6904 113.932 23.7372 114.44 23.6953C115.138 23.6376 115.705 23.4283 116.142 23.0671C116.579 22.706 116.797 22.2824 116.797 21.7959C116.797 21.4101 116.679 21.1066 116.444 20.8854C116.208 20.6643 115.904 20.5057 115.531 20.4096C115.158 20.3135 114.659 20.2199 114.035 20.1286C113.199 20.0022 112.5 19.8311 111.936 19.6159C111.373 19.4007 110.926 19.0808 110.595 18.656C110.264 18.2313 110.099 17.6834 110.099 17.012C110.099 16.3723 110.273 15.7897 110.623 15.2639C110.972 14.7383 111.477 14.3145 112.138 13.993C112.324 13.903 112.519 13.8237 112.723 13.7531L103.949 14.5288C104.271 14.5392 104.567 14.5675 104.838 14.6152C105.409 14.7161 105.927 14.9509 106.393 15.3195C107.604 16.2557 108.21 17.7811 108.21 19.8956C108.21 20.5934 108.149 21.2355 108.028 21.8217C107.906 22.408 107.718 22.9429 107.464 23.4263C107.21 23.9098 106.885 24.3504 106.488 24.7479C106.176 25.054 105.835 25.3067 105.464 25.5064C105.094 25.7062 104.696 25.858 104.27 25.9617C103.844 26.0656 103.364 26.1396 102.83 26.1837L99.7586 26.4372C99.3301 26.4726 99.0073 26.4345 98.7906 26.3228C98.5736 26.2113 98.432 26.0404 98.3659 25.8107C98.2997 25.581 98.2667 25.2784 98.2667 24.903V16.3786C98.2667 15.871 98.3805 15.4943 98.608 15.2483C98.7182 15.1291 98.862 15.0344 99.0379 14.9631L95.3533 15.2889C95.3615 15.297 95.3703 15.3041 95.3783 15.3125C95.5739 15.5212 95.6718 15.8501 95.6718 16.2993V25.4422C95.6718 26.4625 95.2486 27.0076 94.4021 27.0774C94.1905 27.0949 94.0001 27.0801 93.8308 27.0334C93.6614 26.9865 93.5027 26.9032 93.3547 26.7832C93.2065 26.6634 93.069 26.5202 92.9421 26.3534C92.8151 26.1867 92.6881 26.0162 92.5612 25.8416L88.141 19.4344V26.246C88.141 26.6901 88.0378 27.0343 87.8315 27.2786C87.6252 27.5228 87.3605 27.6585 87.038 27.6851C86.7047 27.7126 86.4374 27.6196 86.2365 27.4062C86.0353 27.1928 85.9349 26.8669 85.9349 26.4281V17.4595C85.9349 17.0789 85.9772 16.7768 86.0618 16.5529C86.1339 16.3762 86.2408 16.2195 86.3812 16.082L79.8518 16.6594C79.9389 16.7314 80.0158 16.8127 80.0824 16.9036C80.2173 17.0881 80.331 17.2889 80.4236 17.5058C80.5161 17.723 80.6339 18.0132 80.7767 18.3768L83.8161 25.6274C84.0543 26.1787 84.1733 26.5838 84.1733 26.843C84.1733 27.1125 84.0607 27.3689 83.836 27.6122C83.6112 27.8553 83.3401 27.9901 83.0226 28.0163C82.8373 28.0317 82.6786 28.0116 82.5466 27.9565C82.4142 27.9012 82.3032 27.8208 82.2132 27.7144C82.1232 27.6082 82.0267 27.4417 81.9235 27.2149C81.8203 26.9884 81.7317 26.788 81.6577 26.6143L81.1022 25.2012L76.3726 25.5914L75.8171 27.1281C75.6001 27.7276 75.4149 28.1354 75.2616 28.3514C75.108 28.5674 74.8568 28.6901 74.5076 28.7189C74.2113 28.7433 73.9495 28.6565 73.722 28.4586C73.4945 28.2606 73.3809 28.0242 73.3809 27.7493C73.3809 27.5907 73.4072 27.4246 73.4601 27.251C73.513 27.0776 73.6003 26.835 73.722 26.5238L76.6979 18.7291C76.7824 18.5054 76.8844 18.2367 77.0034 17.9228C77.1225 17.6091 77.2494 17.3462 77.3843 17.1341C77.4478 17.0343 77.5211 16.9425 77.6033 16.8581L69.9689 17.5332C70.0336 17.5522 70.0972 17.5726 70.1589 17.5956C70.5239 17.7188 70.8465 17.9115 71.1271 18.1738C71.4074 18.4361 71.6203 18.7504 71.7658 19.1162C71.9113 19.4823 71.9841 19.8767 71.9841 20.2995C71.9841 21.1665 71.7393 21.8793 71.25 22.4378C70.7605 22.9963 70.0186 23.4248 69.0241 23.7237C69.4419 23.9112 69.8415 24.2061 70.2224 24.608C70.6033 25.0101 70.9432 25.4433 71.2421 25.9076C71.5409 26.3721 71.7738 26.7943 71.9405 27.1743C72.1072 27.5544 72.1904 27.8185 72.1904 27.9664C72.1904 28.1198 72.1415 28.2758 72.0436 28.4346C71.9456 28.5933 71.8121 28.7233 71.6429 28.8244C71.4734 28.9256 71.2778 28.9854 71.0556 29.0038C70.791 29.0256 70.5687 28.9817 70.389 28.8724C70.209 28.763 70.0544 28.6184 69.9248 28.4389C69.7951 28.2593 69.6193 27.9936 69.397 27.6419L68.4527 26.1497C68.1141 25.6014 67.8112 25.1877 67.5441 24.9084C67.2769 24.6291 67.0057 24.4454 66.7307 24.357C66.4556 24.2686 66.109 24.2417 65.6911 24.2762L64.8658 24.3444V28.0792C64.8658 28.5709 64.7573 28.942 64.5405 29.1925C64.3235 29.443 64.0406 29.5827 63.6914 29.6115C63.3157 29.6425 63.0248 29.5448 62.8184 29.3187C62.6121 29.0926 62.509 28.7443 62.509 28.2738V19.3291C62.509 18.8216 62.6226 18.4449 62.8502 18.1987C62.8631 18.1848 62.8781 18.1723 62.8918 18.159L58.2341 18.5709C58.3459 18.6112 58.4538 18.6576 58.557 18.7116C58.8321 18.8527 59.0754 19.0403 59.2871 19.2738C59.4987 19.5075 59.6601 19.7718 59.7712 20.0665C59.8823 20.3613 59.9379 20.6779 59.9379 21.0162C59.9379 22.1792 59.3558 23.0783 58.192 23.7136C59.7209 24.0738 60.4854 24.957 60.4854 26.3631C60.4854 27.0134 60.3187 27.6126 59.9855 28.1608C59.6521 28.7091 59.2025 29.1308 58.6365 29.4259C58.282 29.6032 57.8746 29.7413 57.4143 29.8399C56.954 29.9388 56.417 30.0135 55.8033 30.0641L52.2481 30.3574C51.7349 30.3998 51.3685 30.315 51.1491 30.1031C51.1279 30.0827 51.108 30.0605 51.0889 30.0373V30.4977C51.0889 30.4977 51.1329 30.5825 51.2185 30.6049C54.1342 31.3687 105.29 44.7703 105.29 44.7703L118.841 23.4281V22.7736C118.768 22.9504 118.681 23.1229 118.578 23.2904C118.216 23.8809 117.686 24.3632 116.987 24.738ZM118.86 22.7287C118.855 22.7402 118.85 22.7529 118.844 22.7671C118.847 22.7592 118.853 22.7449 118.86 22.7287ZM123.379 1.03953C122.654 0.48229 121.765 0.248274 120.735 0.341442C119.444 0.458197 118.472 0.62718 117.83 0.849655C117.372 1.02462 117.322 1.36688 117.322 1.50554V2.35416C117.322 2.51876 117.366 2.65447 117.451 2.75741C117.559 2.88773 117.722 2.9499 117.909 2.93296C117.94 2.93018 118.015 2.91696 118.045 2.90786C118.543 2.75623 119.448 2.62153 120.735 2.50503C121.066 2.47504 121.351 2.57259 121.59 2.80509C121.83 3.02487 121.951 3.2978 121.951 3.61471V4.17599L119.079 4.43595C118.047 4.52937 117.151 4.93153 116.413 5.63265C115.678 6.33116 115.305 7.18121 115.305 8.15973C115.305 9.15122 115.685 9.94668 116.435 10.5247C117.158 11.0793 118.048 11.3146 119.079 11.2213L123.856 10.7889C124.228 10.7553 124.487 10.4723 124.487 10.1024V3.38507C124.487 2.40816 124.104 1.59652 123.379 1.03953ZM121.951 8.77947L119.079 9.03943C118.734 9.0706 118.44 8.97684 118.202 8.75791C117.962 8.53796 117.841 8.26056 117.841 7.93009C117.841 7.61293 117.962 7.31801 118.202 7.05645C118.44 6.79599 118.734 6.64857 119.079 6.6174L121.951 6.35735V8.77947ZM64.8658 22.6554L66.9767 22.4813C67.5428 22.4346 68.019 22.3465 68.4051 22.2166C68.7913 22.087 69.0863 21.8962 69.29 21.6441C69.4936 21.3921 69.5954 21.0598 69.5954 20.6474C69.5954 20.3251 69.5133 20.0476 69.3494 19.8153C69.1854 19.583 68.9579 19.4182 68.6669 19.3205C68.3918 19.227 67.8496 19.2135 67.0401 19.2803L64.8658 19.4596V22.6554H64.8658ZM57.4778 25.1602C57.0652 24.93 56.4487 24.8486 55.6288 24.9162L53.1767 25.1186V28.5124L55.7082 28.3036C57.3005 28.1722 58.0968 27.533 58.0968 26.3857C58.0967 25.799 57.8904 25.3905 57.4778 25.1602ZM57.9858 16.7517L59.2175 16.6402C59.6075 16.6049 59.8692 16.328 59.8692 15.9519V9.23461C59.8692 8.92023 59.9931 8.61622 60.2301 8.34168C60.4676 8.08138 60.7625 7.93397 61.1069 7.9028L62.7636 7.75285C63.0952 7.72286 63.3796 7.8205 63.6189 8.05291C63.8584 8.27278 63.9793 8.54562 63.9793 8.86253V15.5798C63.9793 15.9559 64.2417 16.1853 64.6317 16.1501L65.8851 16.0366C66.2564 16.003 66.5161 15.72 66.5161 15.3502V8.6329C66.5161 7.63281 66.1336 6.84324 65.3858 6.28929C64.6622 5.73197 63.7801 5.49728 62.7636 5.58926L61.1069 5.73921C60.0869 5.83162 59.1915 6.22586 58.4423 6.91788C57.717 7.60518 57.3333 8.4859 57.3333 9.46425V16.1815C57.3334 16.5575 57.5958 16.787 57.9858 16.7517ZM58.2341 18.5709C58.2292 18.5691 58.2266 18.5682 58.2227 18.5668C58.2291 18.569 58.2341 18.5709 58.2341 18.5709ZM53.1766 23.4295L55.3351 23.2515C55.9224 23.2031 56.3759 23.1101 56.6961 22.9726C57.0161 22.8352 57.2608 22.6036 57.4302 22.2777C57.5623 22.0447 57.6285 21.7908 57.6285 21.516C57.6285 20.9291 57.4195 20.5566 57.0016 20.398C56.5837 20.2396 55.9462 20.1957 55.0892 20.2664L53.1767 20.4241V23.4295H53.1766ZM55.0066 16.3921V9.67485C55.0066 8.69793 54.6231 7.88629 53.8974 7.3293C53.1732 6.77206 52.2832 6.53805 51.2534 6.63121C49.9632 6.74797 48.9912 6.91695 48.3483 7.13943C47.8902 7.31447 47.841 7.65665 47.841 7.79531V8.64393C47.841 8.80853 47.8846 8.94424 47.9691 9.04718C48.0779 9.1775 48.2407 9.23967 48.4276 9.22274C48.4583 9.21996 48.5335 9.20673 48.5635 9.19763C49.062 9.04592 49.9664 8.9113 51.2534 8.7948C51.5847 8.76481 51.8702 8.86236 52.1096 9.09486C52.3488 9.31472 52.4696 9.58757 52.4696 9.90448V10.4658L49.5977 10.7257C48.566 10.8191 47.6695 11.2213 46.9327 11.9223C46.1965 12.6209 45.8232 13.471 45.8232 14.4494C45.8232 15.4409 46.2037 16.2371 46.9541 16.8143C47.6771 17.369 48.5664 17.6042 49.5977 17.5109L54.375 17.0785C54.747 17.0449 55.0066 16.7619 55.0066 16.3921ZM52.4695 15.0692L49.5976 15.3292C49.2532 15.3604 48.9579 15.2667 48.7208 15.0477C48.4807 14.8278 48.3599 14.5502 48.3599 14.2199C48.3599 13.9027 48.4807 13.6078 48.7208 13.3462C48.9579 13.0858 49.2532 12.9383 49.5976 12.9072L52.4695 12.6472V15.0692Z" fill="#12ACEC"/>
</g>
<defs>
<clipPath id="clip0_4991_80810">
<rect width="170" height="45" fill="white"/>
</clipPath>
</defs>
</svg>
