<svg width="170" height="45" viewBox="0 0 170 45" fill="none" xmlns="http://www.w3.org/2000/svg">
<g clip-path="url(#clip0_4332_68799)">
<path d="M55.159 33.4762V28.2454L50.6143 33.4762H55.159Z" fill="#141414"/>
<path d="M130.625 33.4647V30.5869L127.556 33.4647H130.625Z" fill="#141414"/>
<path d="M88.984 12.9006L78.7428 22.3279L79.0678 26.2334L68.3696 36.6516H75.3118L92.9862 19.9368H103.89L111.104 12.9006H88.984Z" fill="#141414"/>
<path d="M68.2687 26.8686L61.8474 33.4657H69.7415L77.6696 25.7879L77.316 21.8797L87.0609 12.901H69.4477L63.2032 18.5247V12.572H63.0141H62.4389H52.3649H50.7834H48.6565L51.8984 16.4381L45.8157 22.5839H44.8883L34.0024 33.4657H35.0468H44.2111L56.2338 21.4991H56.5424V33.4765H57.6072L70.7859 20.3327H71.1394V26.8686H68.2687Z" fill="#141414"/>
<path d="M135.288 12.9006H113.006L105.306 20.3881V29.7338L109.058 33.4762H126.055H126.108L129.905 29.6808H131.01L133.105 27.5873H124.291L123.281 26.5773H112.695V23.1843L116.079 19.9368H123.16L119.385 23.7104H124.682H125.586H126.747L131.458 19.0029H130.306L135.288 14.0711V12.9006Z" fill="#141414"/>
<path d="M98.8029 27.1559H101.045L101.745 26.4572V24.4834L99.4855 22.2241H94.8225L94.2119 22.8345H91.8198L88.0054 26.3757H98.0236L98.8029 27.1559Z" fill="#141414"/>
<path d="M96.48 27.7141L99.3072 30.49H102.904L100.129 27.7141H96.48Z" fill="#141414"/>
<path d="M92.6164 30.5308L95.5605 27.5864L95.0261 27.0535H91.6617L90.801 27.8922H89.7756L84.0845 33.5798H89.8531L90.5398 34.2663H93.5602L92.6164 33.3229V30.5308Z" fill="#141414"/>
<path d="M94.0479 29.9861L94.0533 32.6342L96.4793 34.2668H96.9485L98.7041 32.6994V30.8466L95.9775 28.0571L94.0479 29.9861Z" fill="#141414"/>
</g>
<defs>
<clipPath id="clip0_4332_68799">
<rect width="101.351" height="25" fill="white" transform="translate(34 12)"/>
</clipPath>
</defs>
</svg>
