<svg width="170" height="45" viewBox="0 0 170 45" fill="none" xmlns="http://www.w3.org/2000/svg">
<g clip-path="url(#clip0_4949_80733)">
<path d="M31.2261 16.3988H12.6519L14.6924 13.0162C14.8795 12.7059 15.1489 12.4485 15.4734 12.2701C15.7978 12.0916 16.1658 11.9985 16.54 12H27.3585C27.7327 11.9985 28.1007 12.0916 28.4251 12.2701C28.7496 12.4485 29.019 12.7059 29.2061 13.0162L31.2261 16.3988Z" fill="#00F6AB"/>
<path d="M31.2261 29.6013L29.1856 32.9859C28.9984 33.296 28.7289 33.5531 28.4044 33.7312C28.0799 33.9093 27.712 34.0021 27.338 34.0001H16.5297C16.1574 34.0004 15.7916 33.9068 15.4691 33.7287C15.1466 33.5507 14.8787 33.2945 14.6924 32.9859L12.6519 29.6013H31.2261Z" fill="#00F6AB"/>
<path d="M34.5929 24.0151L33.8785 25.1944H9.99963L9.28523 24.0151C9.09871 23.7066 9.00049 23.3564 9.00049 22.9999C9.00049 22.6434 9.09871 22.2933 9.28523 21.9847L9.99963 20.8054H33.8785L34.5929 21.9847C34.7794 22.2933 34.8776 22.6434 34.8776 22.9999C34.8776 23.3564 34.7794 23.7066 34.5929 24.0151Z" fill="#00F6AB"/>
<path d="M56.5115 23.0284C56.5115 20.9437 55.8094 19.1747 54.4052 17.7215C53.0011 16.2684 51.2206 15.5405 49.0637 15.5378C46.7481 15.5378 44.8683 16.2585 43.4245 17.6999C41.9806 19.1413 41.2491 20.9102 41.23 23.0068C41.23 25.1676 41.9724 26.9575 43.4573 28.3766C44.9422 29.7957 46.8897 30.4954 49.2998 30.4757C52.1874 30.4757 54.3532 29.4439 55.7971 27.3801L53.1571 25.8981C52.2867 27.0695 51.0112 27.6592 49.3306 27.667C48.0824 27.667 47.0389 27.3735 46.2 26.7865C45.3517 26.1894 44.7732 25.3051 44.5823 24.3139H56.3903C56.4665 23.8892 56.507 23.4593 56.5115 23.0284ZM44.5536 21.8059C44.7225 20.8088 45.2585 19.9025 46.0645 19.2507C46.8541 18.6244 47.8436 18.3112 49.0329 18.3112C50.0416 18.2854 51.0262 18.6085 51.8063 19.2212C52.5672 19.8279 53.0572 20.6895 53.2761 21.8059H44.5536Z" fill="#141414"/>
<path d="M68.7955 15.8977L64.6693 26.6943L60.5143 15.8977H57.0142L62.7991 30.1025H66.5107L72.2936 15.8977H68.7955Z" fill="#141414"/>
<path d="M85.4666 15.8977V17.9144C84.2623 16.3302 82.5324 15.5381 80.277 15.5381C79.2967 15.5271 78.325 15.7139 77.4252 16.0864C76.5254 16.459 75.7176 17.0088 75.0545 17.7001C73.6093 19.1415 72.8867 20.9105 72.8867 23.007C72.8867 25.1036 73.6093 26.8725 75.0545 28.3139C75.7176 29.0052 76.5254 29.5551 77.4252 29.9276C78.325 30.3001 79.2967 30.4869 80.277 30.476C82.531 30.476 84.2609 29.6714 85.4666 28.0623V30.1025H88.6752V15.8977H85.4666ZM84.1343 26.2658C83.2296 27.0876 82.0301 27.5457 80.783 27.5457C79.536 27.5457 78.3365 27.0876 77.4317 26.2658C76.9937 25.8349 76.6496 25.3249 76.4194 24.7654C76.1893 24.2059 76.0777 23.6082 76.0912 23.007C76.0714 22.4082 76.1799 21.8118 76.4101 21.2547C76.6403 20.6976 76.9873 20.1916 77.4297 19.7678C78.3256 18.9298 79.5284 18.4605 80.781 18.4605C82.0335 18.4605 83.2364 18.9298 84.1323 19.7678C85.0253 20.6228 85.4666 21.6999 85.4666 23.007C85.4848 23.6081 85.3762 24.2065 85.1473 24.7664C84.9184 25.3263 84.5738 25.8363 84.1343 26.2658Z" fill="#141414"/>
<path d="M92.4116 12.8293V30.1023H95.6141V12.8293H92.4116Z" fill="#141414"/>
<path d="M109.323 15.8977V23.5101C109.323 24.8559 108.987 25.874 108.315 26.5645C107.643 27.2551 106.723 27.6004 105.556 27.6004C104.529 27.6004 103.708 27.3173 103.123 26.7493C102.538 26.1813 102.232 25.3734 102.232 24.3062V15.8977H99.0278V24.6187C99.0278 26.4191 99.5472 27.8448 100.586 28.8956C101.625 29.9465 103.005 30.4707 104.727 30.4681C106.803 30.4681 108.335 29.7395 109.323 28.2824V30.1025H112.527V15.8977H109.323Z" fill="#141414"/>
<path d="M128.014 15.8975V17.9141C126.809 16.3299 125.079 15.5378 122.825 15.5378C121.844 15.5266 120.872 15.7133 119.972 16.0858C119.072 16.4583 118.264 17.0083 117.6 17.6999C116.159 19.1413 115.438 20.9102 115.437 23.0068C115.435 25.1033 116.155 26.8723 117.596 28.3137C118.259 29.0053 119.068 29.5552 119.968 29.9278C120.868 30.3003 121.84 30.487 122.821 30.4757C125.075 30.4757 126.805 29.6712 128.01 28.0621V30.1023H131.215V15.8975H128.014ZM126.68 26.2656C125.775 27.087 124.575 27.5449 123.328 27.5449C122.08 27.5449 120.881 27.087 119.975 26.2656C119.539 25.8339 119.196 25.3237 118.966 24.7643C118.737 24.2049 118.626 23.6076 118.639 23.0068C118.62 22.4082 118.728 21.8122 118.958 21.2552C119.188 20.6982 119.534 20.192 119.975 19.7676C120.872 18.9299 122.075 18.4609 123.328 18.4609C124.58 18.4609 125.784 18.9299 126.68 19.7676C127.573 20.6226 128.014 21.6997 128.014 23.0068C128.032 23.608 127.923 24.2065 127.694 24.7664C127.465 25.3264 127.12 25.8363 126.68 26.2656Z" fill="#141414"/>
<path d="M143.236 18.8536V15.9054H139.562V12.8293H136.355V15.8975H133.625V18.8458H136.355V25.6681C136.355 27.5275 136.889 28.8018 137.957 29.491C139.024 30.1802 140.784 30.384 143.236 30.1023V27.3506C142.56 27.3884 141.881 27.3924 141.204 27.3624C140.753 27.3695 140.315 27.2185 139.972 26.9378C139.695 26.6803 139.562 26.2597 139.562 25.67V18.8536H143.236Z" fill="#141414"/>
<path d="M160 23.0284C160 20.9437 159.298 19.1747 157.894 17.7215C156.49 16.2684 154.71 15.5405 152.554 15.5378C150.239 15.5378 148.36 16.2585 146.917 17.6999C145.453 19.1413 144.721 20.9102 144.721 23.0068C144.721 25.1676 145.462 26.9575 146.944 28.3766C148.455 29.776 150.404 30.4757 152.79 30.4757C155.677 30.4757 157.843 29.4439 159.288 27.3801L156.65 25.904C155.779 27.0754 154.503 27.6651 152.821 27.6729C151.575 27.6729 150.531 27.3794 149.691 26.7924C148.842 26.1958 148.263 25.3113 148.073 24.3198H159.885C159.96 23.893 159.998 23.4611 160 23.0284ZM148.042 21.8059C148.212 20.8076 148.75 19.9008 149.559 19.2507C150.35 18.6237 151.335 18.3112 152.524 18.3112C153.533 18.2856 154.518 18.6086 155.299 19.2212C156.059 19.8279 156.548 20.6895 156.767 21.8059H148.042Z" fill="#141414"/>
</g>
<defs>
<clipPath id="clip0_4949_80733">
<rect width="151" height="22" fill="white" transform="translate(9 12)"/>
</clipPath>
</defs>
</svg>
