<svg width="20" height="20" viewBox="0 0 20 20" fill="none" xmlns="http://www.w3.org/2000/svg">
<path d="M17.6386 6.81868C17.5226 6.90869 15.4744 8.06281 15.4744 10.6291C15.4744 13.5974 18.0806 14.6475 18.1586 14.6735C18.1466 14.7375 17.7446 16.1116 16.7845 17.5118C15.9284 18.7439 15.0343 19.974 13.6742 19.974C12.314 19.974 11.964 19.1839 10.3939 19.1839C8.8637 19.1839 8.31964 20 7.07552 20C5.8314 20 4.96331 18.8599 3.96521 17.4597C2.80909 15.8156 1.875 13.2613 1.875 10.8371C1.875 6.94869 4.40325 4.88649 6.8915 4.88649C8.21363 4.88649 9.31574 5.75458 10.1458 5.75458C10.9359 5.75458 12.168 4.83448 13.6722 4.83448C14.2422 4.83448 16.2904 4.88649 17.6386 6.81868ZM12.9581 3.18832C13.5802 2.45024 14.0202 1.42614 14.0202 0.40204C14.0202 0.260026 14.0082 0.116012 13.9822 0C12.9701 0.0380038 11.766 0.674067 11.0399 1.51615C10.4699 2.16422 9.93781 3.18832 9.93781 4.22642C9.93781 4.38244 9.96381 4.53845 9.97581 4.58846C10.0398 4.60046 10.1438 4.61446 10.2478 4.61446C11.1559 4.61446 12.298 4.0064 12.9581 3.18832Z" fill="white"/>
</svg>
