<svg width="170" height="45" viewBox="0 0 170 45" fill="none" xmlns="http://www.w3.org/2000/svg">
<path d="M34.1447 17.5798C34.1648 17.8764 34.19 18.2282 34.2176 18.6303C34.8258 18.6831 34.8183 19.1531 34.8308 19.613C34.8434 19.99 34.8157 20.372 34.8861 20.7389C34.9263 20.9575 35.1198 21.1485 35.243 21.3546C35.3033 21.4551 35.4063 21.5532 35.4114 21.6562C35.4315 22.3046 35.429 22.953 35.4315 23.6014C35.4315 23.6642 35.4415 23.7648 35.4089 23.7824C34.4689 24.3353 35.0796 25.2752 34.866 26.009C34.7655 26.3534 34.8484 26.753 34.8484 27.1576C34.6222 27.2129 34.4513 27.2531 34.2503 27.3033C34.2352 28.0397 33.999 28.58 33.142 28.5423C33.0842 28.5398 32.9836 28.5675 32.9736 28.6027C32.7524 29.3038 32.1065 29.0777 31.6315 29.2209C31.6542 29.2737 31.6793 29.329 31.7019 29.3817C31.433 29.52 31.1691 29.7663 30.8977 29.7788C29.7291 29.8266 28.5579 29.809 27.3868 29.7964C27.246 29.7964 27.1028 29.6758 26.9696 29.5979C26.7409 29.4647 26.5348 29.2712 26.291 29.1907C25.8135 29.0324 25.1299 29.3315 24.949 28.5298C24.9314 28.4544 24.6549 28.4368 24.4966 28.3941C24.3483 27.5094 23.8004 26.9113 23.0766 26.2403C23.0641 26.009 23.0415 25.6145 23.0188 25.2224C23.0012 24.9233 23.0892 24.5765 22.6117 24.5212C22.5388 24.5137 22.4483 24.2548 22.4458 24.1116C22.4307 23.2345 22.4383 22.3549 22.4383 21.4275C23.0616 21.4225 23.0239 20.9651 23.0415 20.5253C23.059 20.0779 22.9962 19.6004 23.5567 19.3591C23.6823 19.3039 23.6974 18.9972 23.8582 18.8766C24.0291 18.6529 24.1824 18.4167 24.3709 18.2081C24.6625 17.8889 24.9741 17.5873 25.2807 17.2833C25.6275 16.944 25.9693 16.6022 26.3337 16.283C26.4443 16.185 26.6202 16.1096 26.766 16.1096C28.4599 16.0995 30.1513 16.0995 31.8452 16.1096C31.9733 16.1096 32.1116 16.19 32.2272 16.2604C32.476 16.4112 32.7197 16.5695 32.951 16.7404C33.1395 16.8811 33.3003 17.0621 33.4938 17.2003C33.6798 17.3335 33.8909 17.4366 34.1372 17.5798H34.1447ZM25.7029 21.4174C25.7029 22.3549 25.6954 23.2496 25.7105 24.1468C25.7105 24.2724 25.7833 24.4207 25.8713 24.5137C26.198 24.8555 26.5448 25.1747 26.8841 25.5039C27.1128 25.7251 27.4747 25.911 27.5401 26.1724C27.6506 26.6198 27.9221 26.5971 28.2362 26.6047C28.6534 26.6147 29.0832 26.567 29.4878 26.6449C30.2694 26.7957 30.3649 25.9638 30.8801 25.7251C31.1088 25.6195 31.2118 25.2476 31.3727 24.9962C31.428 25.0214 31.4833 25.0465 31.5385 25.0716C31.5385 23.5486 31.5411 22.0256 31.5335 20.5026C31.5335 20.3745 31.4732 20.2187 31.3903 20.1206C31.1917 19.8869 30.963 19.6808 30.87 19.5878C30.5232 19.2335 30.3071 19.0098 30.0105 18.7082H27.8316C27.4647 19.2109 27.2485 19.7562 26.8489 19.9874C26.291 20.3116 26.3614 20.7967 26.2382 21.2842C26.09 21.3219 25.9316 21.3622 25.7054 21.4174H25.7029Z" fill="black"/>
<path d="M129.169 25.9209H125.336C125.316 26.2175 125.328 26.494 125.266 26.7503C125.22 26.9363 125.059 27.0946 124.974 27.273C124.863 27.5017 124.72 27.733 124.682 27.9767C124.61 28.4542 124.735 29.0122 124.057 29.1604C123.715 30.221 122.833 29.6782 122.368 29.7963C122.003 29.5073 121.745 29.3414 121.536 29.1228C121.44 29.0222 121.413 28.8262 121.408 28.6729C121.395 28.0245 121.403 27.3786 121.403 26.7126C121.631 26.6171 121.815 26.5417 122.003 26.4638C122.039 26.0969 122.074 25.745 122.106 25.3907C122.164 25.4158 122.222 25.4384 122.28 25.4635C122.428 25.167 122.571 24.8679 122.727 24.5739C122.853 24.3402 123.011 24.124 123.132 23.8903C123.222 23.7119 123.278 23.5158 123.345 23.3273C123.456 23.0258 123.358 22.6639 123.853 22.508C124.042 22.4477 124.047 21.8069 124.147 21.3746C124.592 21.3872 124.675 21.0831 124.685 20.6558C124.698 20.1532 124.532 19.54 125.263 19.3188C125.326 19.2987 125.296 19.0423 125.353 18.9167C125.489 18.6176 125.741 18.3437 125.786 18.0371C125.909 17.17 126.53 16.793 127.173 16.3633C127.497 16.1472 128.193 16.0114 128.51 16.2803C128.711 16.4487 128.935 16.6146 129.176 16.7001C129.792 16.9162 129.827 16.9413 129.955 17.9793C130.526 18.0094 130.541 18.4115 130.553 18.879C130.568 19.3741 130.385 19.932 131.061 20.2688C131.244 20.3593 131.161 20.9674 131.224 21.3369C131.302 21.8043 131.018 22.415 131.765 22.6362C131.855 22.6639 131.835 23.0584 131.87 23.2846C131.913 23.5736 131.822 23.8828 132.267 24.0285C132.426 24.0813 132.468 24.5613 132.516 24.8528C132.591 25.3178 132.426 25.8154 132.984 26.1672C133.308 26.3708 133.293 28.59 133.041 28.9167C132.956 29.0273 132.767 29.0825 132.614 29.1177C131.835 29.2936 131.156 29.3515 130.423 28.7332C130.005 28.3814 129.917 28.0722 129.832 27.6525C129.812 27.552 129.807 27.4314 129.747 27.356C129.297 26.783 129.292 26.7855 129.163 25.9209H129.169ZM127.919 23.2947V21.9828H127.49C127.236 22.3045 127.037 22.5105 126.899 22.7543C126.846 22.8498 126.902 23.1288 126.959 23.1439C127.248 23.2218 127.555 23.2444 127.919 23.2947Z" fill="black"/>
<path d="M62.3252 27.8009C62.1392 27.8512 61.9834 27.8964 61.7899 27.9492C61.7522 28.3161 61.717 28.6855 61.6768 29.0826C61.4984 29.1279 61.3225 29.1731 61.1139 29.2284C61.1591 29.7939 60.7872 29.8793 60.3524 29.824C59.9427 29.7712 59.518 29.7235 59.146 29.5652C58.9425 29.4772 58.8344 29.1631 58.6836 28.9519C58.6258 28.9746 58.568 28.9972 58.5127 29.0198C58.5127 28.5423 58.5102 28.0673 58.5152 27.5898C58.5152 27.5094 58.5353 27.3737 58.5755 27.3611C59.2918 27.1274 59.0128 26.4765 59.1536 26.0065C59.2064 26.0316 59.2566 26.0568 59.3094 26.0794C59.4627 25.7904 59.6462 25.5139 59.7643 25.2123C59.8698 24.9434 59.7618 24.5488 60.2342 24.5363C60.2644 24.5363 60.3197 24.4785 60.3172 24.4533C60.2016 23.6064 60.9706 23.0912 61.1013 22.3397C61.1214 22.2191 61.1315 22.0055 61.1792 21.9929C61.9382 21.822 61.6894 21.2038 61.7497 20.7313C61.7924 20.4121 61.6894 20.0377 62.1996 19.9899C62.2649 19.9849 62.3026 19.7537 62.3654 19.633C62.5263 19.3365 62.7022 19.05 62.8555 18.7509C62.9359 18.5951 62.9962 18.4217 63.0314 18.2483C63.1118 17.8813 62.941 17.4692 63.5517 17.2807C63.896 17.1751 64.0342 16.489 64.3886 16.3131C64.7354 16.1422 65.2455 16.2503 65.6728 16.3131C65.8814 16.3433 66.0598 16.6499 66.2584 16.6574C66.8263 16.675 67.0224 16.949 67.0048 17.4717C66.9998 17.6149 67.0375 17.7607 67.0576 17.9266C67.236 17.9794 67.4094 18.0321 67.6306 18.0975C67.6306 18.4594 67.6079 18.8137 67.6381 19.1656C67.6658 19.4822 67.6155 19.8592 68.0804 19.9572C68.1508 19.9723 68.2161 20.1482 68.2362 20.2588C68.3142 20.6961 68.1307 21.2314 68.7741 21.44C68.8645 21.4702 68.8495 21.822 68.8796 22.0256C68.9525 22.5333 68.7791 23.1163 69.4275 23.4305C69.5532 23.4908 69.5506 23.8502 69.5758 24.0764C69.6336 24.6016 69.6688 25.0766 70.0382 25.5642C70.3247 25.9437 70.2493 26.5971 70.3373 27.1525C70.9681 27.4164 70.9555 27.4038 70.4127 27.8864C70.3021 27.9844 70.3046 28.2206 70.277 28.3965C70.2418 28.6227 70.2317 28.8489 70.2217 28.957C69.8573 29.2083 69.5708 29.4043 69.239 29.6305C68.7313 28.962 67.6054 29.2761 67.1455 28.3312L66.9847 28.4644C66.9847 28.1553 67.0651 27.8185 66.9671 27.5446C66.7736 26.9917 66.4846 26.4739 66.2257 25.9437C66.2081 25.906 66.1126 25.8909 66.0548 25.8909C64.9942 25.8984 63.9337 25.9135 62.8731 25.9185C62.481 25.9185 62.383 26.1347 62.383 26.479C62.3805 26.8962 62.3478 27.3133 62.3252 27.8034V27.8009ZM65.5421 22.1538C65.1928 22.0784 64.8183 21.9954 64.3509 21.8949C64.3509 22.3624 64.3307 22.6941 64.3634 23.0183C64.3735 23.1138 64.5293 23.252 64.6348 23.2646C64.7479 23.2797 64.9239 23.2068 64.9892 23.1138C65.1702 22.86 65.3059 22.5735 65.5421 22.1538Z" fill="black"/>
<path d="M81.423 24.5336C81.6492 24.5713 81.81 24.599 81.9935 24.6316C82.0287 24.8201 82.0588 25.0011 82.094 25.1971C82.29 25.2348 82.466 25.27 82.6519 25.3077C82.7525 25.8053 82.5866 26.4009 83.2752 26.6095C83.3581 26.6346 83.3406 27.0317 83.3456 27.2579C83.3556 27.6525 83.3481 28.0496 83.2149 28.3788C83.044 28.5698 82.8982 28.8035 82.6896 28.9418C82.5363 29.0423 82.2247 29.1202 82.1141 29.0347C81.6542 28.6854 81.2295 28.2883 80.8249 27.8762C80.6967 27.7455 80.6715 27.5118 80.5836 27.2805C80.0784 27.3358 79.9829 27.0141 80.0231 26.5794C80.0533 26.2602 79.6713 26.039 79.6562 25.9511C79.513 25.0589 78.2941 25.461 78.1332 24.6316C78.1181 24.5537 77.7286 24.5487 77.6884 24.5412C77.3793 24.8704 77.1254 25.0564 76.9948 25.3077C76.9118 25.466 76.9269 25.8078 77.0425 25.9159C77.5602 26.4135 77.5125 27.376 77.0324 27.8912C76.7887 28.1526 76.7862 28.6402 76.668 29.0498C76.4871 29.0976 76.2684 29.1604 76.0498 29.2157C75.0822 29.4595 74.1699 28.7784 74.1699 27.7807C74.1699 25.084 74.1775 22.3874 74.2051 19.6907C74.2076 19.3037 74.1121 18.8538 74.6449 18.6201C74.7731 18.5648 74.7882 18.1752 74.8033 17.9365C74.8736 16.8206 74.8686 16.8332 75.9895 16.7528C76.3438 16.7277 76.8138 16.886 76.9545 16.3205C76.9646 16.2803 77.2486 16.2426 77.2737 16.2828C77.6381 16.8784 78.2388 16.6422 78.7439 16.7075C79.1787 16.7628 79.6261 16.7302 80.0533 16.8106C80.2795 16.8533 80.4805 17.0519 80.6841 17.1926C81.0963 17.4741 81.5336 17.7304 81.908 18.0571C82.2272 18.3361 82.476 18.7005 82.75 19.0297C82.8128 19.1026 82.8379 19.2157 82.9108 19.271C83.4411 19.6605 83.4411 20.2134 82.951 20.6156C82.8103 20.7312 82.7022 21.0152 82.7374 21.1886C82.8907 21.9249 82.29 22.3522 81.9005 22.5784C81.3652 22.8875 81.3828 23.272 81.3401 23.6967C81.3124 23.9581 81.3878 24.232 81.423 24.5386V24.5336ZM80.0307 19.467C79.5783 19.3288 79.1234 19.3162 78.8696 19.0825C78.4147 18.6653 77.9875 18.605 77.5652 19.0699C77.4522 19.1956 77.2687 19.2534 77.128 19.3564C77.0249 19.4318 76.8641 19.5324 76.8641 19.6228C76.8615 19.7586 76.9721 19.8993 77.0425 20.0325C77.1531 20.2436 77.3541 20.4472 77.3717 20.6658C77.427 21.3921 77.4069 22.1235 77.4496 22.8498C77.4572 22.9729 77.6105 23.1539 77.7261 23.1815C77.8141 23.2016 77.9523 23.0232 78.0654 22.9327C78.4549 22.6135 78.6158 22.038 79.2139 21.9325C79.3195 21.9149 79.3823 21.6661 79.4652 21.5228C79.4954 21.4726 79.523 21.4198 79.5456 21.3796C79.7417 21.3444 79.9176 21.3117 80.1438 21.2715C80.1438 20.9523 80.1589 20.6608 80.1387 20.3743C80.1186 20.0652 80.0709 19.7586 80.0382 19.4695L80.0307 19.467Z" fill="black"/>
<path d="M155.944 24.7172C155.766 24.5413 155.587 24.3679 155.414 24.192C155.371 24.1493 155.326 24.0487 155.301 24.0538C154.419 24.2523 153.961 23.3928 153.21 23.1867C152.717 23.0535 152.25 22.5861 151.692 22.3875C151.579 22.3473 151.571 22.0131 151.506 21.8145C151.461 21.6788 151.42 21.4426 151.347 21.43C150.676 21.3144 150.89 20.7866 150.86 20.3971C150.825 19.9397 150.827 19.4747 150.865 19.0173C150.9 18.565 150.8 18.0799 151.337 17.7582C151.546 17.6326 151.579 17.2103 151.724 16.8459C151.92 16.8032 152.202 16.7454 152.481 16.6826C152.579 16.66 152.752 16.6449 152.762 16.5971C152.948 15.7401 153.644 16.1297 154.13 16.0417C154.434 15.9864 154.758 16.0291 155.067 15.9965C155.195 15.9839 155.356 15.9236 155.434 15.8281C155.874 15.2978 156.316 15.3079 156.776 15.8457C156.866 15.9512 157.055 15.9814 157.206 16.0216C157.512 16.102 157.884 16.0794 158.123 16.2478C158.698 16.6549 159.003 17.2154 158.613 17.8789C158.427 18.0699 158.256 18.2835 158.048 18.4468C157.917 18.5474 157.726 18.6202 157.563 18.6228C156.457 18.6378 155.351 18.6303 154.172 18.6303V20.4825C154.675 20.8268 155.454 20.4147 155.509 21.2742C155.808 21.3018 156.077 21.3244 156.346 21.3521C156.447 21.3621 156.628 21.3722 156.638 21.4099C156.811 22.1915 157.487 21.8799 157.997 22.0432C158.043 22.2066 158.095 22.3976 158.146 22.5886C158.188 22.5609 158.234 22.5308 158.276 22.5031C158.432 22.7142 158.568 22.9454 158.754 23.1289C158.887 23.2621 159.083 23.3274 159.329 23.4682C159.457 23.8552 159.314 24.4735 159.927 24.765C159.965 24.7826 159.764 25.3028 159.641 25.6924C159.877 25.9336 160.337 26.3056 159.596 26.7077C159.543 26.7378 159.533 26.856 159.513 26.9364C159.45 27.1978 159.392 27.4616 159.319 27.7758C158.507 27.7934 158.834 28.5222 158.638 29.0022C158.379 29.0651 158.1 29.1329 157.824 29.2033C157.726 29.2284 157.555 29.2561 157.547 29.3038C157.432 29.9975 156.869 29.7939 156.459 29.8316C155.899 29.8844 155.331 29.8668 154.765 29.8743C154.474 29.8793 154.215 29.8567 154.057 30.2262C153.923 30.5378 153.255 30.4926 153.026 30.2362C152.848 30.0326 152.622 29.8718 152.395 29.6908C152.167 29.5149 151.925 29.3541 151.717 29.1581C151.626 29.0726 151.559 28.9118 151.561 28.7861C151.569 28.3061 151.606 27.8286 151.639 27.2531H156.135V24.667C156.075 24.6821 156.014 24.6946 155.954 24.7097L155.944 24.7172Z" fill="black"/>
<path d="M47.3416 23.355C47.3114 23.5359 47.2838 23.7169 47.2536 23.9004C47.2209 23.8752 47.1908 23.8501 47.1581 23.825C46.9721 24.0009 46.8012 24.1969 46.5977 24.3452C46.462 24.4457 46.2785 24.5261 46.1126 24.5312C44.9842 24.5689 43.8583 24.5965 42.7299 24.599C42.3278 24.599 42.1091 24.7121 42.094 25.1469C42.0639 26.0014 42.0136 26.8534 41.9684 27.7531C41.6743 27.8762 41.1893 27.8863 41.4205 28.4894C41.0687 28.5221 40.8023 28.5548 40.5359 28.5648C40.4152 28.5699 40.1966 28.5422 40.1865 28.4945C40.0583 27.8888 39.5658 27.8888 39.1134 27.7656C38.9953 27.733 38.8872 27.4364 38.8822 27.258C38.8344 25.7752 38.8068 24.2924 38.7867 22.8096C38.7741 21.7868 38.8043 20.7639 38.7741 19.741C38.749 18.9092 38.8822 18.0773 39.4502 17.5143C39.7744 17.1926 40.1363 16.6749 40.8073 16.7554C41.3175 16.8182 41.8477 16.7076 42.368 16.6699C42.4685 16.6624 42.6193 16.6599 42.662 16.597C43.3079 15.6244 44.2906 16.0944 44.9792 16.2929C45.5019 16.4437 46.0875 16.6071 46.6077 16.8408C47.0224 17.0268 47.3717 17.3635 47.9196 17.7531C48.0176 17.9868 47.7738 18.6478 48.4574 18.8815C48.5052 18.8966 48.5052 19.075 48.5102 19.1781C48.5353 19.8466 48.5781 20.5151 48.5705 21.1836C48.568 21.5028 48.6761 21.9099 48.1357 22.0129C48.0352 22.0331 48.0277 22.4226 47.9372 22.6262C47.8166 22.9026 47.6607 23.1615 47.5225 23.4279C47.4622 23.4027 47.4019 23.3751 47.3416 23.35V23.355ZM44.7656 21.3821C44.8183 21.4249 44.8711 21.4676 44.9239 21.5078C45.1601 21.2665 45.3737 20.9976 45.6326 20.7865C46.2031 20.3191 46.1478 19.6355 45.4919 19.3238C45.4215 19.2886 45.3687 19.2183 45.2983 19.1781C45.0345 19.0273 44.7756 18.786 44.4941 18.7533C43.8734 18.683 43.2426 18.7282 42.6143 18.7081C42.2951 18.698 42.0815 18.776 42.0815 19.1429C42.0815 20.0527 42.0815 20.9649 42.0815 21.9225H44.5796C44.6449 21.7264 44.7027 21.5555 44.758 21.3821H44.7656Z" fill="black"/>
<path d="M112.323 19.3993C111.978 19.9974 111.654 20.5629 111.267 21.2389C110.978 21.2314 110.847 21.5103 110.855 21.9476C110.872 23.0082 110.86 24.0713 110.86 25.1344C110.92 25.1117 110.981 25.0891 111.041 25.0665C111.204 25.2801 111.365 25.4937 111.526 25.7099C111.564 25.7576 111.581 25.8355 111.629 25.8607C112.358 26.2452 113.021 26.773 113.941 26.6523C114.496 26.5794 115.067 26.6197 115.63 26.6197C115.773 26.6197 116.024 26.6347 116.04 26.69C116.226 27.4163 116.881 27.1273 117.246 27.3912C117.454 27.5646 117.681 27.7204 117.862 27.919C117.952 28.0195 118.03 28.2884 117.987 28.3236C117.628 28.6151 117.241 28.8715 116.859 29.1354C116.613 29.3037 116.15 29.163 116.122 29.6682C116.12 29.726 115.849 29.8139 115.7 29.8139C114.612 29.8215 113.526 29.824 112.438 29.7938C112.089 29.7838 111.662 29.8441 111.511 29.344C111.491 29.2736 111.297 29.2585 111.184 29.2133C110.825 29.065 110.302 29.2434 110.181 28.6001C110.144 28.4015 109.719 28.2759 109.458 28.1075C109.244 27.821 109.113 27.4716 108.882 27.3761C108.46 27.2052 108.394 26.7126 108.138 26.5694C107.55 26.2452 107.651 25.7601 107.6 25.2927C107.56 24.9132 107.588 24.5111 107 24.5463C107.057 23.9582 106.723 23.3098 107.618 23.0157C107.455 22.8675 107.367 22.772 107.264 22.6991C106.899 22.4377 106.932 22.2191 107.291 21.9703C107.449 21.8597 107.525 21.6033 107.598 21.3998C107.706 21.1057 107.505 20.6659 108.07 20.588C108.181 20.5729 108.259 20.1281 108.304 19.8743C108.349 19.6079 108.304 19.3339 108.694 19.2711C108.784 19.256 108.842 19.0147 108.907 18.8715C109.05 18.5548 108.872 18.0396 109.485 18.0019C109.558 17.9969 109.611 17.6451 109.762 17.5496C110.023 17.3284 110.254 16.9765 110.551 16.9112C111.31 16.7428 111.727 15.8456 112.609 15.9964C112.644 16.0014 112.71 15.9864 112.725 15.9612C113.283 15.0112 114.182 15.6018 114.921 15.4887C115.062 15.4686 115.243 15.6722 115.394 15.7903C115.469 15.8506 115.502 15.9738 115.58 16.024C115.944 16.2578 116.331 16.4563 116.683 16.7051C116.987 16.9187 116.733 17.8587 116.507 18.1175C115.751 18.977 114.773 18.5523 113.891 18.683C113.491 18.7408 112.916 18.4995 112.838 19.2359C112.83 19.3088 112.511 19.3465 112.323 19.4068V19.3993Z" fill="black"/>
<path d="M10.1187 17.5419C10.2921 17.3409 10.4479 17.1222 10.6414 16.9438C10.7344 16.8584 10.8877 16.8081 11.0184 16.798C11.707 16.7478 12.3956 16.7226 13.0842 16.6749C13.411 16.6523 13.7553 16.7553 13.9387 16.2577C13.984 16.1346 14.8636 16.132 15.1802 16.3457C15.4944 16.5568 15.5949 16.7352 15.9015 16.3909C15.9744 16.3105 16.2559 16.3733 16.4218 16.4286C16.5901 16.4839 16.7233 16.6523 16.8917 16.7C17.2637 16.8081 17.6608 16.6975 17.8844 17.2454C18.0352 17.6148 18.5705 17.8209 18.9123 18.125C19.0053 18.2079 19.0606 18.3763 19.0606 18.507C19.0757 19.7385 19.0782 20.9724 19.0732 22.2039C19.0732 22.317 19.0078 22.5206 18.9601 22.5256C18.4147 22.5784 18.4851 23.0282 18.4147 23.365C18.3519 23.659 18.3544 23.9657 17.9297 23.9355C17.8945 23.9355 17.8317 23.9631 17.8216 23.9908C17.5376 24.9006 16.746 24.5186 16.1855 24.5713C15.233 24.6618 14.268 24.5965 13.4914 24.5965C13.1672 24.9006 12.941 25.0715 12.7751 25.2851C12.6746 25.4158 12.6218 25.6118 12.6143 25.7802C12.5891 26.4085 12.6193 27.0368 12.5791 27.6626C12.5339 28.3713 12.0966 28.6879 11.3803 28.5824C11.1541 28.5497 10.9304 28.4969 10.8576 28.4819C10.556 28.1652 10.3373 27.934 10.1187 27.7028C10.076 27.7329 10.0332 27.7631 9.9905 27.7932C9.94024 27.1725 9.91511 26.5467 9.82966 25.931C9.79447 25.6696 9.59593 25.4334 9.5331 25.1695C9.49289 25.0011 9.49792 24.697 9.59593 24.6392C10.0056 24.3904 10.0433 24.1969 9.62609 23.928C9.26168 23.6917 9.2843 23.0232 9.61604 22.7066C9.75929 22.5708 9.88244 22.3497 9.90003 22.1587C9.94275 21.6636 9.92516 21.1609 9.92265 20.6633C9.92265 20.3442 10.0383 19.9697 9.54316 19.8666C9.49289 19.8566 9.44765 19.5424 9.46273 19.5349C10.189 19.261 9.87238 18.6276 9.94527 18.1376C9.97542 17.934 9.95029 17.7229 9.95029 17.5143C10.0056 17.5244 10.0584 17.5319 10.1136 17.5419H10.1187ZM16.4972 19.4218C16.2157 19.2635 16.0322 19.163 15.8487 19.0574C15.6552 18.9468 15.4492 18.7206 15.2732 18.7432C14.4841 18.8463 13.5819 18.2959 12.9058 19.2258C12.7575 19.4294 12.5715 19.56 12.5766 19.834C12.5816 20.0627 12.5841 20.2914 12.5967 20.5226C12.6419 21.5203 13.1043 21.9626 14.092 21.9601C14.3836 21.9601 14.6776 21.9828 14.9666 21.9551C15.1878 21.9325 15.4341 21.8948 15.615 21.7792C15.8915 21.6058 16.1252 21.3595 16.4946 21.0403V19.4218H16.4972Z" fill="black"/>
<path d="M139.784 28.2054V18.6603C139.43 18.6603 139.121 18.59 138.864 18.6729C138.103 18.9217 137.716 18.2909 137.186 18.0094C137.105 17.9667 137.098 17.743 137.095 17.6023C137.085 17.1248 137.09 16.6473 137.09 16.0994C137.804 16.0667 138.43 16.0743 139.045 15.9964C139.307 15.9637 139.535 15.7149 139.799 15.6269C139.958 15.5741 140.31 15.6244 140.317 15.6671C140.385 16.1095 140.707 16.0391 140.988 16.0391C142.411 16.0341 143.833 16.0114 145.255 16.019C145.6 16.019 146.065 15.9913 146.258 16.1874C146.708 16.6422 147.284 17.1474 146.791 17.9843C146.389 18.0974 145.788 17.9491 145.55 18.5824C145.524 18.6528 145.24 18.6302 145.075 18.6402C144.534 18.6729 143.989 18.683 143.451 18.7383C143.32 18.7508 143.207 18.9041 143.084 18.9921C143.165 19.0976 143.242 19.2057 143.328 19.3062C143.413 19.4093 143.582 19.5048 143.587 19.6078C143.609 20.2763 143.607 20.9473 143.584 21.6159C143.579 21.7289 143.448 21.8546 143.348 21.9426C142.926 22.3045 142.958 22.9504 143.411 23.2595C143.501 23.3198 143.609 23.4354 143.612 23.5259C143.624 23.9858 143.798 24.6367 143.562 24.8729C142.504 25.9436 143.451 27.2781 142.984 28.2381C142.715 28.5372 142.566 28.8564 142.34 28.9242C141.956 29.0398 141.496 29.1001 141.124 28.9921C140.692 28.8664 140.32 28.5347 139.782 28.2054H139.784Z" fill="black"/>
<path d="M87.628 18.6653C87.2887 18.3311 87.0701 18.1149 86.7258 17.7757C86.8162 17.5093 86.4669 17.0946 87.06 16.5341C87.5702 16.0516 87.9874 16.1044 88.4925 16.034C88.8243 15.9888 89.2414 16.1094 89.3118 15.5867C89.4978 15.6168 89.6938 15.6168 89.8647 15.6847C90.0708 15.7651 90.2543 15.9963 90.4503 15.9988C91.8099 16.029 93.1696 16.0164 94.5292 16.0164C95.1324 16.0164 95.7355 16.0164 96.3387 16.0164C96.3111 16.0843 96.2859 16.1547 96.2583 16.2225C96.4769 16.4236 96.7056 16.6146 96.9067 16.8307C96.9796 16.9086 97.0524 17.1072 97.0122 17.1499C96.7232 17.469 96.4066 17.7681 96.0924 18.0647C96.0547 18.1024 95.9291 18.0798 95.919 18.1099C95.6124 18.9719 94.8785 18.5522 94.3231 18.6327C93.9788 18.6829 93.6219 18.6427 93.1897 18.6427C93.1897 19.7686 93.1897 20.8091 93.1897 21.847C93.1847 23.6666 93.1897 25.4861 93.157 27.3057C93.1545 27.5143 92.9308 27.7153 92.8303 27.9289C92.6694 28.2758 92.5237 28.6301 92.3302 29.0825C91.9431 29.0825 91.4455 29.0875 90.9504 29.0775C90.8599 29.0775 90.7519 29.0222 90.684 28.9568C90.4704 28.7583 90.2719 28.5422 90.0658 28.3336C90.0231 28.3662 89.9778 28.3964 89.9351 28.4291C89.9074 28.1602 89.8873 27.8912 89.8446 27.6274C89.827 27.5118 89.7944 27.3685 89.7164 27.2981C89.156 26.8005 89.146 26.3808 89.6687 25.8204C89.7692 25.7123 89.8346 25.5288 89.8371 25.3806C89.8672 23.3926 89.8672 21.4072 89.91 19.4193C89.9225 18.8387 89.6662 18.6502 89.1409 18.6603C88.578 18.6729 88.015 18.6628 87.628 18.6628V18.6653Z" fill="black"/>
<path d="M127.919 23.2948C127.553 23.2445 127.248 23.2244 126.959 23.144C126.904 23.1289 126.846 22.8474 126.899 22.7545C127.037 22.5107 127.236 22.3046 127.49 21.9829H127.919V23.2948Z" fill="white"/>
</svg>
