<svg width="170" height="45" viewBox="0 0 170 45" fill="none" xmlns="http://www.w3.org/2000/svg">
<path d="M85.7803 12.2358H89.0002V24.9846C89.0002 26.4346 88.6911 27.6487 88.0729 28.6271C87.4546 29.6054 86.6132 30.3435 85.5485 30.8414C84.4923 31.3305 83.3117 31.5751 82.0065 31.5751C80.6585 31.5751 79.4564 31.3305 78.4002 30.8414C77.3441 30.3435 76.5112 29.6054 75.9016 28.6271C75.3005 27.6487 75 26.4346 75 24.9846V12.2358H78.2199V24.9846C78.2199 25.9017 78.3745 26.6573 78.6836 27.2513C78.9927 27.8365 79.4306 28.2689 79.9973 28.5484C80.564 28.828 81.2338 28.9677 82.0065 28.9677C82.7793 28.9677 83.4448 28.828 84.0029 28.5484C84.5696 28.2689 85.0075 27.8365 85.3166 27.2513C85.6257 26.6573 85.7803 25.9017 85.7803 24.9846V12.2358Z" fill="#343432"/>
<path d="M98.8593 17.1362V19.4422H91.0027V17.1362H98.8593ZM93.2696 13.664H96.3736V27.3954C96.3736 27.8322 96.4337 28.1685 96.5539 28.4043C96.6827 28.6314 96.8587 28.7843 97.0819 28.8629C97.3052 28.9415 97.5671 28.9808 97.8676 28.9808C98.0823 28.9808 98.2883 28.9677 98.4858 28.9415C98.6833 28.9153 98.8422 28.8891 98.9624 28.8629L98.9753 31.2738C98.7177 31.3524 98.4171 31.4223 98.0737 31.4834C97.7388 31.5445 97.3524 31.5751 96.9145 31.5751C96.2018 31.5751 95.5707 31.4485 95.0212 31.1951C94.4717 30.9331 94.0423 30.5094 93.7332 29.9242C93.4241 29.339 93.2696 28.5615 93.2696 27.592V13.664Z" fill="#343432"/>
<path d="M100.617 24.3819V24.0805C100.617 23.0585 100.763 22.1108 101.055 21.2373C101.347 20.355 101.768 19.5907 102.317 18.9443C102.875 18.2892 103.554 17.7826 104.352 17.4244C105.159 17.0576 106.07 16.8741 107.083 16.8741C108.105 16.8741 109.015 17.0576 109.813 17.4244C110.62 17.7826 111.303 18.2892 111.861 18.9443C112.419 19.5907 112.844 20.355 113.136 21.2373C113.428 22.1108 113.574 23.0585 113.574 24.0805V24.3819C113.574 25.4038 113.428 26.3516 113.136 27.2251C112.844 28.0986 112.419 28.8629 111.861 29.518C111.303 30.1644 110.625 30.671 109.826 31.0379C109.028 31.396 108.122 31.5751 107.109 31.5751C106.087 31.5751 105.172 31.396 104.365 31.0379C103.567 30.671 102.888 30.1644 102.33 29.518C101.772 28.8629 101.347 28.0986 101.055 27.2251C100.763 26.3516 100.617 25.4038 100.617 24.3819ZM103.721 24.0805V24.3819C103.721 25.0195 103.786 25.6222 103.914 26.19C104.043 26.7578 104.245 27.2557 104.52 27.6837C104.794 28.1117 105.147 28.448 105.576 28.6926C106.005 28.9371 106.516 29.0594 107.109 29.0594C107.684 29.0594 108.182 28.9371 108.603 28.6926C109.032 28.448 109.384 28.1117 109.659 27.6837C109.933 27.2557 110.135 26.7578 110.264 26.19C110.401 25.6222 110.47 25.0195 110.47 24.3819V24.0805C110.47 23.4516 110.401 22.8576 110.264 22.2986C110.135 21.7308 109.929 21.2285 109.646 20.7918C109.371 20.355 109.019 20.0144 108.59 19.7698C108.169 19.5165 107.667 19.3898 107.083 19.3898C106.499 19.3898 105.992 19.5165 105.563 19.7698C105.142 20.0144 104.794 20.355 104.52 20.7918C104.245 21.2285 104.043 21.7308 103.914 22.2986C103.786 22.8576 103.721 23.4516 103.721 24.0805Z" fill="#343432"/>
<path d="M119.556 19.8615V36.7637H116.452V17.1362H119.312L119.556 19.8615ZM128.637 24.0936V24.3687C128.637 25.3995 128.516 26.356 128.276 27.2382C128.044 28.1117 127.696 28.876 127.233 29.5311C126.778 30.1775 126.215 30.6798 125.546 31.0379C124.876 31.396 124.103 31.5751 123.227 31.5751C122.36 31.5751 121.6 31.4135 120.947 31.0903C120.303 30.7584 119.758 30.2911 119.312 29.6884C118.865 29.0856 118.505 28.3781 118.23 27.5658C117.964 26.7447 117.775 25.845 117.663 24.8666V23.8053C117.775 22.7659 117.964 21.8225 118.23 20.9752C118.505 20.1279 118.865 19.3985 119.312 18.7871C119.758 18.1756 120.303 17.7039 120.947 17.372C121.591 17.0401 122.343 16.8741 123.201 16.8741C124.077 16.8741 124.854 17.0488 125.533 17.3982C126.211 17.7389 126.782 18.228 127.246 18.8657C127.709 19.4946 128.057 20.2546 128.289 21.1455C128.521 22.0278 128.637 23.0105 128.637 24.0936ZM125.533 24.3687V24.0936C125.533 23.4385 125.473 22.8314 125.352 22.2724C125.232 21.7046 125.043 21.2067 124.786 20.7787C124.528 20.3507 124.197 20.0187 123.794 19.7829C123.399 19.5383 122.922 19.416 122.364 19.416C121.815 19.416 121.342 19.5121 120.947 19.7043C120.552 19.8877 120.222 20.1454 119.956 20.4773C119.69 20.8092 119.483 21.1979 119.338 21.6434C119.192 22.0802 119.088 22.5562 119.028 23.0716V25.6135C119.131 26.2424 119.307 26.8189 119.556 27.343C119.805 27.8671 120.158 28.2864 120.613 28.6009C121.076 28.9066 121.669 29.0594 122.39 29.0594C122.948 29.0594 123.425 28.9371 123.82 28.6926C124.215 28.448 124.537 28.1117 124.786 27.6837C125.043 27.2469 125.232 26.7447 125.352 26.1769C125.473 25.6091 125.533 25.0064 125.533 24.3687Z" fill="#343432"/>
<path d="M134.864 17.1362V31.3131H131.747V17.1362H134.864Z" fill="#343432"/>
<path d="M146.384 28.4698V21.7089C146.384 21.2023 146.294 20.7656 146.114 20.3987C145.934 20.0318 145.659 19.7479 145.29 19.547C144.929 19.3461 144.474 19.2457 143.924 19.2457C143.418 19.2457 142.98 19.333 142.611 19.5077C142.241 19.6824 141.954 19.9183 141.748 20.2153C141.542 20.5122 141.438 20.8485 141.438 21.2242H138.347C138.347 20.6651 138.48 20.1235 138.747 19.5994C139.013 19.0753 139.399 18.608 139.906 18.1975C140.412 17.7869 141.018 17.4637 141.722 17.2279C142.426 16.992 143.216 16.8741 144.092 16.8741C145.139 16.8741 146.067 17.0532 146.874 17.4113C147.689 17.7695 148.329 18.311 148.793 19.036C149.265 19.7523 149.501 20.652 149.501 21.7351V28.0374C149.501 28.6838 149.544 29.2647 149.63 29.7801C149.724 30.2867 149.858 30.7278 150.029 31.1034V31.3131H146.848C146.702 30.9724 146.586 30.54 146.5 30.0159C146.423 29.4831 146.384 28.9677 146.384 28.4698ZM146.835 22.6916L146.861 24.6439H144.633C144.057 24.6439 143.551 24.7007 143.113 24.8142C142.675 24.9191 142.31 25.0763 142.018 25.2859C141.726 25.4956 141.507 25.7489 141.361 26.0459C141.215 26.3429 141.142 26.6792 141.142 27.0548C141.142 27.4304 141.228 27.7754 141.4 28.0899C141.572 28.3956 141.821 28.6358 142.147 28.8105C142.482 28.9852 142.885 29.0725 143.358 29.0725C143.993 29.0725 144.547 28.9415 145.019 28.6795C145.5 28.4087 145.878 28.0811 146.152 27.6968C146.427 27.3037 146.573 26.9325 146.59 26.5831L147.595 27.985C147.492 28.3432 147.316 28.7275 147.067 29.1381C146.818 29.5486 146.492 29.9417 146.088 30.3173C145.693 30.6841 145.217 30.9855 144.658 31.2213C144.109 31.4572 143.473 31.5751 142.752 31.5751C141.842 31.5751 141.031 31.3917 140.318 31.0248C139.605 30.6492 139.047 30.1469 138.644 29.518C138.24 28.8804 138.038 28.1597 138.038 27.3561C138.038 26.6049 138.176 25.941 138.45 25.3645C138.734 24.7793 139.146 24.2901 139.687 23.8971C140.236 23.504 140.906 23.207 141.696 23.0061C142.486 22.7964 143.388 22.6916 144.401 22.6916H146.835Z" fill="#343432"/>
<path d="M134.864 17.1362V31.3131H131.747V17.1362H134.864Z" fill="#343432"/>
<path d="M134.899 12V15.4433H131.782V12H134.899Z" fill="#343432"/>
<path d="M134.899 12V15.4433H131.782V12H134.899Z" fill="#343432"/>
<path fill-rule="evenodd" clip-rule="evenodd" d="M27.4143 3.33325L23.4817 7.33023C24.7656 8.57429 26.0364 9.66862 27.2917 10.6251V16.828C24.4212 15.3419 21.7065 13.5727 19.1508 11.732L15 15.9507C19.2758 19.0893 23.3794 21.3875 27.2917 22.9979V33.4077L32.9447 34.8948V24.8986C38.6626 26.3874 43.9057 26.4277 48.6042 25.5738V39.1796L54.2572 40.6666V24.0562C59.8621 22.0535 64.4569 18.8892 67.8798 15.8555L64.1307 12.045C60.732 14.8723 57.4399 16.926 54.2572 18.3412V12.682C56.4892 11.3062 58.4652 9.66317 60.139 7.98786L56.4192 4.20732C43.919 16.6239 33.1886 8.66663 27.4143 3.33325ZM32.9447 14.0954V19.2612C37.7856 20.9047 43.0095 21.5078 48.6042 20.2378V15.297C43.9911 16.7464 38.6858 16.7819 32.9447 14.0954Z" fill="#4C7064"/>
</svg>
