<svg width="170" height="45" viewBox="0 0 170 45" fill="none" xmlns="http://www.w3.org/2000/svg">
<path d="M24.4673 13.2484L34.5891 7.55486C34.7666 7.45498 34.986 7.58329 34.986 7.78701V31.9701L24.7285 37.74C24.5509 37.8398 24.3315 37.7115 24.3315 37.5078V13.4805C24.3315 13.3843 24.3834 13.2955 24.4673 13.2484Z" fill="black"/>
<path d="M34.9863 31.9702L45.2439 26.2004C45.4214 26.1005 45.6408 26.2288 45.6408 26.4325V37.697C45.6408 37.8441 45.5216 37.9634 45.3745 37.9634H35.2527C35.1056 37.9634 34.9863 37.8441 34.9863 37.697V31.9702Z" fill="black"/>
<path d="M62.0805 15.0708H59.353V30.6477H68.6011V28.1332H62.0805V15.0708ZM73.5466 15.0708H70.819V30.6477H73.5466V15.0708ZM83.8184 17.3722C85.6935 17.3722 87.2704 18.2246 87.7605 20.0571H90.6372C90.1897 16.8821 87.4409 14.8151 83.8823 14.8151C79.1943 14.8151 76.1045 18.182 76.1045 22.9125C76.1045 27.7071 79.1517 30.8821 83.52 30.8821C85.6296 30.8821 87.3983 30.0511 88.2506 28.8578L88.4211 30.6477H90.7225V21.8897H83.4774V24.2976H88.1867V24.3616C88.1867 26.8547 86.5459 28.3463 83.8397 28.3463C80.963 28.3463 78.9599 26.4498 78.9599 22.9765C78.9599 19.6097 80.7286 17.3722 83.8184 17.3722ZM96.3955 30.6477V24.0419H103.3V30.6477H106.027V15.0708H103.3V21.5062H96.3955V15.0708H93.6679V30.6477H96.3955ZM108.119 17.5853H112.68V30.6477H115.407V17.5853H119.967V15.0708H108.119V17.5853ZM131.726 30.6477V28.1332H124.78V23.9993H131.002V21.5914H124.78V17.5853H131.726V15.0708H122.052V30.6477H131.726ZM137.411 30.6477V24.8304H140.757L143.399 30.6477H146.382L143.42 24.255C145.253 23.5092 146.233 22.0176 146.233 19.9293C146.233 16.8608 144.166 15.0708 140.629 15.0708H134.684V30.6477H137.411ZM137.411 17.5001H140.629C142.355 17.5001 143.378 18.3737 143.378 19.9293C143.378 21.5062 142.355 22.4224 140.629 22.4224H137.411V17.5001Z" fill="black"/>
</svg>
