<svg width="20" height="20" viewBox="0 0 20 20" fill="none" xmlns="http://www.w3.org/2000/svg">
<g clip-path="url(#clip0_6922_55504)">
<path fill-rule="evenodd" clip-rule="evenodd" d="M10 20C15.5228 20 20 15.5228 20 10C20 4.47715 15.5228 0 10 0C4.47715 0 0 4.47715 0 10C0 15.5228 4.47715 20 10 20ZM14.545 8.41498C14.545 11.6 12.12 15.275 7.685 15.275C6.325 15.275 5.055 14.875 4 14.185C4.19 14.21 4.38 14.22 4.575 14.22C5.705 14.22 6.745 13.835 7.57 13.19C6.515 13.17 5.625 12.475 5.32 11.515C5.47 11.545 5.62 11.56 5.775 11.56C5.995 11.56 6.21 11.53 6.41 11.475C5.305 11.25 4.475 10.28 4.475 9.10998V9.07998C4.8 9.25998 5.17 9.36998 5.565 9.37998C4.915 8.94998 4.49 8.20998 4.49 7.37498C4.49 6.93498 4.61 6.51998 4.815 6.16498C6.005 7.62498 7.78 8.58498 9.785 8.68497C9.74 8.50998 9.72 8.32498 9.72 8.13498C9.72 6.80498 10.8 5.72498 12.13 5.72498C12.825 5.72498 13.45 6.01498 13.89 6.48498C14.44 6.37498 14.955 6.17498 15.42 5.89998C15.24 6.46498 14.86 6.93498 14.36 7.23498C14.85 7.17498 15.315 7.04498 15.745 6.85498C15.42 7.33998 15.01 7.76498 14.54 8.10498C14.545 8.20498 14.545 8.30998 14.545 8.41498Z" fill="white"/>
</g>
<defs>
<clipPath id="clip0_6922_55504">
<rect width="20" height="20" fill="white"/>
</clipPath>
</defs>
</svg>
