<svg width="21" height="20" viewBox="0 0 21 20" fill="none" xmlns="http://www.w3.org/2000/svg">
<path d="M18.038 6.81868C17.922 6.90869 15.8738 8.06281 15.8738 10.6291C15.8738 13.5974 18.48 14.6475 18.558 14.6735C18.546 14.7375 18.144 16.1116 17.1839 17.5118C16.3278 18.7439 15.4337 19.974 14.0736 19.974C12.7135 19.974 12.3634 19.1839 10.7933 19.1839C9.26311 19.1839 8.71906 20 7.47493 20C6.23081 20 5.36272 18.8599 4.36462 17.4597C3.20851 15.8156 2.27441 13.2613 2.27441 10.8371C2.27441 6.94869 4.80267 4.88649 7.29092 4.88649C8.61305 4.88649 9.71516 5.75458 10.5452 5.75458C11.3353 5.75458 12.5674 4.83448 14.0716 4.83448C14.6416 4.83448 16.6899 4.88649 18.038 6.81868ZM13.3575 3.18832C13.9796 2.45024 14.4196 1.42614 14.4196 0.40204C14.4196 0.260026 14.4076 0.116012 14.3816 0C13.3695 0.0380038 12.1654 0.674067 11.4393 1.51615C10.8693 2.16422 10.3372 3.18832 10.3372 4.22642C10.3372 4.38244 10.3632 4.53845 10.3752 4.58846C10.4392 4.60046 10.5432 4.61446 10.6473 4.61446C11.5553 4.61446 12.6975 4.0064 13.3575 3.18832Z" fill="black"/>
</svg>
