<svg width="170" height="45" viewBox="0 0 170 45" fill="none" xmlns="http://www.w3.org/2000/svg">
<path d="M29.8908 19.8907L37.0708 17.9907L39.9008 20.0007C40.7308 20.6207 40.3108 23.0207 40.3108 23.0207C40.3108 23.0207 34.6408 27.1407 32.6708 26.9307C30.7008 26.7207 28.4208 23.8507 28.4208 23.8507L29.8908 19.8907Z" fill="#3B67C3"/>
<path d="M32.6809 26.9306C32.6809 26.9306 29.7509 25.5506 29.2309 24.0806C28.7109 22.6106 30.0109 21.5606 31.0009 20.9106C31.7809 20.4006 38.1109 17.4906 40.7609 16.2806C41.9209 15.7506 42.9009 14.8406 43.4009 13.6706C43.8309 12.6606 43.9909 11.3906 43.1109 10.1206C43.0909 10.0906 43.0709 10.0606 43.0509 10.0406C41.6809 8.09062 39.0609 7.48062 36.8909 8.46062L29.4409 11.8006C29.4409 11.8006 21.6609 15.6306 26.0909 22.7606C26.0909 22.7606 28.7509 26.7606 32.6809 26.9306Z" fill="url(#paint0_linear_5596_85228)"/>
<path d="M39.9009 20.0007C39.9009 20.0007 40.7109 21.9407 38.4109 23.6607C36.1109 25.3807 26.9909 29.0707 26.9909 29.0707C26.9909 29.0707 22.2309 31.4107 24.7209 35.1607C24.7409 35.1907 24.7609 35.2307 24.7909 35.2607C26.1909 37.3007 28.9109 37.9507 31.1509 36.8907L37.7109 33.7607C39.6509 32.8307 41.2808 31.2907 42.1308 29.3107C42.1308 29.3107 44.1809 23.0407 39.9009 20.0007Z" fill="url(#paint1_linear_5596_85228)"/>
<path d="M145.701 28.8007C143.971 30.3007 143.061 30.3107 141.641 28.7007C141.141 28.1407 141.041 28.6707 140.821 28.8707C138.381 31.0607 133.971 29.7907 133.111 26.6307C132.591 24.7507 133.451 23.1407 135.281 22.4607C136.791 21.9107 138.391 22.0007 139.951 21.8007C140.461 21.7407 141.151 21.9107 141.131 21.0707C141.121 20.3407 140.581 20.1007 139.941 20.0607C138.771 19.9707 137.631 20.0907 136.501 20.4607C135.111 20.9207 134.311 20.6207 134.001 19.6707C133.661 18.6007 134.211 17.5907 135.441 17.1607C137.391 16.4707 139.381 16.1907 141.451 16.5507C143.631 16.9407 145.011 18.2207 145.711 20.2907V28.7907L145.701 28.8007ZM140.221 24.1607C138.511 24.2007 137.491 24.7607 137.611 25.6207C137.741 26.4707 138.371 26.7407 139.151 26.7407C140.241 26.7407 141.151 25.9107 141.171 24.9607C141.181 24.2707 140.801 24.1107 140.221 24.1607Z" fill="#2E7AEB"/>
<path d="M80.9208 20.4607C80.9208 18.1707 80.9108 15.8807 80.9208 13.5907C80.9308 11.8207 81.6008 11.0607 83.1008 11.0107C84.7808 10.9507 85.5708 11.6907 85.6808 13.5007C85.7408 14.6207 85.7108 15.7507 85.7108 16.8707C85.7108 17.4507 85.9108 17.6607 86.4608 17.3007C90.1408 14.8407 94.8308 17.5307 94.9808 22.5907C95.0308 24.2007 94.8608 25.7407 94.0508 27.1807C92.4408 30.0407 89.0008 30.8507 86.3508 28.9107C85.7508 28.4707 85.5008 28.4207 85.0508 29.0807C84.3908 30.0407 83.3208 30.0107 82.3308 29.7207C81.3108 29.4207 80.9308 28.5907 80.9308 27.5907C80.9208 25.2207 80.9308 22.8407 80.9308 20.4707L80.9208 20.4607ZM90.1808 22.9407C90.1808 22.8107 90.1808 22.4807 90.1208 22.1507C89.9108 20.8607 89.1508 20.1107 88.0208 20.0707C86.7008 20.0207 86.0408 20.6107 85.7008 22.0107C85.4608 22.9807 85.5608 23.9107 85.8508 24.8407C86.1708 25.8507 86.8908 26.3107 87.9308 26.2807C89.4208 26.2507 90.1708 25.1907 90.1808 22.9407Z" fill="#2E7AEB"/>
<path d="M78.4308 23.2707C78.4308 24.6007 78.4708 25.9407 78.4208 27.2707C78.3808 28.2807 78.2208 29.3607 77.0508 29.7007C75.9308 30.0307 74.7808 30.0107 74.0408 28.8807C73.6708 28.3107 73.4008 28.5907 73.0608 28.8807C71.4908 30.2507 69.6908 30.1907 67.9008 29.5207C66.4608 28.9807 65.7308 27.7707 65.4608 26.2807C65.0208 23.8007 65.1708 21.3007 65.2608 18.8007C65.3208 17.2207 66.3108 16.4507 67.8008 16.5207C69.2508 16.5907 69.9608 17.3707 69.9808 18.9907C70.0008 20.7007 69.9808 22.4007 70.0008 24.1107C70.0108 25.1107 70.1508 26.0807 71.4308 26.2307C72.4808 26.3507 73.5008 25.5107 73.5808 24.2507C73.7008 22.5107 73.6308 20.7607 73.6608 19.0107C73.7008 17.2207 74.6108 16.3807 76.3208 16.5307C77.5508 16.6407 78.3208 17.4407 78.4008 18.9107C78.4708 20.3607 78.4208 21.8207 78.4208 23.2807C78.4208 23.2807 78.4208 23.2807 78.4308 23.2807V23.2707Z" fill="#2E7AEB"/>
<path d="M104.941 24.3008C103.941 24.3008 102.941 24.3008 101.941 24.3008C101.661 24.3008 101.311 24.2608 101.181 24.6008C101.071 24.9108 101.271 25.1608 101.461 25.3808C101.971 26.0108 102.681 26.2108 103.451 26.2708C104.631 26.3708 105.761 26.1208 106.891 25.8008C107.751 25.5608 108.481 25.7808 108.861 26.6508C109.221 27.4608 109.091 28.2608 108.341 28.7708C105.551 30.6808 98.6608 30.6808 96.8408 25.8808C95.8808 23.3608 96.1108 20.9208 97.8308 18.8108C99.5208 16.7408 101.831 16.0508 104.451 16.5408C107.411 17.0908 109.471 19.6608 109.451 22.7008C109.451 23.7308 108.951 24.2508 107.941 24.2708C106.941 24.2908 105.941 24.2708 104.941 24.2708C104.941 24.2708 104.941 24.2808 104.941 24.2908V24.3008ZM103.171 21.8008C103.581 21.8008 104.001 21.8208 104.411 21.8008C105.391 21.7408 105.621 21.2608 105.061 20.4308C104.431 19.5008 102.951 19.2808 101.961 20.0008C101.491 20.3408 100.961 20.7808 101.131 21.4108C101.301 22.0308 101.971 21.7508 102.431 21.8108C102.671 21.8408 102.931 21.8108 103.171 21.8108V21.8008Z" fill="#2E7AEB"/>
<path d="M57.5708 29.9907C56.1708 29.8507 54.7108 29.8107 53.3408 29.2207C52.2308 28.7407 51.7708 27.8807 52.1208 26.9607C52.4908 25.9707 53.2108 25.6707 54.4608 26.0707C55.5008 26.4007 56.5608 26.6207 57.6508 26.5607C58.3008 26.5307 59.1908 26.6607 59.2808 25.8007C59.3708 24.8707 58.4308 24.9607 57.8208 24.8407C57.0908 24.7007 56.3308 24.6407 55.6008 24.5007C53.6108 24.1107 52.4408 23.0507 52.2208 21.4707C51.9508 19.5507 52.7708 18.0607 54.6808 17.1507C57.0808 16.0107 59.5408 16.1307 61.9508 17.1007C62.8708 17.4707 63.4608 18.1807 63.0708 19.2807C62.7208 20.2807 61.9308 20.5907 60.7408 20.2207C59.7908 19.9207 58.8208 19.5907 57.8108 19.6907C57.2608 19.7507 56.5208 19.7707 56.5508 20.5907C56.5708 21.2807 57.1808 21.3807 57.7308 21.4807C58.7108 21.6607 59.7108 21.7907 60.6808 22.0107C62.2808 22.3807 63.3608 23.3107 63.6308 25.0107C63.8708 26.5107 62.9908 28.1807 61.6008 29.0107C60.3708 29.7407 59.0108 29.8707 57.5808 29.9807L57.5708 29.9907Z" fill="#2E7AEB"/>
<path d="M111.201 23.0208C111.201 21.7708 111.161 20.5208 111.211 19.2708C111.251 18.1608 111.391 17.0108 112.671 16.6508C113.861 16.3108 115.001 16.4108 115.671 17.7108C116.001 18.3508 116.341 17.9808 116.621 17.6708C117.241 17.0008 118.021 16.6608 118.901 16.4808C119.951 16.2708 120.711 16.5608 121.061 17.6208C121.421 18.7008 121.011 19.8808 120.111 20.3208C119.891 20.4308 119.641 20.5008 119.401 20.5408C116.301 21.1008 115.991 21.4708 115.991 24.6008C115.991 25.6008 116.011 26.6008 115.981 27.6008C115.941 29.0108 115.281 29.7408 113.991 29.8308C112.461 29.9408 111.441 29.3108 111.301 27.8708C111.151 26.2608 111.271 24.6308 111.271 23.0108C111.241 23.0108 111.221 23.0108 111.191 23.0108L111.201 23.0208Z" fill="#2E7AEB"/>
<path d="M127.241 18.3607C128.021 17.2307 129.001 16.6807 130.201 16.4707C131.201 16.2907 131.921 16.5307 132.261 17.5607C132.651 18.7207 132.251 19.9307 131.301 20.3607C131.041 20.4807 130.751 20.5407 130.461 20.5807C127.801 20.9507 127.271 21.5407 127.251 24.1907C127.251 25.3507 127.281 26.5207 127.231 27.6807C127.171 29.0707 126.451 29.7807 125.161 29.8507C123.631 29.9307 122.571 29.2607 122.521 27.8407C122.421 24.7307 122.441 21.6007 122.521 18.4907C122.551 17.4607 123.161 16.7107 124.301 16.5407C125.661 16.3407 126.341 16.7207 127.231 18.3607H127.241Z" fill="#2E7AEB"/>
<defs>
<linearGradient id="paint0_linear_5596_85228" x1="37.5009" y1="12.5007" x2="30.1166" y2="25.4984" gradientUnits="userSpaceOnUse">
<stop stop-color="#3687ED"/>
<stop offset="1" stop-color="#71ECF2"/>
</linearGradient>
<linearGradient id="paint1_linear_5596_85228" x1="26.4876" y1="34.4024" x2="41.4661" y2="21.9791" gradientUnits="userSpaceOnUse">
<stop stop-color="#3687ED"/>
<stop offset="1" stop-color="#71ECF2"/>
</linearGradient>
</defs>
</svg>
