<svg width="171" height="45" viewBox="0 0 171 45" fill="none" xmlns="http://www.w3.org/2000/svg">
<g clip-path="url(#clip0_1767_142450)">
<path d="M81.6903 15H76.2441V17.2787H78.3405V29.1282H75.6403V31.4069H83.6842V29.1282H81.6903V15Z" fill="#030204"/>
<path d="M91.9034 15H86.4572V17.2787H88.5536V29.1282H85.8533V31.4069H93.8973V29.1282H91.9034V15Z" fill="#030204"/>
<path d="M99.4274 23.2831C99.5412 22.1095 100.35 21.4829 101.809 21.4829C103.267 21.4829 103.996 22.1095 103.996 23.4654V23.7958L99.9856 24.2857C97.6043 24.5819 95.7359 25.6188 95.7359 27.9545C95.7359 30.2788 97.5019 31.6118 100.179 31.6118C102.424 31.6118 103.415 30.7574 103.882 30.028H104.11V31.4067H107.232V23.9325C107.232 20.6739 105.136 19.2041 101.877 19.2041C98.5956 19.2041 96.5905 20.6739 96.3512 22.9413V23.2831H99.4274ZM99.0286 27.8064C99.0286 26.9062 99.7123 26.4734 100.704 26.3365L103.996 25.9035V26.4164C103.996 28.3419 102.72 29.3103 100.965 29.3103C99.7349 29.3103 99.0286 28.7178 99.0286 27.8064Z" fill="#030204"/>
<path d="M109.768 31.4068H112.844V23.7275C112.844 22.2577 113.619 21.6196 114.701 21.6196C115.67 21.6196 116.148 22.1779 116.148 23.1236V31.4068H119.225V23.7275C119.225 22.2577 119.999 21.6196 121.07 21.6196C122.05 21.6196 122.517 22.1779 122.517 23.1236V31.4068H125.605V22.7021C125.605 20.5372 124.238 19.2498 122.153 19.2498C120.284 19.2498 119.418 20.0587 118.917 20.9474H118.689C118.347 20.1726 117.504 19.2498 115.772 19.2498C114.075 19.2498 113.334 19.9562 112.924 20.674H112.696V19.4776H109.768V31.4068Z" fill="#030204"/>
<path d="M131.047 23.2831C131.161 22.1095 131.97 21.4829 133.428 21.4829C134.887 21.4829 135.616 22.1095 135.616 23.4654V23.7958L131.605 24.2857C129.224 24.5819 127.355 25.6188 127.355 27.9545C127.355 30.2788 129.121 31.6118 131.799 31.6118C134.043 31.6118 135.035 30.7574 135.502 30.028H135.73V31.4067H138.851V23.9325C138.851 20.6739 136.755 19.2041 133.497 19.2041C130.215 19.2041 128.21 20.6739 127.971 22.9413V23.2831H131.047ZM130.648 27.8064C130.648 26.9062 131.332 26.4734 132.323 26.3365L135.616 25.9035V26.4164C135.616 28.3419 134.34 29.3103 132.585 29.3103C131.355 29.3103 130.648 28.7178 130.648 27.8064Z" fill="#030204"/>
<path d="M39.407 26.3922C39.4095 26.1776 39.495 25.9723 39.6454 25.8194C39.7957 25.6666 39.9994 25.578 40.2136 25.5722H50.9543C51.4612 25.5733 51.9634 25.4743 52.4322 25.2809C52.9009 25.0874 53.3269 24.8034 53.686 24.445C54.045 24.0865 54.33 23.6607 54.5246 23.1919C54.7192 22.7232 54.8197 22.2206 54.8202 21.7129V8H51.7811V21.7129C51.7786 21.9274 51.6931 22.1327 51.5427 22.2856C51.3924 22.4385 51.1887 22.5271 50.9745 22.5328H40.2237C39.202 22.5339 38.2224 22.9408 37.4999 23.6644C36.7774 24.3879 36.371 25.3689 36.3699 26.3922V35.8579H39.407V26.3922Z" fill="#6A45EC"/>
<path d="M56.1652 10.6133H56.03L56.1591 10.7425V13.5699H58.9543L60.2651 14.8948C59.3941 15.0729 58.6113 15.5465 58.0488 16.2357C57.4863 16.9248 57.1786 17.7873 57.1774 18.6774V35.8618H60.2024V18.6734C60.2056 18.4569 60.2928 18.2501 60.4457 18.097C60.5985 17.9439 60.8051 17.8565 61.0212 17.8534H61.487C63.2717 17.8534 63.8768 16.8578 64.0563 16.4397C64.2357 16.0217 64.512 14.8806 63.2497 13.6123L60.2891 10.6234H59.3675" fill="#6A45EC"/>
<path d="M48.131 34.3654C48.7944 34.3648 49.4513 34.4965 50.0634 34.7528C50.6755 35.0091 51.2306 35.3847 51.6964 35.8578H55.3727C54.711 34.4985 53.6813 33.353 52.4009 32.5515C51.1204 31.7501 49.6409 31.3252 48.131 31.3252C46.621 31.3252 45.1415 31.7501 43.861 32.5515C42.5806 33.353 41.5509 34.4985 40.8892 35.8578H44.5655C45.0313 35.3847 45.5864 35.0091 46.1985 34.7528C46.8106 34.4965 47.4675 34.3648 48.131 34.3654Z" fill="#6A45EC"/>
</g>
<defs>
<clipPath id="clip0_1767_142450">
<rect width="106.479" height="36" fill="white" transform="translate(32.3726 4)"/>
</clipPath>
</defs>
</svg>
