<svg width="170" height="45" viewBox="0 0 170 45" fill="none" xmlns="http://www.w3.org/2000/svg">
<g clip-path="url(#clip0_4318_68770)">
<path d="M97.8426 18.4575C98.1574 19.1038 98.2873 19.7253 98.2099 20.3799C98.1105 21.203 97.4752 21.9543 96.7184 22.1505C95.8317 22.3797 94.9009 22.0952 94.4203 21.4351C93.8789 20.6893 93.9231 19.8634 94.0971 19.0182C94.1358 18.8331 94.3043 18.9188 94.4286 18.8304C94.1413 18.463 93.738 18.3111 93.3182 18.2227C91.4565 17.8305 89.9954 18.6287 89.3766 20.4297C88.6226 22.6228 88.6392 24.8159 89.5948 26.9538C89.9871 27.8294 90.5865 28.5475 91.4482 29.0254C92.6166 29.6745 95.0611 29.575 96.351 28.0504C96.6631 27.6802 96.9531 27.2935 97.2156 26.8903C97.3288 26.7162 97.4061 26.6527 97.6161 26.7715C98.1989 27.0974 98.1989 27.0836 98.0138 27.7189C97.4945 29.517 96.4615 30.9092 94.7849 31.7847C93.6193 32.3924 92.368 32.4836 91.0919 32.2985C87.5481 31.7903 85.4351 29.1414 84.9075 25.9567C84.4683 23.3023 85.0318 20.855 86.6863 18.7006C88.6281 16.1705 92.136 15.1706 95.1191 16.2975C95.956 16.6152 96.7101 17.0709 97.315 17.7449C97.4255 17.8692 97.4918 17.8857 97.6492 17.7863C99.4225 16.6566 100.804 15.1319 102.035 13.4553C102.505 12.8172 102.908 12.1433 103.254 11.4334C103.37 11.1986 103.51 11.171 103.72 11.2318C104.411 11.4251 104.342 11.2318 104.342 11.9969C104.345 13.2868 104.347 14.5739 104.339 15.8639C104.339 16.1042 104.403 16.1787 104.648 16.176C105.833 16.1622 107.018 16.176 108.203 16.1649C108.457 16.1649 108.549 16.2257 108.532 16.4909C108.513 16.8113 108.419 17.2615 108.582 17.4189C108.77 17.5985 109.17 17.3305 109.474 17.2532C110.855 16.9079 112.23 16.5433 113.609 16.1843C114.131 16.0489 114.656 15.9246 115.175 15.7782C115.371 15.723 115.429 15.792 115.426 15.9716C115.426 16.0738 115.426 16.1787 115.426 16.2809C115.426 20.3772 115.426 24.4734 115.426 28.5696C115.426 29.669 115.843 30.1219 116.932 30.2131C117.172 30.2324 117.412 30.2683 117.653 30.2877C117.857 30.3015 117.923 30.4064 117.918 30.6026C117.907 30.981 117.907 31.3621 117.918 31.7406C117.926 31.9726 117.851 32.0692 117.603 32.0692C114.83 32.0637 112.056 32.0637 109.283 32.0692C109.054 32.0692 108.982 31.9836 108.99 31.7599C109.004 31.3704 109.007 30.9782 108.99 30.586C108.982 30.3761 109.062 30.3153 109.258 30.2822C109.687 30.2048 110.134 30.2601 110.551 30.1026C111.181 29.8678 111.474 29.5032 111.476 28.8403C111.485 25.86 111.476 22.8797 111.476 19.8993C111.476 19.5513 111.311 19.3193 111.018 19.148C110.272 18.7144 109.474 18.3857 108.703 18.0017C108.56 17.9299 108.502 17.9769 108.521 18.115C108.573 18.4492 108.375 18.4603 108.129 18.4575C106.977 18.452 105.828 18.463 104.676 18.4464C104.394 18.4437 104.328 18.5321 104.328 18.7972C104.336 21.8466 104.334 24.896 104.334 27.9454C104.334 28.7409 104.546 29.0696 105.143 29.2104C105.927 29.3955 106.59 29.111 107.09 28.4702C107.355 28.1332 107.538 27.7465 107.698 27.3543C107.783 27.1444 107.888 27.1085 108.096 27.1803C108.932 27.4786 108.797 27.2797 108.593 28.1387C108.375 29.0585 108.043 29.9341 107.446 30.6937C106.662 31.6936 105.643 32.2267 104.378 32.2957C102.806 32.3841 101.577 31.8068 100.812 30.3926C100.475 29.7712 100.42 29.0779 100.42 28.3846C100.42 25.2081 100.414 22.0344 100.425 18.858C100.425 18.5486 100.364 18.4326 100.027 18.4464C99.3148 18.4741 98.6021 18.4547 97.8232 18.4547L97.8426 18.4575Z" fill="#393939"/>
<path d="M131.767 21.8107C130.576 24.3243 129.386 26.835 128.198 29.3486C127.662 30.481 127.121 31.6108 126.599 32.7488C126.494 32.9752 126.345 32.9973 126.135 33.0001C125.911 33.0029 125.762 32.967 125.652 32.7294C124.596 30.4451 123.533 28.1636 122.464 25.8849C121.481 23.7829 120.489 21.6837 119.5 19.5817C119.072 18.673 118.404 18.0598 117.379 17.9078C117.208 17.883 117.147 17.8139 117.15 17.6399C117.161 17.2256 117.161 16.8113 117.15 16.397C117.144 16.2174 117.205 16.1594 117.387 16.1594C119.975 16.1649 122.564 16.1649 125.152 16.1594C125.337 16.1594 125.386 16.2257 125.384 16.3997C125.375 16.8251 125.37 17.2505 125.384 17.6758C125.389 17.8747 125.306 17.9355 125.127 17.9576C124.798 17.999 124.461 18.0128 124.143 18.1205C123.663 18.2807 123.486 18.5901 123.616 19.079C123.771 19.659 124.074 20.1811 124.315 20.728C125.138 22.6007 125.975 24.4651 126.809 26.3351C126.831 26.3848 126.864 26.4318 126.906 26.5036C127.127 26.197 127.248 25.8628 127.397 25.5479C128.209 23.8354 129.013 22.1173 129.817 20.3993C129.977 20.0568 130.118 19.7032 130.187 19.3276C130.303 18.6895 130.071 18.3139 129.45 18.1261C129.118 18.0266 128.773 17.9935 128.43 17.9603C128.226 17.941 128.16 17.8554 128.168 17.6537C128.182 17.2284 128.179 16.803 128.168 16.3776C128.165 16.2147 128.218 16.1594 128.383 16.1594C130.557 16.1649 132.731 16.1649 134.905 16.1594C135.087 16.1594 135.145 16.2174 135.142 16.397C135.131 16.8113 135.137 17.2256 135.142 17.6399C135.142 17.7532 135.123 17.8443 134.996 17.8775C133.684 18.2089 132.999 19.1922 132.457 20.3219C132.319 20.612 132.19 20.9048 132.054 21.1975C131.952 21.3992 131.869 21.6063 131.761 21.8052L131.767 21.8107Z" fill="#393939"/>
<path d="M34.3521 19.1285C34.5316 19.9406 34.551 20.725 33.9985 21.4266C33.4434 22.1309 32.5899 22.3878 31.6397 22.1199C30.8829 21.9072 30.3277 21.2194 30.2338 20.3714C30.1923 19.9903 30.22 19.6146 30.2835 19.239C30.3194 19.0235 30.3415 18.8136 30.7365 18.8854C30.2393 18.3634 29.6924 18.2059 29.1013 18.1507C27.1319 17.9684 26.0077 18.9959 25.4801 20.7913C24.8614 22.8933 24.8891 25.0063 25.8613 27.0199C26.4635 28.2656 27.3694 29.2185 28.8334 29.3732C30.5072 29.55 31.9159 29.0224 32.9379 27.6275C33.0732 27.4425 33.1975 27.2464 33.3384 27.0668C33.4406 26.937 33.4848 26.6719 33.656 26.7078C33.9046 26.763 34.1311 26.9287 34.3576 27.0613C34.4488 27.1138 34.3825 27.2077 34.3659 27.2823C33.8853 29.2683 32.8495 30.8427 30.9934 31.7984C29.825 32.4005 28.571 32.4917 27.2976 32.2955C24.2151 31.8177 21.9723 29.7212 21.2651 26.5752C20.616 23.6915 21.1326 21.0205 22.9583 18.6534C24.9112 16.1233 28.513 15.1483 31.4712 16.3443C32.5926 16.7973 33.5456 17.4795 34.1339 18.5816C34.2223 18.7584 34.2996 18.9407 34.3466 19.134L34.3521 19.1285Z" fill="#393939"/>
<path d="M50.0659 9.75391C50.7426 9.58818 51.3945 9.42521 52.0491 9.26777C53.7119 8.8645 55.3747 8.46399 57.0375 8.06072C57.4877 7.953 57.485 7.95024 57.485 8.41704C57.485 15.1345 57.485 21.8548 57.485 28.5723C57.485 29.1744 57.6203 29.7047 58.1949 29.9948C58.5318 30.166 58.913 30.2102 59.2969 30.2351C60.0952 30.2875 59.9709 30.2351 59.9819 30.9587C59.9847 31.199 59.9681 31.4421 59.9875 31.6824C60.0096 31.9697 59.9018 32.0525 59.6146 32.0498C57.3137 32.0387 55.0129 32.0443 52.712 32.0443C52.2646 32.0443 51.8143 32.0332 51.3669 32.0498C51.1321 32.0581 51.0658 31.978 51.0769 31.7542C51.0907 31.3758 51.0934 30.9946 51.0769 30.6162C51.0658 30.3566 51.1763 30.271 51.4194 30.2599C51.7066 30.2461 51.9939 30.224 52.2756 30.1743C53.3031 29.9865 53.5434 29.5197 53.5876 28.5419C53.6152 27.9563 53.5932 27.368 53.5932 26.7824C53.5932 21.9956 53.5876 17.2116 53.5987 12.4249C53.5987 11.7261 53.3777 11.2399 52.6927 10.9775C51.9221 10.682 51.1708 10.3367 50.4084 10.0163C50.2814 9.96383 50.1515 9.9224 50.0742 9.75391H50.0659Z" fill="#393939"/>
<path d="M59.5619 9.67392C61.7827 9.13807 64.0034 8.59946 66.2242 8.06084C66.6827 7.95036 66.6799 7.94759 66.6799 8.41715C66.6799 15.1125 66.6799 21.8079 66.6799 28.5061C66.6799 29.1165 66.7794 29.6938 67.3953 29.9949C67.7351 30.1606 68.1135 30.2186 68.4974 30.2324C69.1907 30.2628 69.1907 30.2683 69.1907 30.9616C69.1907 31.1798 69.1741 31.4008 69.1935 31.6162C69.2239 31.9394 69.1134 32.0554 68.7709 32.0499C66.9313 32.0333 65.089 32.0416 63.2466 32.0416C62.3489 32.0416 61.4512 32.0333 60.5535 32.0471C60.3436 32.0499 60.2663 31.9974 60.2718 31.782C60.2856 31.3787 60.2829 30.9754 60.2718 30.5749C60.2663 30.3512 60.363 30.2766 60.5756 30.2573C60.896 30.2269 61.2165 30.2214 61.5341 30.1578C62.5312 29.9562 62.7632 29.4121 62.7715 28.5669C62.7936 26.2881 62.7798 24.0121 62.7798 21.7334C62.7798 18.6039 62.7743 15.4744 62.7853 12.3449C62.7853 11.6986 62.5506 11.2649 61.9346 10.9997C61.1446 10.66 60.3519 10.3258 59.5537 10.0026C59.4542 9.95842 59.3078 9.9529 59.3106 9.80374C59.3161 9.64906 59.4818 9.73469 59.5537 9.67116L59.5619 9.67392Z" fill="#393939"/>
<path d="M113.448 9.70157C114.023 9.70157 114.598 9.70986 115.175 9.69605C115.418 9.69053 115.495 9.77615 115.495 10.0137C115.487 11.1876 115.487 12.3587 115.495 13.5326C115.495 13.7536 115.415 13.8475 115.197 13.8475C114.023 13.8448 112.852 13.8448 111.678 13.8475C111.476 13.8475 111.396 13.7619 111.399 13.5547C111.405 12.3587 111.405 11.1627 111.399 9.96674C111.399 9.74853 111.496 9.69605 111.692 9.69881C112.277 9.7071 112.866 9.69881 113.451 9.69881L113.448 9.70157Z" fill="#393939"/>
<path fill-rule="evenodd" clip-rule="evenodd" d="M38.0642 17.4797C35.9539 19.2033 35.0783 21.518 35.0176 23.8271L35.0203 23.8243C35.0259 26.4318 35.7192 28.426 37.2383 30.0833C38.4647 31.4229 40.0226 32.1356 41.829 32.351C44.7983 32.7046 47.8228 31.1744 49.2867 28.5669C50.3225 26.7218 50.6567 24.7496 50.3695 22.6725C49.9248 19.4602 47.6073 16.4191 43.884 15.9274C41.7295 15.6429 39.7574 16.0987 38.0642 17.4797ZM39.8099 20.1258C39.321 21.2666 39.1746 22.4709 39.205 23.7V23.7028C39.205 23.7988 39.203 23.8945 39.2011 23.99C39.1969 24.1941 39.1927 24.3973 39.2078 24.6005C39.3127 26.0589 39.5972 27.4676 40.4231 28.7188C41.2269 29.9397 42.5997 30.4203 43.9421 29.8927C44.9281 29.5033 45.4502 28.6774 45.8037 27.741C46.3147 26.3793 46.3644 24.9568 46.2595 23.5233C46.1656 22.2361 45.9142 20.9932 45.2347 19.8717C44.6657 18.9326 43.9089 18.2476 42.7571 18.1675C41.4589 18.0791 40.3762 18.8083 39.8099 20.1258Z" fill="#393939"/>
<path fill-rule="evenodd" clip-rule="evenodd" d="M77.6391 23.6319C78.0188 23.6313 78.3985 23.6308 78.7784 23.6308L78.7811 23.6253C79.0894 23.6253 79.3976 23.6252 79.7059 23.6251C80.9389 23.6246 82.1719 23.6242 83.4049 23.6308C83.637 23.6308 83.7253 23.5756 83.7309 23.327C83.7502 22.4127 83.706 21.5095 83.4547 20.6256C82.557 17.4658 79.955 15.5268 76.4665 15.8969C74.6241 16.093 73.116 17.01 71.9394 18.4159C70.0722 20.6422 69.4838 23.2303 69.9451 26.0698C70.2379 27.879 71.0638 29.4092 72.4614 30.6162C73.9585 31.9089 75.729 32.3923 77.6625 32.3702C78.4939 32.3619 79.3142 32.221 80.0683 31.8509C81.814 30.9919 82.9078 29.5998 83.3663 27.7077C83.4452 27.3797 83.4845 27.2188 83.4305 27.1007C83.3767 26.983 83.2303 26.9077 82.9381 26.752C82.7448 26.6498 82.6481 26.6498 82.5432 26.8653C81.8692 28.2629 80.7533 29.0556 79.2341 29.3457C77.4056 29.6937 75.9472 29.0916 74.9225 27.5392C74.2126 26.4648 73.964 25.266 73.8618 24.0148C73.8369 23.7165 73.906 23.6198 74.2236 23.6225C75.3629 23.635 76.5006 23.6334 77.6391 23.6319ZM76.168 21.5365C76.378 21.5368 76.5879 21.5371 76.7979 21.5371C77.0409 21.5371 77.284 21.5367 77.527 21.5362C78.1347 21.5351 78.7424 21.534 79.3501 21.5399C79.5462 21.5427 79.607 21.493 79.5849 21.2886C79.5103 20.6284 79.328 20.0042 79.0021 19.4269C77.9856 17.6315 76.0024 17.9049 75.0936 18.9546C74.5136 19.6258 74.2125 20.4212 74.044 21.2803C73.9998 21.5123 74.0744 21.5427 74.2816 21.5427C74.9092 21.5344 75.5384 21.5354 76.168 21.5365Z" fill="#393939"/>
<path fill-rule="evenodd" clip-rule="evenodd" d="M142.488 23.6315C142.871 23.6311 143.253 23.6308 143.636 23.6308V23.6335C144.018 23.6335 144.401 23.6332 144.783 23.6328C145.931 23.6318 147.079 23.6308 148.226 23.639C148.478 23.639 148.569 23.581 148.569 23.3159C148.569 23.2766 148.568 23.2372 148.568 23.1978C148.566 22.6872 148.564 22.1745 148.5 21.6641C148.025 17.9518 144.973 15.198 140.785 16.0018C138.669 16.4078 137.117 17.6894 135.998 19.4959C134.714 21.5675 134.383 23.8269 134.811 26.1995C135.672 30.9725 140.205 33.301 144.348 32.0525C146.447 31.42 147.666 29.829 148.207 27.7242C148.37 27.0862 148.365 27.0833 147.821 26.7844C147.812 26.7792 147.802 26.7739 147.793 26.7685C147.588 26.6553 147.489 26.6581 147.378 26.8845C146.704 28.2601 145.602 29.0583 144.094 29.3456C142.288 29.6881 140.84 29.1274 139.81 27.6137C139.062 26.5144 138.783 25.2715 138.702 23.965C138.686 23.6722 138.783 23.6252 139.045 23.6252C140.193 23.6335 141.34 23.6325 142.488 23.6315ZM139.904 18.9959C139.305 19.7279 138.995 20.5786 138.843 21.537V21.5398C139.304 21.5398 139.762 21.5396 140.218 21.5395C141.578 21.5389 142.92 21.5384 144.26 21.5426C144.451 21.5451 144.442 21.4512 144.431 21.3324C144.43 21.3225 144.429 21.3125 144.428 21.3023C144.354 20.4819 144.08 19.7417 143.603 19.0705C142.655 17.7391 140.78 17.9242 139.904 18.9959Z" fill="#393939"/>
</g>
<defs>
<clipPath id="clip0_4318_68770">
<rect width="127.566" height="25" fill="white" transform="translate(21 8)"/>
</clipPath>
</defs>
</svg>
