<svg width="130" height="36" viewBox="0 0 130 36" fill="none" xmlns="http://www.w3.org/2000/svg">
<g clip-path="url(#clip0_6635_36256)">
<g clip-path="url(#clip1_6635_36256)">
<path d="M16 34C24.8366 34 32 26.8366 32 18C32 9.16344 24.8366 2 16 2C7.16344 2 0 9.16344 0 18C0 26.8366 7.16344 34 16 34Z" fill="#6279F8"/>
<path d="M16.498 6.00012V14.8699L23.9948 18.22L16.498 6.00012Z" fill="#C8D0FF"/>
<path d="M16.4981 6.00012L9 18.22L16.4981 14.8699V6.00012Z" fill="white"/>
<path d="M16.498 23.968V29.9951L24.0001 19.6158L16.498 23.968Z" fill="#C6CFFF"/>
<path d="M16.4981 29.9951V23.9671L9 19.6158L16.4981 29.9951Z" fill="white"/>
<path d="M16.498 22.5731L23.9948 18.22L16.498 14.8721V22.5731Z" fill="#8296F8"/>
<path d="M9 18.22L16.4981 22.5731V14.8721L9 18.22Z" fill="#C6CFFF"/>
</g>
</g>
<g clip-path="url(#clip2_6635_36256)">
<path d="M40 34C48.8366 34 56 26.8366 56 18C56 9.16344 48.8366 2 40 2C31.1634 2 24 9.16344 24 18C24 26.8366 31.1634 34 40 34Z" fill="#8247E5"/>
<path d="M45.2956 14.5768C44.9118 14.3535 44.4129 14.3535 43.9908 14.5768L40.9974 16.2884L38.9635 17.4047L35.9701 19.1163C35.5863 19.3396 35.0875 19.3396 34.6653 19.1163L32.286 17.7768C31.9022 17.5535 31.6336 17.1442 31.6336 16.6977V14.0558C31.6336 13.6093 31.8638 13.2 32.286 12.9768L34.6269 11.6744C35.0107 11.4512 35.5096 11.4512 35.9317 11.6744L38.2727 12.9768C38.6565 13.2 38.9251 13.6093 38.9251 14.0558V15.7675L40.959 14.614V12.9023C40.959 12.4558 40.7288 12.0465 40.3066 11.8233L35.9701 9.36745C35.5863 9.1442 35.0875 9.1442 34.6653 9.36745L30.252 11.8233C29.8299 12.0465 29.5996 12.4558 29.5996 12.9023V17.8512C29.5996 18.2977 29.8299 18.707 30.252 18.9302L34.6653 21.3861C35.0491 21.6093 35.548 21.6093 35.9701 21.3861L38.9635 19.7116L40.9974 18.5581L43.9908 16.8837C44.3745 16.6605 44.8734 16.6605 45.2956 16.8837L47.6365 18.1861C48.0203 18.4093 48.2889 18.8186 48.2889 19.2651V21.907C48.2889 22.3535 48.0587 22.7628 47.6365 22.9861L45.2956 24.3256C44.9118 24.5489 44.4129 24.5489 43.9908 24.3256L41.6498 23.0233C41.2661 22.8 40.9974 22.3907 40.9974 21.9442V20.2326L38.9635 21.3861V23.0977C38.9635 23.5442 39.1937 23.9535 39.6159 24.1768L44.0292 26.6326C44.4129 26.8558 44.9118 26.8558 45.3339 26.6326L49.7472 24.1768C50.131 23.9535 50.3996 23.5442 50.3996 23.0977V18.1489C50.3996 17.7023 50.1694 17.293 49.7472 17.0698L45.2956 14.5768Z" fill="white"/>
</g>
<rect x="23" y="1" width="34" height="34" rx="17" stroke="white" stroke-width="2"/>
<g clip-path="url(#clip3_6635_36256)">
<path d="M64 34C72.8366 34 80 26.8366 80 18C80 9.16344 72.8366 2 64 2C55.1634 2 48 9.16344 48 18C48 26.8366 55.1634 34 64 34Z" fill="#FF0420"/>
<path d="M59.3361 22.2525C58.3834 22.2525 57.6029 22.0283 56.9944 21.58C56.394 21.1237 56.0938 20.4753 56.0938 19.6346C56.0938 19.4585 56.1138 19.2423 56.1538 18.9861C56.2579 18.4097 56.406 17.7172 56.5981 16.9086C57.1425 14.707 58.5476 13.6062 60.8132 13.6062C61.4297 13.6062 61.9821 13.7103 62.4705 13.9184C62.9588 14.1185 63.3431 14.4228 63.6233 14.8311C63.9035 15.2314 64.0436 15.7117 64.0436 16.2721C64.0436 16.4402 64.0236 16.6524 63.9835 16.9086C63.8635 17.6211 63.7194 18.3137 63.5512 18.9861C63.271 20.0829 62.7867 20.9035 62.0982 21.4479C61.4097 21.9843 60.489 22.2525 59.3361 22.2525ZM59.5042 20.5233C59.9526 20.5233 60.3329 20.3912 60.6451 20.127C60.9654 19.8628 61.1935 19.4585 61.3296 18.9141C61.5137 18.1615 61.6539 17.505 61.7499 16.9446C61.7819 16.7765 61.7979 16.6044 61.7979 16.4282C61.7979 15.6997 61.4177 15.3354 60.6571 15.3354C60.2088 15.3354 59.8245 15.4675 59.5042 15.7317C59.1921 15.996 58.9679 16.4002 58.8318 16.9446C58.6877 17.481 58.5435 18.1375 58.3995 18.9141C58.3674 19.0742 58.3514 19.2423 58.3514 19.4184C58.3514 20.155 58.7357 20.5233 59.5042 20.5233Z" fill="white"/>
<path d="M64.5957 22.1325C64.5076 22.1325 64.4395 22.1044 64.3915 22.0484C64.3515 21.9843 64.3395 21.9123 64.3555 21.8322L66.0127 14.0265C66.0287 13.9384 66.0727 13.8664 66.1448 13.8103C66.2169 13.7543 66.2929 13.7263 66.373 13.7263H69.5673C70.456 13.7263 71.1685 13.9104 71.7049 14.2786C72.2493 14.647 72.5215 15.1793 72.5215 15.8758C72.5215 16.076 72.4975 16.2841 72.4494 16.5003C72.2493 17.421 71.845 18.1015 71.2366 18.5418C70.6361 18.9821 69.8115 19.2023 68.7627 19.2023H67.1415L66.5892 21.8322C66.5731 21.9203 66.5291 21.9923 66.4571 22.0484C66.385 22.1044 66.3089 22.1325 66.2289 22.1325H64.5957ZM68.8468 17.5451C69.183 17.5451 69.4752 17.453 69.7234 17.2688C69.9796 17.0847 70.1477 16.8205 70.2278 16.4763C70.2518 16.3401 70.2638 16.2201 70.2638 16.116C70.2638 15.8838 70.1958 15.7077 70.0597 15.5876C69.9236 15.4595 69.6914 15.3955 69.3632 15.3955H67.9221L67.4658 17.5451H68.8468Z" fill="white"/>
</g>
<rect x="47" y="1" width="34" height="34" rx="17" stroke="white" stroke-width="2"/>
<rect x="71" y="1" width="34" height="34" rx="17" fill="#96BEDC"/>
<path d="M91.3567 16.6621L93.7068 12.6745L100.041 22.5405L100.044 24.4338L100.023 11.405C100.008 11.0865 99.8393 10.7952 99.5695 10.6234L88.1653 4.06354C87.8986 3.93246 87.5603 3.93385 87.294 4.06761C87.2581 4.08569 87.2242 4.10525 87.1919 4.1266L87.1522 4.15163L76.0827 10.5664L76.0397 10.5858C75.9845 10.6112 75.9287 10.6435 75.8762 10.6811C75.6664 10.8316 75.527 11.0541 75.4819 11.3038C75.4751 11.3416 75.4702 11.3802 75.4678 11.419L75.4852 22.0362L81.3853 12.8913C82.1281 11.6787 83.7466 11.2881 85.249 11.3094L87.0124 11.3559L76.6225 28.0183L77.8473 28.7235L88.3617 11.3728L93.009 11.3559L82.5217 29.1445L86.892 31.6581L87.4142 31.9584C87.6351 32.0482 87.8954 32.0527 88.1182 31.9723L99.6826 25.2706L97.4716 26.5518L91.3567 16.6621ZM92.2533 29.5759L87.8392 22.648L90.5337 18.0757L96.3308 27.2129L92.2533 29.5759Z" fill="#2D374B"/>
<path d="M87.8389 22.648L92.253 29.5759L96.3305 27.2129L90.5335 18.0757L87.8389 22.648Z" fill="#28A0F0"/>
<path d="M100.044 24.4338L100.041 22.5405L93.7065 12.6745L91.3564 16.6621L97.4714 26.5518L99.6823 25.2706C99.8992 25.0945 100.03 24.836 100.044 24.5571L100.044 24.4338Z" fill="#28A0F0"/>
<path d="M73.5001 26.2193L76.6223 28.0184L87.0122 11.356L85.2488 11.3094C83.7464 11.2881 82.128 11.6787 81.3851 12.8913L75.4849 22.0362L73.5 25.086V26.2193H73.5001Z" fill="white"/>
<path d="M93.0084 11.356L88.3611 11.3728L77.8467 28.7235L81.5217 30.8396L82.5212 29.1445L93.0084 11.356Z" fill="white"/>
<path d="M102.002 11.332C101.963 10.3601 101.437 9.47031 100.613 8.95233L89.0593 2.3082C88.2439 1.89757 87.2252 1.89707 86.4085 2.3079C86.312 2.35656 75.1728 8.81687 75.1728 8.81687C75.0187 8.89076 74.8702 8.97884 74.7305 9.07874C73.9946 9.60616 73.5461 10.4256 73.5 11.3261V25.0861L75.4849 22.0363L75.4676 11.4191C75.4699 11.3803 75.4748 11.3421 75.4817 11.3044C75.5265 11.0546 75.666 10.8317 75.876 10.6812C75.9284 10.6436 87.2578 4.08579 87.2938 4.06772C87.5602 3.93395 87.8985 3.93256 88.1651 4.06365L99.5692 10.6235C99.8391 10.7953 100.008 11.0866 100.023 11.4051V24.5572C100.009 24.8362 99.8991 25.0946 99.6823 25.2707L97.4713 26.5519L96.3305 27.213L92.253 29.576L88.1179 31.9725C87.8951 32.0529 87.6347 32.0484 87.4139 31.9585L82.5214 29.1446L81.522 30.8396L85.9187 33.371C86.0641 33.4536 86.1937 33.5269 86.3 33.5867C86.4646 33.679 86.5767 33.7407 86.6164 33.7599C86.9289 33.9116 87.3784 34 87.7836 34C88.1551 34 88.5173 33.9318 88.8601 33.7975L100.871 26.8418C101.56 26.3077 101.966 25.5022 102.002 24.6296V11.332Z" fill="#96BEDC"/>
<rect x="71" y="1" width="34" height="34" rx="17" stroke="white" stroke-width="2"/>
<g clip-path="url(#clip4_6635_36256)">
<path fill-rule="evenodd" clip-rule="evenodd" d="M127.968 18C127.968 26.8249 120.814 33.9787 111.989 33.9787C103.165 33.9787 96.0107 26.8249 96.0107 18C96.0107 9.17519 103.165 2.02127 111.989 2.02127C120.814 2.02127 127.968 9.17519 127.968 18ZM107.462 24.3587H104.361C103.709 24.3587 103.387 24.3587 103.191 24.2332C102.979 24.0957 102.849 23.8681 102.834 23.6168C102.822 23.3853 102.983 23.1026 103.305 22.5373L110.961 9.04116C111.287 8.46806 111.452 8.1815 111.66 8.07553C111.884 7.9617 112.151 7.9617 112.375 8.07553C112.583 8.1815 112.747 8.46806 113.073 9.04116L114.647 11.7889L114.655 11.8029C115.007 12.4178 115.186 12.7295 115.264 13.0568C115.35 13.414 115.35 13.7908 115.264 14.148C115.185 14.4778 115.008 14.7918 114.651 15.4159L110.629 22.5256L110.619 22.5438C110.265 23.1637 110.085 23.4779 109.836 23.7149C109.566 23.974 109.24 24.1623 108.883 24.2685C108.557 24.3587 108.192 24.3587 107.462 24.3587ZM115.293 24.3587H119.736C120.392 24.3587 120.721 24.3587 120.918 24.2294C121.13 24.0919 121.263 23.8602 121.275 23.6091C121.286 23.3851 121.129 23.1134 120.82 22.581C120.81 22.5629 120.799 22.5444 120.788 22.5257L118.562 18.7181L118.537 18.6752C118.224 18.1463 118.066 17.8792 117.864 17.776C117.64 17.6621 117.377 17.6621 117.153 17.776C116.949 17.882 116.784 18.1607 116.458 18.722L114.241 22.5296L114.233 22.5427C113.908 23.1031 113.746 23.3832 113.758 23.613C113.774 23.8642 113.903 24.0957 114.115 24.2332C114.307 24.3587 114.637 24.3587 115.293 24.3587Z" fill="#E84142"/>
</g>
<rect x="95" y="1" width="34" height="34" rx="17" stroke="white" stroke-width="2"/>
<defs>
<clipPath id="clip0_6635_36256">
<rect width="32" height="32" fill="white" transform="translate(0 2)"/>
</clipPath>
<clipPath id="clip1_6635_36256">
<rect width="32" height="32" fill="white" transform="translate(0 2)"/>
</clipPath>
<clipPath id="clip2_6635_36256">
<rect width="32" height="32" fill="white" transform="translate(24 2)"/>
</clipPath>
<clipPath id="clip3_6635_36256">
<rect width="32" height="32" fill="white" transform="translate(48 2)"/>
</clipPath>
<clipPath id="clip4_6635_36256">
<rect width="32" height="32" fill="white" transform="translate(96 2)"/>
</clipPath>
</defs>
</svg>
