<svg width="16" height="17" viewBox="0 0 16 17" fill="none" xmlns="http://www.w3.org/2000/svg">
<path fill-rule="evenodd" clip-rule="evenodd" d="M5.85501 0.5C5.6451 0.500195 5.43727 0.541739 5.24341 0.62226C5.04955 0.702782 4.87345 0.820702 4.72517 0.969288C4.57689 1.11787 4.45933 1.29421 4.3792 1.48824C4.29908 1.68226 4.25796 1.89017 4.25819 2.10009C4.258 2.30998 4.29915 2.51786 4.37929 2.71185C4.45943 2.90584 4.577 3.08214 4.72528 3.2307C4.87355 3.37925 5.04964 3.49715 5.24348 3.57765C5.43732 3.65815 5.64512 3.69969 5.85501 3.69988H7.45184V2.10009C7.45207 1.89017 7.41095 1.68226 7.33083 1.48824C7.2507 1.29421 7.13314 1.11787 6.98486 0.969288C6.83658 0.820702 6.66048 0.702782 6.46662 0.62226C6.27276 0.541739 6.06493 0.500195 5.85501 0.5V0.5ZM5.85501 4.76681H1.59682C1.38693 4.767 1.17913 4.80853 0.98529 4.88904C0.791449 4.96954 0.615363 5.08743 0.467084 5.23599C0.318805 5.38454 0.201239 5.56085 0.121096 5.75484C0.0409541 5.94883 -0.000194127 6.1567 9.94448e-07 6.3666C-0.000233162 6.57652 0.0408863 6.78442 0.121011 6.97845C0.201136 7.17247 0.318696 7.34881 0.466979 7.4974C0.615261 7.64598 0.791361 7.7639 0.985221 7.84443C1.17908 7.92495 1.38691 7.96649 1.59682 7.96669H5.85501C6.06493 7.96649 6.27276 7.92495 6.46662 7.84443C6.66048 7.7639 6.83658 7.64598 6.98486 7.4974C7.13314 7.34881 7.2507 7.17247 7.33083 6.97845C7.41095 6.78442 7.45207 6.57652 7.45184 6.3666C7.45203 6.1567 7.41088 5.94883 7.33074 5.75484C7.2506 5.56085 7.13303 5.38454 6.98475 5.23599C6.83647 5.08743 6.66039 4.96954 6.46655 4.88904C6.27271 4.80853 6.06491 4.767 5.85501 4.76681" fill="#36C5F0"/>
<path fill-rule="evenodd" clip-rule="evenodd" d="M15.9684 6.3666C15.9686 6.1567 15.9275 5.94883 15.8473 5.75484C15.7672 5.56085 15.6496 5.38454 15.5014 5.23599C15.3531 5.08743 15.177 4.96954 14.9831 4.88904C14.7893 4.80853 14.5815 4.767 14.3716 4.76681C14.1617 4.767 13.9539 4.80853 13.7601 4.88904C13.5662 4.96954 13.3902 5.08743 13.2419 5.23599C13.0936 5.38454 12.976 5.56085 12.8959 5.75484C12.8157 5.94883 12.7746 6.1567 12.7748 6.3666V7.96669H14.3716C14.5815 7.96649 14.7894 7.92495 14.9832 7.84443C15.1771 7.7639 15.3532 7.64598 15.5015 7.4974C15.6497 7.34881 15.7673 7.17247 15.8474 6.97845C15.9275 6.78442 15.9687 6.57652 15.9684 6.3666ZM11.7102 6.3666V2.10009C11.7105 1.89017 11.6694 1.68226 11.5892 1.48824C11.5091 1.29421 11.3916 1.11787 11.2433 0.969288C11.095 0.820702 10.9189 0.702782 10.725 0.62226C10.5312 0.541739 10.3233 0.500195 10.1134 0.5C9.90351 0.500195 9.69568 0.541739 9.50182 0.62226C9.30796 0.702782 9.13186 0.820702 8.98358 0.969288C8.8353 1.11787 8.71774 1.29421 8.63761 1.48824C8.55749 1.68226 8.51637 1.89017 8.5166 2.10009V6.3666C8.51637 6.57652 8.55749 6.78442 8.63761 6.97845C8.71774 7.17247 8.8353 7.34881 8.98358 7.4974C9.13186 7.64598 9.30796 7.7639 9.50182 7.84443C9.69568 7.92495 9.90351 7.96649 10.1134 7.96669C10.3233 7.96649 10.5312 7.92495 10.725 7.84443C10.9189 7.7639 11.095 7.64598 11.2433 7.4974C11.3916 7.34881 11.5091 7.17247 11.5892 6.97845C11.6694 6.78442 11.7105 6.57652 11.7102 6.3666" fill="#2EB67D"/>
<path fill-rule="evenodd" clip-rule="evenodd" d="M10.1134 16.4999C10.3233 16.4997 10.5312 16.4581 10.725 16.3776C10.9189 16.2971 11.095 16.1792 11.2433 16.0306C11.3916 15.882 11.5091 15.7057 11.5892 15.5116C11.6694 15.3176 11.7105 15.1097 11.7102 14.8998C11.7104 14.6899 11.6693 14.482 11.5891 14.288C11.509 14.094 11.3914 13.9177 11.2432 13.7692C11.0949 13.6206 10.9188 13.5027 10.725 13.4222C10.5311 13.3417 10.3233 13.3002 10.1134 13.3H8.5166V14.8998C8.51637 15.1097 8.55749 15.3176 8.63761 15.5116C8.71774 15.7057 8.8353 15.882 8.98358 16.0306C9.13186 16.1792 9.30796 16.2971 9.50182 16.3776C9.69568 16.4581 9.90351 16.4997 10.1134 16.4999ZM10.1134 12.2331H14.3716C14.5815 12.2329 14.7893 12.1914 14.9831 12.1109C15.177 12.0303 15.3531 11.9125 15.5014 11.7639C15.6496 11.6153 15.7672 11.439 15.8473 11.2451C15.9275 11.0511 15.9686 10.8432 15.9684 10.6333C15.9687 10.4234 15.9275 10.2155 15.8474 10.0214C15.7673 9.82742 15.6497 9.65108 15.5015 9.50249C15.3532 9.35391 15.1771 9.23598 14.9832 9.15546C14.7894 9.07494 14.5815 9.0334 14.3716 9.0332H10.1134C9.90351 9.0334 9.69568 9.07494 9.50182 9.15546C9.30796 9.23598 9.13186 9.35391 8.98358 9.50249C8.8353 9.65108 8.71774 9.82742 8.63761 10.0214C8.55749 10.2155 8.51637 10.4234 8.5166 10.6333C8.51641 10.8432 8.55756 11.0511 8.6377 11.2451C8.71784 11.439 8.83541 11.6153 8.98368 11.7639C9.13196 11.9125 9.30805 12.0303 9.50189 12.1109C9.69573 12.1914 9.90353 12.2329 10.1134 12.2331" fill="#ECB22E"/>
<path fill-rule="evenodd" clip-rule="evenodd" d="M1.3534e-06 10.6333C-0.000193768 10.8432 0.0409545 11.0511 0.121097 11.2451C0.201239 11.439 0.318806 11.6153 0.467084 11.7639C0.615363 11.9125 0.79145 12.0303 0.98529 12.1109C1.17913 12.1914 1.38693 12.2329 1.59682 12.2331C1.80672 12.2329 2.01451 12.1914 2.20836 12.1109C2.4022 12.0303 2.57828 11.9125 2.72656 11.7639C2.87484 11.6153 2.99241 11.439 3.07255 11.2451C3.15269 11.0511 3.19384 10.8432 3.19364 10.6333V9.0332H1.59682C1.38688 9.0334 1.17903 9.07495 0.985153 9.15549C0.791273 9.23603 0.61516 9.35398 0.466874 9.5026C0.318588 9.65121 0.201033 9.82759 0.120926 10.0216C0.0408188 10.2157 -0.000271846 10.4236 1.3534e-06 10.6336V10.6333ZM4.25819 10.6333V14.8998C4.25796 15.1097 4.29908 15.3176 4.3792 15.5116C4.45933 15.7057 4.57689 15.882 4.72517 16.0306C4.87345 16.1792 5.04955 16.2971 5.24341 16.3776C5.43727 16.4581 5.6451 16.4997 5.85501 16.4999C6.06493 16.4997 6.27276 16.4581 6.46662 16.3776C6.66048 16.2971 6.83658 16.1792 6.98486 16.0306C7.13314 15.882 7.2507 15.7057 7.33083 15.5116C7.41095 15.3176 7.45207 15.1097 7.45184 14.8998V10.6336C7.45207 10.4237 7.41095 10.2158 7.33083 10.0217C7.2507 9.82772 7.13314 9.65137 6.98486 9.50279C6.83658 9.3542 6.66048 9.23628 6.46662 9.15576C6.27276 9.07524 6.06493 9.0337 5.85501 9.0335C5.6451 9.0337 5.43727 9.07524 5.24341 9.15576C5.04955 9.23628 4.87345 9.3542 4.72517 9.50279C4.57689 9.65137 4.45933 9.82772 4.3792 10.0217C4.29908 10.2158 4.25796 10.4237 4.25819 10.6336" fill="#E01E5A"/>
</svg>
