<svg width="170" height="45" viewBox="0 0 170 45" fill="none" xmlns="http://www.w3.org/2000/svg">
<path d="M107.375 6C106.75 6 106.25 5.625 106.25 5.25V2.75C106.25 2.375 105.75 2 105.125 2H65.625C65 2 64.375 2.375 64.375 2.75V5.125C64.375 5.5 63.875 5.875 63.25 5.875H55.125C54.5 6 54 6.375 54 6.75V17.125C54 17.5 54.5 17.875 55.125 17.875H73.625C74.25 17.875 74.75 18.25 74.75 18.625V21C74.75 21.375 75.25 21.75 75.875 21.75H94.375C95 21.75 95.5 22.125 95.5 22.5V28.875C95.5 29.25 95 29.625 94.375 29.625H86.5C85.875 29.625 85.375 29.25 85.375 28.875V26.5C85.375 26.125 84.875 25.75 84.25 25.75H76.25C75.625 25.75 75.125 25.375 75.125 25V22.625C75.125 22.25 74.625 21.875 74 21.875H55.125C54.5 21.875 54 22.25 54 22.625V29C54 29.375 54.5 29.75 55.125 29.75H63.125C63.75 29.75 64.25 30.125 64.25 30.5V32.875C64.25 33.25 64.75 33.625 65.375 33.625H104.625C105.25 33.625 105.75 33.25 105.75 32.875V30.5C105.75 30.125 106.25 29.75 106.875 29.75H115.25C115.875 29.75 116.5 29.375 116.5 29V18.625C116.5 18.25 115.875 17.875 115.25 17.875H96.875C96.25 17.875 95.75 17.5 95.75 17.125V14.75C95.75 14.375 95.25 14 94.625 14H76C75.375 14 74.875 13.625 74.875 13.25V6.75C74.875 6.375 75.375 6 76 6H84C84.625 6 85.125 6.375 85.125 6.75V9.125C85.125 9.5 85.625 9.875 86.25 9.875H94.25C94.875 9.875 95.375 10.25 95.375 10.625V13C95.375 13.375 95.875 13.75 96.5 13.75H115C115.625 13.75 116.125 13.375 116.125 13V6.75C116.125 6.375 115.625 6 115 6H107.375ZM78 35.75H75.25C73.875 35.75 72.5 36 72.5 38V39.75C72.5 41.75 73.75 42 75.25 42H78C79.375 42 80.75 41.75 80.75 39.75V38C80.75 36.125 79.375 35.75 78 35.75ZM78.5 38.625V39.25C78.5 40 78.375 40.25 77.625 40.25H75.375C74.75 40.25 74.5 40.125 74.5 39.25V38.625C74.5 38 74.625 37.625 75.375 37.625H77.375C78.375 37.625 78.5 38 78.5 38.625ZM86.75 39.375C86.75 40 86.625 40.25 86 40.25H84.25C83.625 40.25 83.5 40 83.5 39.375V35.875H81.375V39.75C81.375 41.25 82.25 42 83.875 42H86.375C88.125 42 88.875 41.25 88.875 39.75V35.875H86.75V39.375ZM95.5 39.625L92.5 35.875H89.5V42H91.5V38.25L94.5 42H97.5V35.875H95.375V39.625H95.5ZM103.75 35.875H98.25V42H103.75C105.625 42 106.25 41.375 106.25 39.875V38.125C106.25 36.5 105.5 35.875 103.75 35.875ZM100.375 37.625H103.25C103.875 37.625 104.125 37.75 104.125 38.5V39.25C104.125 39.875 104 40.125 103.25 40.125H100.375V37.625ZM68.375 38C67.375 38 66.625 38 66.5 37.875V37.625C66.5 37.5 66.625 37.375 67 37.375H69C69.625 37.375 69.625 37.5 69.625 37.625V37.75H71.75V37.5C71.75 36.375 71.375 35.75 69.375 35.75H66.875C64.625 35.75 64.375 36.625 64.375 37.75C64.375 39.375 64.875 39.625 67.5 39.625C69.75 39.625 69.75 39.625 69.75 40C69.75 40.25 69.625 40.25 69.25 40.25H67.125C66.75 40.25 66.625 40.25 66.625 40V39.875H64.375V40.25C64.375 41.75 65.25 42 66.75 42H68.875C71.25 42 71.875 41.75 71.875 40C71.875 39.25 71.75 38.875 71.5 38.5C71 38.125 70.125 38 68.375 38Z" fill="black"/>
</svg>
