<svg width="20" height="20" viewBox="0 0 20 20" fill="none" xmlns="http://www.w3.org/2000/svg">
<g clip-path="url(#clip0_6753_38868)">
<path d="M19.6461 10.1871C19.6461 9.36767 19.5796 8.76973 19.4357 8.14966H10.0791V11.848H15.5712C15.4606 12.767 14.8626 14.1512 13.5338 15.0812L13.5152 15.205L16.4736 17.4969L16.6786 17.5173C18.5609 15.7789 19.6461 13.221 19.6461 10.1871" fill="#4285F4"/>
<path d="M10.0795 19.9314C12.7702 19.9314 15.0291 19.0455 16.679 17.5175L13.5342 15.0813C12.6927 15.6682 11.5632 16.0779 10.0795 16.0779C7.44413 16.0779 5.20739 14.3395 4.41006 11.9366L4.29319 11.9466L1.21699 14.3273L1.17676 14.4391C2.81555 17.6946 6.18175 19.9314 10.0795 19.9314Z" fill="#34A853"/>
<path d="M4.40954 11.9367C4.19916 11.3166 4.0774 10.6522 4.0774 9.96571C4.0774 9.27915 4.19916 8.6148 4.39847 7.99472L4.3929 7.86266L1.27817 5.44373L1.17626 5.4922C0.500838 6.84312 0.113281 8.36014 0.113281 9.96571C0.113281 11.5713 0.500838 13.0882 1.17626 14.4391L4.40954 11.9367" fill="#FBBC05"/>
<path d="M10.0794 3.85336C11.9507 3.85336 13.213 4.66168 13.9328 5.33718L16.7453 2.59107C15.018 0.985496 12.7701 0 10.0794 0C6.18172 0 2.81554 2.23672 1.17676 5.49214L4.39897 7.99466C5.20737 5.59183 7.44409 3.85336 10.0794 3.85336" fill="#EB4335"/>
</g>
<defs>
<clipPath id="clip0_6753_38868">
<rect width="19.544" height="20" fill="white" transform="translate(0.112305)"/>
</clipPath>
</defs>
</svg>
