<svg width="21" height="20" viewBox="0 0 21 20" fill="none" xmlns="http://www.w3.org/2000/svg">
<g clip-path="url(#clip0_6753_38635)">
<path d="M10.5996 20C16.1225 20 20.5996 15.5228 20.5996 10C20.5996 4.47715 16.1225 0 10.5996 0C5.07676 0 0.599609 4.47715 0.599609 10C0.599609 15.5228 5.07676 20 10.5996 20Z" fill="#1B9DF0"/>
<path d="M8.76961 15.275C13.2046 15.275 15.6296 11.6 15.6296 8.415C15.6296 8.31 15.6296 8.205 15.6246 8.105C16.0946 7.765 16.5046 7.34 16.8296 6.855C16.3996 7.045 15.9346 7.175 15.4446 7.235C15.9446 6.935 16.3246 6.465 16.5046 5.9C16.0396 6.175 15.5246 6.375 14.9746 6.485C14.5346 6.015 13.9096 5.725 13.2146 5.725C11.8846 5.725 10.8046 6.805 10.8046 8.135C10.8046 8.325 10.8246 8.51 10.8696 8.685C8.86461 8.585 7.08961 7.625 5.89961 6.165C5.69461 6.52 5.57461 6.935 5.57461 7.375C5.57461 8.21 5.99961 8.95 6.64961 9.38C6.25461 9.37 5.88461 9.26 5.55961 9.08C5.55961 9.09 5.55961 9.1 5.55961 9.11C5.55961 10.28 6.38961 11.25 7.49461 11.475C7.29461 11.53 7.07961 11.56 6.85961 11.56C6.70461 11.56 6.55461 11.545 6.40461 11.515C6.70961 12.475 7.59961 13.17 8.65461 13.19C7.82961 13.835 6.78961 14.22 5.65961 14.22C5.46461 14.22 5.27461 14.21 5.08461 14.185C6.13961 14.875 7.40961 15.275 8.76961 15.275Z" fill="white"/>
</g>
<defs>
<clipPath id="clip0_6753_38635">
<rect width="20" height="20" fill="white" transform="translate(0.599609)"/>
</clipPath>
</defs>
</svg>
