<svg width="20" height="20" viewBox="0 0 20 20" fill="none" xmlns="http://www.w3.org/2000/svg">
<path d="M4.49872 0.312186L17.4882 8.16798C18.8659 9.00076 18.8659 10.9992 17.4882 11.832L4.49872 19.6878C3.07185 20.5506 1.25 19.523 1.25 17.8563V2.14367C1.25 0.47703 3.07185 -0.550571 4.49872 0.312186V0.312186Z" fill="#499ED7"/>
<path d="M4.49882 19.6865L17.4883 11.8307C18.866 10.998 18.866 8.99949 17.4883 8.1667L14.8583 6.57606L14.7299 6.57178L3.61572 19.9681C3.92747 19.9416 4.22927 19.8454 4.49882 19.6865V19.6865Z" fill="#F04C4D"/>
<path d="M1.25 14.9343V17.8555C1.25 19.5232 3.07185 20.5497 4.49872 19.6869L17.4882 11.8311C18.3071 11.3366 18.6272 10.431 18.4719 9.60254L1.25 14.9343Z" fill="#2B8EC6"/>
<path d="M2.40392 0.253418C2.05551 0.430894 1.76318 0.701563 1.55946 1.03531C1.35574 1.36905 1.24862 1.75277 1.25001 2.14378V4.89047L2.40392 0.253418Z" fill="#499ED7"/>
<path d="M17.4883 8.16817L4.49876 0.312375C4.22851 0.153194 3.92602 0.0566287 3.61353 0.0297852L14.7287 13.501L17.4893 11.8322C18.8659 10.9984 18.8659 9.00095 17.4883 8.16817Z" fill="#92CA62"/>
<path d="M10.0543 12.2089L3.61572 19.9694C3.91437 19.9384 4.21409 19.8592 4.49882 19.6879L17.4883 11.8321C18.3072 11.3376 18.6273 10.432 18.472 9.60352L10.0543 12.2089V12.2089Z" fill="#E13340"/>
<path d="M17.4883 8.16816L14.8583 6.57752L14.7299 6.57324L11.8633 10.0285L14.7288 13.501L17.4894 11.8322C18.866 10.9983 18.866 9.00095 17.4883 8.16816V8.16816Z" fill="#FCD770"/>
<path d="M12.9282 11.3184L14.7287 13.4999L17.4893 11.8311C18.3081 11.3366 18.6282 10.431 18.473 9.60254L12.9282 11.3184Z" fill="#FFCC5C"/>
</svg>
