<svg width="32" height="32" viewBox="0 0 32 32" fill="none" xmlns="http://www.w3.org/2000/svg">
<g clip-path="url(#clip0_6635_36269)">
<path d="M32.0005 16C32.0005 24.8366 24.8371 32 16.0005 32C7.16383 32 0 24.8366 0 16C0 7.16335 7.16383 0 16.0005 0C24.8371 0 32.0005 7.16335 32.0005 16Z" fill="#29296E"/>
<path d="M23.4456 11.7219L23.0387 10.4649C22.9561 10.2093 22.7543 10.0103 22.4977 9.9319L21.2346 9.54347C21.0597 9.49007 21.0583 9.2434 21.2317 9.18717L22.4892 8.7803C22.7444 8.69761 22.9433 8.49583 23.0222 8.23924L23.4102 6.97612C23.4636 6.80175 23.7102 6.79986 23.7665 6.97375L24.1733 8.23073C24.256 8.48591 24.4578 8.68485 24.7144 8.76377L25.9775 9.15173C26.1524 9.2056 26.1543 9.4518 25.9804 9.50803L24.7229 9.91489C24.4677 9.99759 24.2688 10.1998 24.1899 10.4564L23.8019 11.7191C23.7485 11.8939 23.5018 11.8958 23.4456 11.7219Z" fill="#FAFAFA"/>
<path d="M1.45508 15.7465C1.83548 15.0013 2.58778 14.4399 3.36937 14.085C4.159 13.7339 5.02707 13.5184 5.87954 13.4485C7.60056 13.293 9.27716 13.5808 10.8044 14.0784C11.5912 14.3128 12.2953 14.6383 13.0226 14.9672C13.376 15.1374 13.7082 15.3302 14.0504 15.5163L14.9955 16.064C16.0332 16.7001 17.0392 17.2634 17.9843 17.7009C18.9318 18.1347 19.788 18.4282 20.5952 18.578C21.4023 18.7297 22.2226 18.7278 23.2315 18.4962C24.2324 18.2699 25.3584 17.7817 26.5356 17.1556C27.7198 16.529 28.9342 15.7606 30.3197 15.0098C30.1808 16.5791 29.7366 18.0506 29.0429 19.4716C28.3322 20.8755 27.3436 22.245 25.9023 23.354C24.4885 24.4721 22.5468 25.2513 20.5701 25.3685C18.5925 25.5022 16.7113 25.0665 15.1108 24.4111C13.5041 23.7462 12.1158 22.8725 10.8852 21.908C10.5455 21.6415 10.3631 21.4903 10.1122 21.2781L9.41137 20.6643C8.93929 20.2947 8.48187 19.8529 8.01452 19.4867C7.08218 18.7075 6.15977 17.9268 5.14851 17.2501C4.63863 16.9061 4.11269 16.5871 3.51633 16.3046C3.22004 16.168 2.90533 16.0409 2.56746 15.9407C2.22155 15.8278 1.86998 15.7606 1.45508 15.7465Z" fill="#FF4F0A"/>
<path d="M1.45508 15.7465C1.6493 14.1318 2.40206 12.6173 3.60848 11.3282C4.80875 10.0514 6.68382 9.06704 8.76445 8.93661C9.7913 8.86809 10.8337 8.98245 11.7921 9.24802C12.7461 9.51265 13.6402 9.89825 14.4459 10.3524C14.8485 10.5806 15.2251 10.8301 15.6003 11.082L16.6002 11.839L18.1611 13.0705C19.1742 13.8771 20.141 14.6233 21.0346 15.2395C21.9367 15.8566 22.7051 16.3074 23.439 16.5716C24.1662 16.8598 25.0848 16.9335 26.2993 16.6283C26.9023 16.4893 27.5312 16.2356 28.2022 15.9606C28.8695 15.6789 29.5622 15.3429 30.3197 15.0098C30.2285 15.8216 30.0636 16.6302 29.7503 17.3858C29.4493 18.1518 29.0528 18.9012 28.4985 19.6001C28.215 19.9404 27.9111 20.2825 27.5567 20.5981C27.2023 20.9063 26.8096 21.1988 26.3758 21.4554C25.5106 21.9567 24.4842 22.323 23.4314 22.4534C22.3786 22.5857 21.3215 22.5195 20.3589 22.3154C19.3911 22.1169 18.5093 21.797 17.6999 21.4275C16.0866 20.6771 14.737 19.7339 13.5438 18.7354C12.9446 18.2368 12.3827 17.7161 11.8507 17.1873L11.2222 16.5564C11.0327 16.3736 10.8413 16.1898 10.6518 16.0215C9.88817 15.3463 9.17935 14.8302 8.3987 14.5084C7.62372 14.1715 6.63184 14.033 5.41503 14.2608C4.20294 14.4862 2.87319 15.0103 1.45508 15.7465Z" fill="#FAFAFA"/>
<path d="M7.85011 24.0731C7.85011 24.5508 7.46263 24.9383 6.98488 24.9383C6.50713 24.9383 6.12012 24.5508 6.12012 24.0731C6.12012 23.5953 6.50713 23.2079 6.98488 23.2079C7.46263 23.2079 7.85011 23.5953 7.85011 24.0731Z" fill="#FAFAFA"/>
<path d="M7.85011 24.0731C7.85011 24.5508 7.46263 24.9383 6.98488 24.9383C6.50713 24.9383 6.12012 24.5508 6.12012 24.0731C6.12012 23.5953 6.50713 23.2079 6.98488 23.2079C7.46263 23.2079 7.85011 23.5953 7.85011 24.0731Z" fill="#FAFAFA"/>
</g>
<defs>
<clipPath id="clip0_6635_36269">
<rect width="32" height="32" fill="white"/>
</clipPath>
</defs>
</svg>
