<svg width="136" height="33" viewBox="0 0 136 33" fill="none" xmlns="http://www.w3.org/2000/svg">
<g clip-path="url(#clip0_4861_12475)">
<path d="M135.024 3.04679C135.024 4.65343 133.731 5.95588 132.136 5.95588C130.541 5.95588 129.248 4.65343 129.248 3.04679C129.248 1.44014 130.541 0.137695 132.136 0.137695C133.731 0.137695 135.024 1.44014 135.024 3.04679Z" fill="white"/>
<path d="M99.6435 25.5922C100.84 25.5922 101.81 24.6155 101.81 23.4104V14.6832C101.81 13.4782 102.779 12.5013 103.976 12.5013H108.308C109.505 12.5013 110.474 13.4782 110.474 14.6832V23.4104C110.474 24.6155 111.444 25.5922 112.64 25.5922C113.837 25.5922 114.807 24.6155 114.807 23.4104V14.6832C114.807 13.4782 115.776 12.5013 116.973 12.5013H121.305C122.502 12.5013 123.471 13.4782 123.471 14.6832V23.4104C123.471 24.6155 124.441 25.5922 125.637 25.5922H132.136C133.332 25.5922 134.302 24.6155 134.302 23.4104V10.3195C134.302 9.11452 133.332 8.1377 132.136 8.1377C130.94 8.1377 129.97 9.11452 129.97 10.3195V20.1377C129.97 20.7402 129.485 21.2286 128.887 21.2286C128.289 21.2286 127.804 20.7402 127.804 20.1377V10.3195C127.804 9.11452 126.834 8.1377 125.637 8.1377H99.6435C98.447 8.1377 97.4773 9.11452 97.4773 10.3195V23.4104C97.4773 24.6155 98.447 25.5922 99.6435 25.5922Z" fill="white"/>
<path fill-rule="evenodd" clip-rule="evenodd" d="M6.49874 21.2286C5.30239 21.2286 4.33258 20.2518 4.33258 19.0468V10.3195C4.33258 9.11452 3.36276 8.1377 2.16641 8.1377C0.970068 8.1377 0.000244141 9.11452 0.000244141 10.3195V23.4104C0.000244141 24.6155 0.970068 25.5922 2.16641 25.5922H28.1604C29.3569 25.5922 30.3266 24.6155 30.3266 23.4104V14.6832C30.3266 13.4782 31.2963 12.5013 32.4927 12.5013H57.4037C58.0018 12.5013 58.4867 12.9897 58.4867 13.5922C58.4867 14.1947 58.0018 14.6832 57.4037 14.6832H34.6589C33.4625 14.6832 32.4927 15.66 32.4927 16.865V23.4104C32.4927 24.6155 33.4625 25.5922 34.6589 25.5922H60.6529C61.8494 25.5922 62.8191 24.6155 62.8191 23.4104V10.3195C62.8191 9.11452 61.8494 8.1377 60.6529 8.1377H28.1604C26.964 8.1377 25.9942 9.11452 25.9942 10.3195V19.0468C25.9942 20.2518 25.0245 21.2286 23.8281 21.2286H19.4957C18.2994 21.2286 17.3296 20.2518 17.3296 19.0468V10.3195C17.3296 9.11452 16.3598 8.1377 15.1634 8.1377C13.9671 8.1377 12.9972 9.11452 12.9972 10.3195V19.0468C12.9972 20.2518 12.0274 21.2286 10.8311 21.2286H6.49874ZM58.4867 20.1377C58.4867 20.7402 58.0018 21.2286 57.4037 21.2286H37.9082C37.3101 21.2286 36.8251 20.7402 36.8251 20.1377C36.8251 19.5352 37.3101 19.0468 37.9082 19.0468H57.4037C58.0018 19.0468 58.4867 19.5352 58.4867 20.1377Z" fill="white"/>
<path fill-rule="evenodd" clip-rule="evenodd" d="M64.9858 23.4104C64.9858 24.6155 65.9556 25.5922 67.152 25.5922H89.8968C90.4949 25.5922 90.9798 26.0807 90.9798 26.6832C90.9798 27.2856 90.4949 27.7741 89.8968 27.7741H67.152C65.9556 27.7741 64.9858 28.7508 64.9858 29.9559C64.9858 31.161 65.9556 32.1377 67.152 32.1377H93.146C94.3425 32.1377 95.3122 31.161 95.3122 29.9559V10.3195C95.3122 9.11452 94.3425 8.1377 93.146 8.1377H67.152C65.9556 8.1377 64.9858 9.11452 64.9858 10.3195V23.4104ZM71.4843 12.5013C70.2879 12.5013 69.3182 13.4782 69.3182 14.6832V19.0468C69.3182 20.2518 70.2879 21.2286 71.4843 21.2286H88.8137C90.0101 21.2286 90.9798 20.2518 90.9798 19.0468V14.6832C90.9798 13.4782 90.0101 12.5013 88.8137 12.5013H71.4843Z" fill="white"/>
</g>
<defs>
<clipPath id="clip0_4861_12475">
<rect width="135.024" height="32" fill="white" transform="translate(0 0.137695)"/>
</clipPath>
</defs>
</svg>
