<svg width="170" height="45" viewBox="0 0 170 45" fill="none" xmlns="http://www.w3.org/2000/svg">
<path d="M92.9407 26.6384C92.0987 25.7602 90.7717 25.1822 89.5698 24.8948C87.6355 24.4317 85.9328 25.2109 84.5745 26.913C84.4712 26.1913 84.3992 25.6931 84.3272 25.2045H82.5494V43.0746H84.4086V36.0428C87.5228 38.6262 90.7466 38.6997 92.853 36.4292C95.1785 33.9256 95.3319 29.1324 92.9407 26.6384ZM88.5776 36.3749H88.5244C87.4195 36.3877 86.3116 35.9023 85.6418 34.9539C84.8624 34.0501 84.3773 32.7856 84.3773 31.3869C84.3773 28.6342 86.2584 26.3989 88.5776 26.3989C90.8968 26.3989 92.781 28.6342 92.781 31.3869C92.781 34.1396 90.9 36.3749 88.5776 36.3749Z" fill="black"/>
<path d="M122.969 13.3318C121.398 13.3318 119.795 13.3318 118.193 13.3318C116.59 13.3318 115.094 13.3318 113.545 13.3318C113.582 15.6183 114.512 17.0297 116.186 17.5087C118.321 18.1187 119.635 17.4512 121.144 14.9157C121.695 15.053 122.28 15.1967 122.862 15.3436C122.133 18.62 119.319 20.1656 115.767 19.3449C112.493 18.5881 110.578 15.0403 111.36 11.1699C112.08 7.60611 115.056 5.66774 118.775 6.34154C121.811 6.89079 123.567 9.73289 122.963 13.3318H122.969ZM120.869 11.5244C120.44 8.92497 119.229 7.82006 117.128 7.92544C115.179 8.02444 113.889 9.39439 113.789 11.5244H120.869Z" fill="black"/>
<path d="M108.437 37.9365C104.778 37.9429 102.221 35.171 102.243 31.2272C102.264 27.3601 104.79 24.6553 108.396 24.6329C112.02 24.6106 114.656 27.4559 114.615 31.3454C114.574 35.187 112.002 37.9301 108.437 37.9365ZM104.424 31.339C104.443 34.1396 106.064 36.0748 108.399 36.0811C110.806 36.0875 112.421 34.1172 112.393 31.2081C112.365 28.3692 110.772 26.4627 108.427 26.4564C106.036 26.45 104.405 28.4394 104.424 31.339Z" fill="black"/>
<path d="M88.9688 13.0604C88.9438 9.06867 91.4508 6.33835 95.1316 6.34793C98.7247 6.3607 101.257 9.07506 101.282 12.9422C101.304 16.8669 98.7153 19.6834 95.0909 19.6706C91.5009 19.6579 88.9939 16.9499 88.9688 13.0604ZM91.1316 13.0923C91.1723 13.4532 91.1848 13.9896 91.2975 14.5038C91.7294 16.4773 93.1691 17.761 94.9657 17.8153C96.8593 17.8728 98.4054 16.8381 98.7497 14.7624C98.9876 13.3286 98.8874 11.684 98.4179 10.3173C97.7137 8.26394 95.1754 7.54863 93.3006 8.61521C91.6636 9.54767 91.2036 11.1444 91.1316 13.0923Z" fill="black"/>
<path d="M54.9376 3.21216H57.5103C57.6731 4.4895 57.742 5.85626 58.0424 7.16873C58.4556 8.9666 58.8687 10.8028 59.5917 12.4825C61.3476 16.5444 64.6246 18.4605 68.9595 18.2018C69.5761 18.1667 70.1895 18.0996 70.8875 18.0389C71.1316 18.8181 71.3601 19.5558 71.5855 20.2775C67.3664 22.0211 61.8891 20.3765 58.8906 16.4806C55.9235 12.6262 55.2506 8.04691 54.9344 3.21216H54.9376Z" fill="black"/>
<path d="M121.426 24.8053C125.016 24.8405 127.539 27.5899 127.523 31.4539C127.51 35.353 124.872 38.1089 121.21 38.0546C117.626 38.0003 115.104 35.2412 115.122 31.3932C115.141 27.4462 117.704 24.767 121.423 24.8053H121.426ZM121.357 26.5968C119.016 26.5713 117.376 28.4713 117.31 31.2879C117.244 34.1012 118.941 36.2312 121.269 36.2631C123.601 36.2951 125.335 34.2066 125.326 31.3773C125.316 28.5735 123.695 26.6224 121.357 26.5968Z" fill="black"/>
<path d="M57.5385 43.0107C56.6527 42.9533 55.8953 42.9022 55.1566 42.8511C53.9078 35.0816 59.0659 26.6575 65.9422 25.3738C67.7263 25.0417 69.623 25.3227 71.7263 25.3227C71.382 26.4276 71.1504 27.1717 70.8875 28.0179C70.033 27.9349 69.2224 27.7784 68.4086 27.7848C64.4649 27.8103 61.3319 29.4741 59.7764 33.2071C58.756 35.6564 58.3648 38.3835 57.7325 40.9957C57.5854 41.5993 57.6042 42.2443 57.5354 43.0107H57.5385Z" fill="black"/>
<path d="M103.695 19.0542H101.977V1.92505H103.845V11.9458C105.432 10.4258 106.969 9.11969 108.296 7.6252C109.31 6.48836 110.387 6.22651 112.18 6.68955C110.099 8.5417 108.202 10.2278 106.271 11.9426C108.462 14.4973 110.305 16.6464 112.261 18.9265C110.772 19.2714 109.682 19.2107 108.756 17.9174C107.714 16.4644 106.462 15.1711 105.285 13.7884C102.934 14.9795 104.34 17.2468 103.695 19.0511V19.0542Z" fill="black"/>
<path d="M49.2318 3.20874H51.2318C50.9626 8.34047 50.2615 13.2104 46.8593 17.135C43.72 20.7595 39.6981 21.5738 34.9939 20.4784C35.2224 19.6418 35.4258 18.9073 35.6606 18.0515C36.321 18.109 36.9313 18.1824 37.5416 18.2175C41.526 18.4475 44.7654 16.9466 46.3429 13.1816C47.6324 10.1 48.2458 6.72463 49.2318 3.21193V3.20874Z" fill="black"/>
<path d="M35.6262 27.82C35.4478 27.2005 35.2318 26.4501 35.0159 25.706C39.4634 24.0614 44.875 25.8689 47.695 29.9596C50.3179 33.7629 51.0127 38.1378 51.2318 42.8384C50.3742 42.8991 49.6262 42.9502 48.9001 43.0013C48.4744 40.5903 48.224 38.2623 47.6324 36.027C46.4587 31.5946 44.0206 28.3533 39.163 27.8392C38.0425 27.721 36.9001 27.8232 35.6231 27.8232L35.6262 27.82Z" fill="black"/>
<path d="M126.299 19.0286H124.333V6.51381H126.196C126.252 6.95769 126.311 7.41434 126.377 7.93805C126.521 7.86779 126.675 7.84225 126.747 7.74964C128.111 6.02522 129.873 5.75379 131.826 6.35414C133.714 6.93533 134.646 8.46815 134.759 10.2979C134.934 13.1464 134.806 16.0173 134.806 18.9871H132.944C132.944 16.921 132.975 14.9124 132.931 12.9037C132.912 12.0096 132.819 11.0995 132.628 10.2277C132.318 8.80984 131.366 8.05301 129.958 7.97318C128.484 7.88696 127.36 8.56395 126.959 10.0042C126.596 11.3134 126.412 12.6994 126.324 14.0629C126.218 15.6915 126.299 17.3297 126.299 19.0286Z" fill="black"/>
<path d="M127.592 27.1493V25.5494C128.208 25.4791 128.812 25.4089 129.401 25.3418C130.189 20.9254 130.962 20.1941 134.646 20.44C134.69 20.6572 134.765 20.8967 134.781 21.1394C134.8 21.4012 134.762 21.6631 134.75 21.9122C132.634 22.553 131.642 23.7004 131.773 25.3546C132.775 25.4025 133.792 25.4504 134.903 25.5047C134.934 26.0316 134.962 26.4882 135 27.1365C133.873 27.1972 132.818 27.2547 131.642 27.3153V37.962H129.57V27.3345C128.859 27.2674 128.302 27.2131 127.592 27.1461V27.1493Z" fill="black"/>
<path d="M88.6213 17.7064V19.1593C85.5165 19.8715 83.7919 18.6548 83.6448 15.5157C83.5384 13.242 83.6229 10.962 83.6229 8.62444C82.8561 8.53822 82.2552 8.47116 81.5791 8.39452V6.66052C84.2207 6.87128 83.698 4.83072 83.8326 3.16379C84.3897 3.12547 84.8874 3.09354 85.5478 3.04883V6.55833H88.5525V8.42006C87.6104 8.47116 86.6933 8.52225 85.6699 8.57654C85.6699 11.029 85.5916 13.4081 85.7012 15.7808C85.7638 17.1507 86.2865 17.4126 88.6213 17.7064Z" fill="black"/>
<path d="M95.335 25.1984H97.1128C97.1817 25.639 97.2505 26.0701 97.2693 26.1883C98.7497 25.6614 100.236 25.1345 102.014 24.5022C102.08 25.5847 102.114 26.134 102.155 26.8078C101.701 26.8078 101.357 26.8142 101.013 26.8078C99.0127 26.7663 97.8076 27.603 97.5166 29.6659C97.2443 31.601 97.3069 33.5841 97.2349 35.5448C97.2098 36.2282 97.2318 36.9116 97.2318 37.7004H95.3319V25.1984H95.335Z" fill="black"/>
</svg>
