<svg width="20" height="20" viewBox="0 0 20 20" fill="none" xmlns="http://www.w3.org/2000/svg">
<g clip-path="url(#clip0_6799_48616)">
<g clip-path="url(#clip1_6799_48616)">
<path d="M19.8463 10.1871C19.8463 9.36767 19.7798 8.76973 19.6359 8.14966H10.2793V11.848H15.7714C15.6607 12.767 15.0628 14.1512 13.734 15.0812L13.7154 15.205L16.6738 17.4969L16.8788 17.5173C18.7611 15.7789 19.8463 13.221 19.8463 10.1871" fill="white"/>
<path d="M10.2797 19.9314C12.9704 19.9314 15.2293 19.0455 16.8792 17.5175L13.7344 15.0813C12.8929 15.6682 11.7634 16.0779 10.2797 16.0779C7.64432 16.0779 5.40759 14.3395 4.61026 11.9366L4.49339 11.9466L1.41718 14.3273L1.37695 14.4391C3.01574 17.6946 6.38195 19.9314 10.2797 19.9314Z" fill="white"/>
<path d="M4.60974 11.9367C4.39935 11.3166 4.2776 10.6522 4.2776 9.96571C4.2776 9.27915 4.39935 8.6148 4.59867 7.99472L4.59309 7.86266L1.47836 5.44373L1.37645 5.4922C0.701034 6.84312 0.313477 8.36014 0.313477 9.96571C0.313477 11.5713 0.701034 13.0882 1.37645 14.4391L4.60974 11.9367" fill="white"/>
<path d="M10.2796 3.85336C12.1509 3.85336 13.4132 4.66168 14.133 5.33718L16.9455 2.59107C15.2182 0.985496 12.9703 0 10.2796 0C6.38191 0 3.01573 2.23672 1.37695 5.49214L4.59917 7.99466C5.40756 5.59183 7.64428 3.85336 10.2796 3.85336" fill="white"/>
</g>
</g>
<defs>
<clipPath id="clip0_6799_48616">
<rect width="20" height="20" fill="white"/>
</clipPath>
<clipPath id="clip1_6799_48616">
<rect width="19.544" height="20" fill="white" transform="translate(0.3125)"/>
</clipPath>
</defs>
</svg>
