<svg width="20" height="20" viewBox="0 0 20 20" fill="none" xmlns="http://www.w3.org/2000/svg">
<g clip-path="url(#clip0_6887_48634)">
<path d="M15.96 0H4.04C1.8075 0 0 1.8075 0 4.04V15.9625C0 18.1925 1.8075 20 4.04 20H15.9625C18.1925 20 20.0025 18.1925 20.0025 15.96V4.04C20 1.8075 18.1925 0 15.96 0Z" fill="url(#paint0_linear_6887_48634)"/>
<path d="M9.91504 4.59504L10.32 3.89504C10.57 3.45754 11.1275 3.31004 11.565 3.56004C12.0025 3.81004 12.15 4.36754 11.9 4.80504L7.99754 11.56H10.82C11.735 11.56 12.2475 12.635 11.85 13.38H3.57504C3.07004 13.38 2.66504 12.975 2.66504 12.47C2.66504 11.965 3.07004 11.56 3.57504 11.56H5.89504L8.86504 6.41254L7.93754 4.80254C7.68754 4.36504 7.83504 3.81254 8.27254 3.55754C8.71004 3.30754 9.26254 3.45504 9.51754 3.89254L9.91504 4.59504ZM6.40504 14.3175L5.53004 15.835C5.28004 16.2725 4.72254 16.42 4.28504 16.17C3.84754 15.92 3.70004 15.3625 3.95004 14.925L4.60004 13.8C5.33504 13.5725 5.93254 13.7475 6.40504 14.3175ZM13.94 11.565H16.3075C16.8125 11.565 17.2175 11.97 17.2175 12.475C17.2175 12.98 16.8125 13.385 16.3075 13.385H14.9925L15.88 14.925C16.13 15.3625 15.9825 15.915 15.545 16.17C15.1075 16.42 14.555 16.2725 14.3 15.835C12.805 13.2425 11.6825 11.3025 10.9375 10.01C10.175 8.69504 10.72 7.37504 11.2575 6.92754C11.855 7.95254 12.7475 9.50004 13.94 11.565Z" fill="white"/>
</g>
<defs>
<linearGradient id="paint0_linear_6887_48634" x1="10.0012" y1="0" x2="10.0012" y2="20" gradientUnits="userSpaceOnUse">
<stop stop-color="#18BFFB"/>
<stop offset="1" stop-color="#2072F3"/>
</linearGradient>
<clipPath id="clip0_6887_48634">
<rect width="20" height="20" fill="white"/>
</clipPath>
</defs>
</svg>
