<svg width="170" height="45" viewBox="0 0 170 45" fill="none" xmlns="http://www.w3.org/2000/svg">
<mask id="mask0_6261_16330" style="mask-type:luminance" maskUnits="userSpaceOnUse" x="7" y="9" width="156" height="28">
<path d="M163 9H7V36.7282H163V9Z" fill="white"/>
</mask>
<g mask="url(#mask0_6261_16330)">
<path d="M62.8912 13.4812H65.5152L72.2917 31.3129H69.9224L68.0378 26.4977H60.2671L58.3825 31.3129H56.0898L62.8912 13.4812ZM67.375 24.4869L64.14 15.9023L60.9299 24.4869H67.375Z" fill="#0A0A0B"/>
<path d="M75.4501 13.4812V31.3129H73.3604V13.4812H75.4501Z" fill="#0A0A0B"/>
<path d="M78.0226 28.2807C77.4793 27.2798 77.2065 26.1234 77.2065 24.8158C77.2065 23.5083 77.4793 22.3541 78.0226 21.3509C78.5659 20.3477 79.3256 19.5677 80.3017 19.0064C81.2778 18.4451 82.396 18.1655 83.6517 18.1655C84.9074 18.1655 86.0255 18.4451 87.0016 19.0064C87.9778 19.5677 88.7374 20.3477 89.2807 21.3509C89.824 22.3541 90.0968 23.5083 90.0968 24.8158C90.0968 26.1234 89.824 27.2775 89.2807 28.2807C88.7374 29.2839 87.9778 30.0639 87.0016 30.6252C86.0255 31.1865 84.9074 31.4661 83.6517 31.4661C82.396 31.4661 81.2778 31.1865 80.3017 30.6252C79.3256 30.0639 78.5659 29.2839 78.0226 28.2807ZM87.4232 27.2866C87.7793 26.5562 87.9575 25.7333 87.9575 24.8158C87.9575 23.8983 87.7793 23.0755 87.4232 22.345C87.067 21.6147 86.5621 21.0466 85.9083 20.6385C85.2545 20.2305 84.5038 20.0277 83.654 20.0277C82.804 20.0277 82.0534 20.2305 81.3996 20.6385C80.7459 21.0466 80.2409 21.6147 79.8847 22.345C79.5285 23.0755 79.3505 23.8983 79.3505 24.8158C79.3505 25.7333 79.5285 26.5562 79.8847 27.2866C80.2409 28.0169 80.7459 28.585 81.3996 28.9931C82.0534 29.4011 82.804 29.604 83.654 29.604C84.5038 29.604 85.2545 29.4011 85.9083 28.9931C86.5621 28.585 87.067 28.0169 87.4232 27.2866Z" fill="#0A0A0B"/>
<path d="M103.469 24.0791V31.3132H101.379V24.2053C101.379 22.864 101.078 21.8406 100.476 21.135C99.8743 20.4293 99.0017 20.0776 97.8657 20.0776C96.6431 20.0776 95.683 20.5015 94.9863 21.3513C94.2897 22.2012 93.943 23.3555 93.943 24.8162V31.3132H91.853V18.3215H93.6606L93.9404 20.0799C94.9257 18.8062 96.3528 18.1682 98.2219 18.1682C99.8015 18.1682 101.071 18.6439 102.029 19.5952C102.989 20.5465 103.468 22.0412 103.468 24.0791H103.469Z" fill="#0A0A0B"/>
<path d="M117.836 30.6774C117.836 34.6 115.688 36.5613 111.391 36.5613C109.709 36.5613 108.339 36.178 107.277 35.4161C106.215 34.6518 105.6 33.5652 105.431 32.1563H107.57C107.739 32.9724 108.172 33.599 108.869 34.0409C109.565 34.4828 110.456 34.7036 111.544 34.7036C114.347 34.7036 115.749 33.3353 115.749 30.6031V29.0746C114.815 30.6707 113.328 31.4687 111.29 31.4687C110.083 31.4687 109.011 31.2049 108.068 30.6797C107.126 30.1545 106.387 29.388 105.852 28.3871C105.318 27.3862 105.05 26.1958 105.05 24.8207C105.05 23.4455 105.318 22.3589 105.852 21.3558C106.387 20.3526 107.13 19.5726 108.082 19.0113C109.033 18.4499 110.102 18.1704 111.292 18.1704C112.345 18.1704 113.244 18.3779 113.993 18.7949C114.739 19.212 115.325 19.8003 115.751 20.5645L116.03 18.3214H117.839V30.6774H117.836ZM115.237 27.3275C115.593 26.6061 115.771 25.7855 115.771 24.868C115.771 23.9505 115.593 23.0984 115.237 22.3589C114.881 21.6195 114.376 21.047 113.722 20.6389C113.068 20.2309 112.324 20.028 111.492 20.028C110.201 20.028 109.161 20.4744 108.373 21.3648C107.583 22.2576 107.189 23.4072 107.189 24.8162C107.189 26.2251 107.583 27.3771 108.373 28.2676C109.161 29.1602 110.203 29.6044 111.492 29.6044C112.324 29.6044 113.068 29.4037 113.722 29.0047C114.376 28.6057 114.881 28.0444 115.237 27.323V27.3275Z" fill="#0A0A0B"/>
<path d="M122.714 28.9441C123.369 29.4355 124.214 29.6834 125.248 29.6834C126.166 29.6834 126.907 29.5009 127.478 29.1356C128.046 28.7705 128.332 28.2903 128.332 27.6974C128.332 27.1879 128.197 26.7979 127.925 26.5251C127.652 26.2523 127.3 26.0675 126.867 25.9638C126.434 25.8602 125.819 25.7609 125.021 25.6572C123.901 25.522 122.983 25.3439 122.271 25.1229C121.559 24.9021 120.979 24.5503 120.54 24.0657C120.099 23.581 119.877 22.9159 119.877 22.0661C119.877 21.3019 120.093 20.6233 120.526 20.0282C120.959 19.433 121.549 18.9709 122.295 18.6395C123.044 18.3081 123.883 18.1436 124.818 18.1436C126.346 18.1436 127.591 18.4998 128.549 19.2144C129.51 19.9267 130.039 20.9457 130.14 22.2713H128.05C127.965 21.5927 127.634 21.0314 127.057 20.5895C126.479 20.1476 125.758 19.9267 124.89 19.9267C124.022 19.9267 123.294 20.1093 122.751 20.4745C122.208 20.8397 121.935 21.3199 121.935 21.9128C121.935 22.3546 122.063 22.6928 122.318 22.9318C122.572 23.1684 122.9 23.3307 123.298 23.4164C123.698 23.5021 124.304 23.5945 125.12 23.696C126.258 23.8312 127.196 24.0183 127.936 24.2573C128.675 24.4963 129.268 24.8773 129.718 25.4025C130.17 25.93 130.393 26.6423 130.393 27.5419C130.393 28.3218 130.163 29.0116 129.705 29.6046C129.248 30.1975 128.628 30.6573 127.846 30.9797C127.063 31.3021 126.198 31.4644 125.246 31.4644C123.549 31.4644 122.185 31.0744 121.157 30.2922C120.129 29.5121 119.606 28.4233 119.59 27.0324H121.68C121.714 27.8146 122.059 28.4503 122.713 28.9441H122.714Z" fill="#0A0A0B"/>
<path d="M134.523 14.6536C134.523 15.0436 134.394 15.3659 134.14 15.6207C133.885 15.8754 133.562 16.0039 133.173 16.0039C132.783 16.0039 132.46 15.8754 132.205 15.6207C131.951 15.3659 131.824 15.0436 131.824 14.6536C131.824 14.2636 131.951 13.9412 132.205 13.6865C132.46 13.4317 132.783 13.3032 133.173 13.3032C133.562 13.3032 133.885 13.4295 134.14 13.6865C134.394 13.9412 134.523 14.2636 134.523 14.6536ZM134.217 18.3213V31.3131H132.127V18.3213H134.217Z" fill="#0A0A0B"/>
<path d="M146.953 31.3129L146.673 29.2232C145.587 30.7178 144.102 31.464 142.214 31.464C141.008 31.464 139.935 31.2002 138.994 30.6749C138.051 30.1497 137.312 29.3832 136.777 28.3823C136.243 27.3814 135.975 26.1911 135.975 24.816C135.975 23.4408 136.243 22.3542 136.777 21.351C137.312 20.3479 138.055 19.5679 139.007 19.0065C139.958 18.4452 141.026 18.1657 142.217 18.1657C143.27 18.1657 144.169 18.3574 144.918 18.7383C145.664 19.1215 146.25 19.6423 146.676 20.3051V13.4812H148.766V31.3129H146.953ZM146.162 27.325C146.518 26.6036 146.696 25.7831 146.696 24.8655C146.696 23.9481 146.518 23.0959 146.162 22.3565C145.806 21.6171 145.301 21.0445 144.647 20.6364C143.993 20.2284 143.249 20.0256 142.417 20.0256C141.126 20.0256 140.086 20.4719 139.298 21.3623C138.508 22.2551 138.114 23.4048 138.114 24.8137C138.114 26.2226 138.508 27.3747 139.298 28.2651C140.086 29.1578 141.128 29.6019 142.417 29.6019C143.249 29.6019 143.993 29.4013 144.647 29.0022C145.301 28.6032 145.806 28.0419 146.162 27.3205V27.325Z" fill="#0A0A0B"/>
<path d="M153.475 18.9956C154.408 18.4432 155.479 18.1682 156.685 18.1682C157.891 18.1682 158.926 18.414 159.843 18.9077C160.761 19.4013 161.482 20.1137 162.01 21.047C162.537 21.9803 162.817 23.0759 162.851 24.3338C162.851 24.5209 162.833 24.8185 162.799 25.2265H152.71V25.4046C152.744 26.6784 153.135 27.6973 153.883 28.4615C154.631 29.2257 155.608 29.6067 156.813 29.6067C157.746 29.6067 158.543 29.3722 159.196 28.9056C159.85 28.4389 160.288 27.7897 160.508 26.9556H162.623C162.368 28.2811 161.731 29.3632 160.712 30.2041C159.693 31.045 158.443 31.4643 156.967 31.4643C155.675 31.4643 154.546 31.1892 153.579 30.6369C152.612 30.0846 151.859 29.3047 151.324 28.2924C150.79 27.2825 150.521 26.1238 150.521 24.8162C150.521 23.5088 150.781 22.3275 151.3 21.3265C151.818 20.3256 152.544 19.5479 153.477 18.9956H153.475ZM159.449 20.9185C158.727 20.3076 157.815 20.001 156.71 20.001C155.725 20.001 154.859 20.3234 154.111 20.9681C153.362 21.6128 152.938 22.4537 152.837 23.4907H160.684C160.583 22.3861 160.17 21.5294 159.449 20.9185Z" fill="#0A0A0B"/>
<path d="M20.072 9.82495C12.8532 9.82495 7 15.6704 7 22.882C7 29.4398 11.8419 34.8683 18.151 35.7948L30.3087 14.7664C27.9138 11.7569 24.2186 9.82495 20.072 9.82495Z" fill="#0A0A0B"/>
<path d="M33.6404 9L30.3086 14.7666L42.4641 35.7949H49.1321L33.6404 9Z" fill="#0A0A0B"/>
</g>
</svg>
