<svg width="32" height="32" viewBox="0 0 32 32" fill="none" xmlns="http://www.w3.org/2000/svg">
<g clip-path="url(#clip0_6635_36271)">
<path d="M16 32C24.8366 32 32 24.8366 32 16C32 7.16344 24.8366 0 16 0C7.16344 0 0 7.16344 0 16C0 24.8366 7.16344 32 16 32Z" fill="#00EF8B"/>
<path d="M23.0081 13.504H18.4961V18.016H23.0081V13.504Z" fill="white"/>
<path d="M13.9841 19.712C13.9841 20.64 13.2161 21.408 12.2881 21.408C11.3601 21.408 10.5921 20.64 10.5921 19.712C10.5921 18.784 11.3601 18.016 12.2881 18.016H13.9841V13.504H12.2881C8.86408 13.504 6.08008 16.288 6.08008 19.712C6.08008 23.136 8.86408 25.92 12.2881 25.92C15.7121 25.92 18.4961 23.136 18.4961 19.712V18.016H13.9841V19.712Z" fill="white"/>
<path d="M20.1924 11.232H25.2804V6.72H20.1924C16.7684 6.72 13.9844 9.504 13.9844 12.928V13.504H18.4964V12.928C18.4964 12 19.2644 11.232 20.1924 11.232Z" fill="white"/>
<path d="M18.4964 13.504H13.9844V18.016H18.4964V13.504Z" fill="#16FF99"/>
</g>
<defs>
<clipPath id="clip0_6635_36271">
<rect width="32" height="32" fill="white"/>
</clipPath>
</defs>
</svg>
