<svg width="170" height="45" viewBox="0 0 170 45" fill="none" xmlns="http://www.w3.org/2000/svg">
<g clip-path="url(#clip0_6304_16330)">
<mask id="mask0_6304_16330" style="mask-type:luminance" maskUnits="userSpaceOnUse" x="33" y="6" width="103" height="32">
<path d="M135.666 6H33.7998V38H135.666V6Z" fill="white"/>
</mask>
<g mask="url(#mask0_6304_16330)">
<path d="M33.7998 37.5372V6H39.61V18.9104C40.7541 17.2295 42.9191 16.0522 45.6767 16.0522C50.8096 16.0522 53.8622 19.7521 53.8622 25.2194V37.5398H48.052V26.1856C48.052 23.157 46.7361 21.3083 44.3197 21.3083C41.6057 21.3083 39.6125 23.2435 39.6125 27.2791V37.5398H33.7998V37.5372Z" fill="#F6D08D"/>
<path d="M56.9873 27.0252C56.9873 20.8867 61.992 16.05 68.1433 16.05C74.2947 16.05 79.2994 20.8867 79.2994 27.0252C79.2994 33.1638 74.2947 38.0004 68.1433 38.0004C61.992 38.0004 56.9873 33.2071 56.9873 27.0252ZM73.402 27.0252C73.402 23.7881 71.1549 21.4334 68.1433 21.4334C65.1318 21.4334 62.8411 23.7881 62.8411 27.0252C62.8411 30.2624 65.0882 32.6171 68.1433 32.6171C71.1985 32.6171 73.402 30.2624 73.402 27.0252Z" fill="#F6D08D"/>
<path d="M81.4092 27.0252C81.4092 20.8867 86.4139 16.05 92.5653 16.05C98.7166 16.05 103.721 20.8867 103.721 27.0252C103.721 33.1638 98.7166 38.0004 92.5653 38.0004C86.4139 38.0004 81.4092 33.2071 81.4092 27.0252ZM97.8239 27.0252C97.8239 23.7881 95.5768 21.4334 92.5653 21.4334C89.5537 21.4334 87.2629 23.7881 87.2629 27.0252C87.2629 30.2624 89.5101 32.6171 92.5653 32.6171C95.6204 32.6171 97.8239 30.2624 97.8239 27.0252Z" fill="#F6D08D"/>
<path d="M112.685 27.8665V37.5372H106.875V6H112.685V24.2505L119.557 16.5124H126.555L118.157 25.9746L128.507 37.5372H121.337L112.685 27.8665Z" fill="#F6D08D"/>
<path d="M130.2 15.6248H129.225V15.0984H131.733V15.6248H130.753V18.4297H130.2V15.6248Z" fill="#F6D08D"/>
<path d="M132.808 15.0984L133.982 16.675L135.16 15.0984H135.665V18.4297H135.106V16.0418L133.985 17.5523L132.854 16.0368V18.4297H132.3V15.0984H132.805H132.808Z" fill="#F6D08D"/>
</g>
</g>
<defs>
<clipPath id="clip0_6304_16330">
<rect width="102.4" height="32" fill="white" transform="translate(34 6)"/>
</clipPath>
</defs>
</svg>
