<svg width="20" height="20" viewBox="0 0 20 20" fill="none" xmlns="http://www.w3.org/2000/svg">
<g clip-path="url(#clip0_6887_47920)">
<path d="M1.58496 4.5975V12.2685H6.06171L9.99396 5.45675H18.899C17.2415 2.21425 13.8775 0 9.99396 0C6.46096 0 3.36346 1.827 1.58496 4.5975Z" fill="#DB4437"/>
<path d="M1.58496 4.5975V12.2685H6.06171L9.99396 5.45675H18.899C17.2415 2.21425 13.8775 0 9.99396 0C6.46096 0 3.36346 1.827 1.58496 4.5975Z" fill="url(#paint0_linear_6887_47920)"/>
<path d="M1.58496 4.59731L6.07371 12.2806L6.17046 12.2201L1.65746 4.47656C1.63346 4.52481 1.60921 4.56131 1.58496 4.59756V4.59731Z" fill="#3E2723" fill-opacity="0.15"/>
<path d="M9.522 19.9757L13.9263 15.5717V12.2684H6.06175L1.585 4.59766C0.58075 6.14641 0 8.00966 0 9.99391C0 15.3539 4.2225 19.7339 9.522 19.9757V19.9757Z" fill="#0F9D58"/>
<path d="M9.522 19.9757L13.9263 15.5717V12.2684H6.06175L1.585 4.59766C0.58075 6.14641 0 8.00966 0 9.99391C0 15.3539 4.2225 19.7339 9.522 19.9757V19.9757Z" fill="url(#paint1_linear_6887_47920)"/>
<path d="M9.40088 19.976C9.43738 19.976 9.48588 19.976 9.52188 19.9882L13.8414 12.4262L13.7446 12.3657L9.40088 19.976Z" fill="#263238" fill-opacity="0.15"/>
<path d="M9.52197 19.9758L13.9262 15.5718V12.2686L9.52197 19.9761V19.9758Z" fill="#FFCD40"/>
<path d="M9.52197 19.9758L13.9262 15.5718V12.2686L9.52197 19.9761V19.9758Z" fill="url(#paint2_linear_6887_47920)"/>
<path d="M9.99397 5.45654L13.9262 12.2683L9.52197 19.9758C9.67947 19.9878 9.83672 19.9878 9.99397 19.9878C15.5112 19.9878 19.988 15.511 19.988 9.99379C19.9878 8.41667 19.6146 6.86194 18.899 5.45654H9.99397V5.45654Z" fill="#FFCD40"/>
<path d="M9.99397 5.45654L13.9262 12.2683L9.52197 19.9758C9.67947 19.9878 9.83672 19.9878 9.99397 19.9878C15.5112 19.9878 19.988 15.511 19.988 9.99379C19.9878 8.41667 19.6146 6.86194 18.899 5.45654H9.99397V5.45654Z" fill="url(#paint3_linear_6887_47920)"/>
<path d="M18.8989 5.45654H9.9939V7.82804L18.8989 5.45654Z" fill="url(#paint4_radial_6887_47920)"/>
<path d="M1.58496 4.59766L6.06171 12.2687L8.09421 11.0952L1.58496 4.59766Z" fill="url(#paint5_radial_6887_47920)"/>
<path d="M13.9262 12.2687L11.9057 11.0952L9.52197 19.976L13.9262 12.2687V12.2687Z" fill="url(#paint6_radial_6887_47920)"/>
<path d="M9.99404 14.531C12.4998 14.531 14.5313 12.4995 14.5313 9.99354C14.5313 7.48779 12.4998 5.45654 9.99379 5.45654C7.48804 5.45654 5.45679 7.48779 5.45679 9.99379C5.45679 12.4995 7.48804 14.531 9.99404 14.531Z" fill="#F1F1F1"/>
<path d="M9.99401 13.6238C11.9988 13.6238 13.6238 11.9988 13.6238 9.99376C13.6238 7.98926 11.9988 6.36426 9.99376 6.36426C7.98926 6.36426 6.36426 7.98926 6.36426 9.99401C6.36426 11.9988 7.98926 13.6238 9.99401 13.6238V13.6238Z" fill="#4285F4"/>
<path d="M18.8385 5.33594H9.99404C7.48954 5.33594 5.45679 7.36844 5.45679 9.87319V9.98194C5.45679 7.47744 7.48929 5.44494 9.99404 5.44494H18.8868C18.8748 5.40844 18.8628 5.37244 18.8385 5.33594V5.33594Z" fill="#3E2723" fill-opacity="0.2"/>
<path d="M10.0666 14.5312H9.99408C8.31233 14.5312 6.84833 13.6117 6.06158 12.2564L1.58508 4.59766C1.57308 4.60966 1.56083 4.63391 1.54883 4.64591L6.06183 12.3774C6.84833 13.7324 8.31233 14.6522 9.99408 14.6522C11.2523 14.6522 12.4016 14.1319 13.2246 13.2972C12.3829 14.0893 11.2709 14.5306 10.1151 14.5312C10.0908 14.5432 10.0788 14.5312 10.0666 14.5312V14.5312Z" fill="white" fill-opacity="0.1"/>
<path d="M11.5791 14.2528C11.6033 14.2408 11.6273 14.2288 11.6516 14.2288C11.6273 14.2288 11.6033 14.2408 11.5791 14.2528ZM11.8088 14.156C11.8813 14.132 11.9421 14.0955 12.0146 14.0593C11.9421 14.0955 11.8816 14.1318 11.8088 14.156ZM11.3613 14.3255C11.3733 14.3255 11.3853 14.3133 11.3976 14.3133C11.3853 14.3133 11.3733 14.3255 11.3613 14.3255ZM12.0993 14.023C12.1598 13.9988 12.2081 13.9625 12.2686 13.9263C12.2081 13.9625 12.1476 13.9868 12.0993 14.023Z" fill="white" fill-opacity="0.1"/>
<path opacity="0.1" d="M14.5191 10.3572V10.2847C14.5314 10.2967 14.5314 10.3209 14.5191 10.3572ZM13.2246 13.2972L13.5149 13.0069L13.5634 12.9219C13.4569 13.0527 13.3438 13.1779 13.2246 13.2972V13.2972Z" fill="#3E2723"/>
<path opacity="0.1" d="M14.4099 8.90479C14.5221 9.31073 14.5791 9.7299 14.5794 10.151C14.5794 10.8408 14.4222 11.482 14.1439 12.0748C14.4584 11.4578 14.6522 10.7438 14.6522 9.99379C14.6522 7.48929 12.6194 5.45654 10.1147 5.45654H10.0544C12.1594 5.48079 13.9262 6.94479 14.4102 8.90479H14.4099Z" fill="#3E2723"/>
<path opacity="0.1" d="M14.4949 10.623C14.4949 10.599 14.4949 10.5868 14.5069 10.5625C14.4949 10.5868 14.4949 10.611 14.4949 10.623ZM11.3974 14.3135C11.4579 14.2893 11.5184 14.277 11.5667 14.253C11.5184 14.277 11.4579 14.2893 11.3974 14.3135ZM11.6514 14.2288C11.6999 14.2045 11.7604 14.1925 11.8089 14.1683C11.7545 14.1831 11.7018 14.2033 11.6514 14.2288V14.2288ZM12.2564 13.9263C12.2807 13.914 12.2927 13.902 12.3169 13.89C12.3049 13.902 12.2807 13.914 12.2564 13.9263ZM12.0144 14.0593C12.0387 14.0473 12.0629 14.035 12.0992 14.0108C12.0629 14.035 12.0387 14.0473 12.0144 14.0593ZM10.0544 14.5313H10.0664C10.5051 14.5189 10.9403 14.4497 11.3612 14.3255C10.9391 14.4623 10.4981 14.5318 10.0544 14.5313V14.5313Z" fill="#3E2723"/>
<path d="M13.9262 12.2686C13.5354 12.9395 12.982 13.5013 12.3169 13.9021C12.2927 13.9141 12.2807 13.9263 12.2564 13.9383C12.1959 13.9746 12.1474 13.9988 12.0869 14.0351C12.0576 14.0492 12.0294 14.0654 12.0024 14.0836C11.9419 14.1198 11.8692 14.1441 11.7967 14.1803C11.7463 14.2057 11.6936 14.226 11.6392 14.2408C11.6152 14.2528 11.5909 14.2651 11.5667 14.2651C11.5062 14.2893 11.4579 14.3013 11.3974 14.3256C11.3852 14.3256 11.3732 14.3376 11.3612 14.3376C10.943 14.4734 10.5061 14.5429 10.0664 14.5433H10.1027C11.3127 14.5433 12.4017 14.0713 13.2122 13.3091C13.3332 13.1883 13.4422 13.0551 13.5512 12.9221L13.9262 12.2686V12.2686Z" fill="white" fill-opacity="0.1"/>
<path opacity="0.1" d="M13.9262 12.2686C13.5354 12.9395 12.982 13.5013 12.3169 13.9021C12.2927 13.9141 12.2807 13.9263 12.2564 13.9383C12.1959 13.9746 12.1474 13.9988 12.0869 14.0351C12.0576 14.0492 12.0294 14.0654 12.0024 14.0836C11.9419 14.1198 11.8692 14.1441 11.7967 14.1803C11.7463 14.2057 11.6936 14.226 11.6392 14.2408C11.6152 14.2528 11.5909 14.2651 11.5667 14.2651C11.5062 14.2893 11.4579 14.3013 11.3974 14.3256C11.3852 14.3256 11.3732 14.3376 11.3612 14.3376C10.943 14.4734 10.5061 14.5429 10.0664 14.5433H10.1027C11.3127 14.5433 12.4017 14.0713 13.2122 13.3091C13.3332 13.1883 13.4422 13.0551 13.5512 12.9221L13.9262 12.2686V12.2686Z" fill="#3E2723"/>
<path d="M14.41 8.90497C14.398 8.85647 14.386 8.82022 14.3737 8.77197C14.4587 9.06222 14.507 9.35272 14.5312 9.66722V9.69147C14.5432 9.78822 14.5432 9.89722 14.5432 9.99397C14.5432 10.0907 14.5432 10.1755 14.5312 10.2722V10.3447C14.5312 10.4172 14.519 10.49 14.507 10.5627C14.507 10.5867 14.507 10.599 14.495 10.6232C14.414 11.1996 14.2207 11.7545 13.9262 12.2565L13.5512 12.9097L13.5027 12.9947L9.52197 19.9637H9.65522L13.9745 12.4017C14.035 12.2927 14.0955 12.1717 14.156 12.0507C14.4435 11.4502 14.5924 10.7928 14.5917 10.127C14.5797 9.7139 14.5187 9.30371 14.4102 8.90497H14.41Z" fill="white" fill-opacity="0.2"/>
<path d="M9.994 0.109C15.499 0.109 19.9515 4.54925 19.988 10.0422V9.98175C19.988 4.47675 15.5113 0 9.994 0C4.4765 0 0 4.47675 0 9.994V10.0545C0.03625 4.5615 4.48875 0.109 9.994 0.109Z" fill="white" fill-opacity="0.2"/>
<path d="M9.994 19.8791C15.499 19.8791 19.9515 15.4386 19.988 9.94559V10.0061C19.988 15.5236 15.5113 20.0001 9.994 20.0001C4.4765 20.0001 0 15.5113 0 9.99409V9.93359C0.03625 15.4266 4.48875 19.8791 9.994 19.8791V19.8791Z" fill="#3E2723" fill-opacity="0.15"/>
<path d="M9.994 19.988C15.5135 19.988 19.988 15.5135 19.988 9.994C19.988 4.4745 15.5135 0 9.994 0C4.4745 0 0 4.4745 0 9.994C0 15.5135 4.4745 19.988 9.994 19.988Z" fill="url(#paint7_radial_6887_47920)"/>
</g>
<defs>
<linearGradient id="paint0_linear_6887_47920" x1="3.00974" y1="8.61603" x2="8.97276" y2="5.13285" gradientUnits="userSpaceOnUse">
<stop stop-color="#A52714" stop-opacity="0.6"/>
<stop offset="0.66" stop-color="#A52714" stop-opacity="0"/>
</linearGradient>
<linearGradient id="paint1_linear_6887_47920" x1="12.2234" y1="16.8547" x2="5.59797" y2="12.9737" gradientUnits="userSpaceOnUse">
<stop stop-color="#055524" stop-opacity="0.4"/>
<stop offset="0.33" stop-color="#055524" stop-opacity="0"/>
</linearGradient>
<linearGradient id="paint2_linear_6887_47920" x1="9.31712" y1="5.57381" x2="10.9856" y2="12.88" gradientUnits="userSpaceOnUse">
<stop stop-color="#EA6100" stop-opacity="0.3"/>
<stop offset="0.66" stop-color="#EA6100" stop-opacity="0"/>
</linearGradient>
<linearGradient id="paint3_linear_6887_47920" x1="12.566" y1="4.83162" x2="14.2345" y2="12.1378" gradientUnits="userSpaceOnUse">
<stop stop-color="#EA6100" stop-opacity="0.3"/>
<stop offset="0.66" stop-color="#EA6100" stop-opacity="0"/>
</linearGradient>
<radialGradient id="paint4_radial_6887_47920" cx="0" cy="0" r="1" gradientUnits="userSpaceOnUse" gradientTransform="translate(9.56115 5.44579) scale(9.54967)">
<stop stop-color="#3E2723" stop-opacity="0.2"/>
<stop offset="1" stop-color="#3E2723" stop-opacity="0"/>
</radialGradient>
<radialGradient id="paint5_radial_6887_47920" cx="0" cy="0" r="1" gradientUnits="userSpaceOnUse" gradientTransform="translate(1.57646 4.60266) scale(8.86432)">
<stop stop-color="#3E2723" stop-opacity="0.2"/>
<stop offset="1" stop-color="#3E2723" stop-opacity="0"/>
</radialGradient>
<radialGradient id="paint6_radial_6887_47920" cx="0" cy="0" r="1" gradientUnits="userSpaceOnUse" gradientTransform="translate(9.97697 10.011) scale(9.98038)">
<stop stop-color="#263238" stop-opacity="0.2"/>
<stop offset="1" stop-color="#263238" stop-opacity="0"/>
</radialGradient>
<radialGradient id="paint7_radial_6887_47920" cx="0" cy="0" r="1" gradientUnits="userSpaceOnUse" gradientTransform="translate(2.9855 2.7275) scale(20.0755)">
<stop stop-color="white" stop-opacity="0.1"/>
<stop offset="1" stop-color="white" stop-opacity="0"/>
</radialGradient>
<clipPath id="clip0_6887_47920">
<rect width="20" height="20" fill="white"/>
</clipPath>
</defs>
</svg>
