<svg width="21" height="20" viewBox="0 0 21 20" fill="none" xmlns="http://www.w3.org/2000/svg">
<g clip-path="url(#clip0_6753_38881)">
<path d="M17.1421 3.76947C15.8281 3.16787 14.4409 2.74109 13.016 2.5C12.821 2.84857 12.6446 3.20721 12.4874 3.57441C10.9696 3.34569 9.42605 3.34569 7.90822 3.57441C7.751 3.20725 7.57458 2.84862 7.37967 2.5C5.95382 2.74312 4.5657 3.17092 3.25036 3.77261C0.639066 7.63607 -0.0688146 11.4036 0.285126 15.1176C1.81437 16.2475 3.52602 17.1067 5.34569 17.6581C5.75542 17.107 6.11799 16.5224 6.42953 15.9104C5.8378 15.6894 5.26667 15.4167 4.72275 15.0956C4.8659 14.9917 5.00591 14.8848 5.14119 14.781C6.72385 15.5252 8.45124 15.9111 10.2002 15.9111C11.9491 15.9111 13.6765 15.5252 15.2592 14.781C15.396 14.8926 15.536 14.9996 15.6776 15.0956C15.1326 15.4173 14.5605 15.6905 13.9677 15.912C14.2788 16.5237 14.6414 17.1078 15.0515 17.6581C16.8727 17.109 18.5857 16.2501 20.1152 15.1192C20.5305 10.8121 19.4058 7.0792 17.1421 3.76947ZM6.87786 12.8335C5.89154 12.8335 5.07669 11.9384 5.07669 10.8373C5.07669 9.73612 5.86323 8.83318 6.87471 8.83318C7.8862 8.83318 8.69475 9.73612 8.67745 10.8373C8.66015 11.9384 7.88305 12.8335 6.87786 12.8335ZM13.5225 12.8335C12.5346 12.8335 11.7229 11.9384 11.7229 10.8373C11.7229 9.73612 12.5094 8.83318 13.5225 8.83318C14.5356 8.83318 15.3378 9.73612 15.3205 10.8373C15.3032 11.9384 14.5277 12.8335 13.5225 12.8335Z" fill="#5865F2"/>
</g>
<defs>
<clipPath id="clip0_6753_38881">
<rect width="20" height="20" fill="white" transform="translate(0.200195)"/>
</clipPath>
</defs>
</svg>
