<svg width="32" height="32" viewBox="0 0 32 32" fill="none" xmlns="http://www.w3.org/2000/svg">
<g clip-path="url(#clip0_6635_36267)">
<rect width="32" height="32" rx="16" fill="black"/>
<path d="M25.897 20.7975L22.5954 24.2617C22.5236 24.3369 22.4368 24.3969 22.3403 24.4379C22.2438 24.4789 22.1397 24.5001 22.0345 24.5H6.38329C6.30861 24.5 6.23556 24.4786 6.17311 24.4386C6.11066 24.3985 6.06153 24.3415 6.03177 24.2745C6.002 24.2075 5.99289 24.1334 6.00555 24.0614C6.01822 23.9894 6.05211 23.9226 6.10305 23.8692L9.40715 20.405C9.47873 20.3299 9.56528 20.2701 9.66146 20.2291C9.75766 20.1881 9.86142 20.1668 9.96635 20.1667H25.6167C25.6914 20.1667 25.7644 20.188 25.8269 20.2281C25.8893 20.2681 25.9384 20.3252 25.9683 20.3922C25.998 20.4592 26.0071 20.5332 25.9944 20.6053C25.9818 20.6773 25.9479 20.7441 25.897 20.7975ZM22.5954 13.8217C22.5236 13.7464 22.4368 13.6864 22.3403 13.6454C22.2438 13.6044 22.1397 13.5833 22.0345 13.5833H6.38329C6.30861 13.5833 6.23556 13.6047 6.17311 13.6448C6.11066 13.6848 6.06153 13.7419 6.03177 13.8089C6.002 13.8759 5.99289 13.9499 6.00555 14.0219C6.01822 14.0939 6.05211 14.1607 6.10305 14.2142L9.40715 17.6783C9.47873 17.7534 9.56528 17.8133 9.66146 17.8543C9.75766 17.8952 9.86142 17.9165 9.96635 17.9167H25.6167C25.6914 17.9167 25.7644 17.8953 25.8269 17.8553C25.8893 17.8152 25.9384 17.7581 25.9683 17.6911C25.998 17.6241 26.0071 17.5501 25.9944 17.4781C25.9818 17.4061 25.9479 17.3393 25.897 17.2858L22.5954 13.8217ZM6.38329 11.3333H22.0345C22.1397 11.3334 22.2438 11.3123 22.3403 11.2713C22.4368 11.2302 22.5236 11.1702 22.5954 11.095L25.897 7.63083C25.9479 7.57741 25.9818 7.5106 25.9944 7.43859C26.0071 7.36659 25.998 7.29253 25.9683 7.22553C25.9384 7.15852 25.8893 7.10148 25.8269 7.06141C25.7644 7.02135 25.6914 7 25.6167 7H9.96635C9.86142 7.00017 9.75766 7.02142 9.66146 7.06241C9.56528 7.10341 9.47873 7.16328 9.40715 7.23833L6.10391 10.7025C6.05301 10.7559 6.01913 10.8226 6.00644 10.8945C5.99375 10.9665 6.00278 11.0405 6.03245 11.1074C6.06211 11.1744 6.11111 11.2314 6.17343 11.2716C6.23575 11.3117 6.30868 11.3332 6.38329 11.3333Z" fill="url(#paint0_linear_6635_36267)"/>
</g>
<defs>
<linearGradient id="paint0_linear_6635_36267" x1="7.68823" y1="24.9171" x2="23.7001" y2="6.46756" gradientUnits="userSpaceOnUse">
<stop offset="0.08" stop-color="#9945FF"/>
<stop offset="0.3" stop-color="#8752F3"/>
<stop offset="0.5" stop-color="#5497D5"/>
<stop offset="0.6" stop-color="#43B4CA"/>
<stop offset="0.72" stop-color="#28E0B9"/>
<stop offset="0.97" stop-color="#19FB9B"/>
</linearGradient>
<clipPath id="clip0_6635_36267">
<rect width="32" height="32" fill="white"/>
</clipPath>
</defs>
</svg>
