<svg width="20" height="20" viewBox="0 0 20 20" fill="none" xmlns="http://www.w3.org/2000/svg">
<g clip-path="url(#clip0_6799_48624)">
<path fill-rule="evenodd" clip-rule="evenodd" d="M10 0C15.5225 0 20 4.47717 20 10C20 14.9913 16.3428 19.1283 11.5625 19.8784V12.8906H13.8926L14.3359 10H11.5625V8.12415C11.5625 7.33337 11.9502 6.5625 13.1924 6.5625H14.4531V4.10156C14.4531 4.10156 14.001 4.02429 13.3926 3.96692C13.0342 3.93311 12.6211 3.90625 12.2148 3.90625C9.93066 3.90625 8.4375 5.29065 8.4375 7.79688V10H5.89844V12.8906H8.4375V19.8784C3.65723 19.1283 0 14.9913 0 10C0 4.47717 4.47754 0 10 0Z" fill="white"/>
</g>
<defs>
<clipPath id="clip0_6799_48624">
<rect width="20" height="19.8784" fill="white"/>
</clipPath>
</defs>
</svg>
