<svg width="28" height="28" viewBox="0 0 28 28" fill="none" xmlns="http://www.w3.org/2000/svg">
<path d="M9.60019 21.7932C8.09024 20.0108 7.112 17.3752 7.04506 14.4178V13.7742C7.11166 10.8169 8.0899 8.18162 9.60019 6.39882C11.5593 3.85392 14.4725 2.24101 17.7248 2.24101C19.7254 2.24101 21.5976 2.85193 23.1986 3.9144C20.795 1.76363 17.6246 0.451091 14.1473 0.438519L14.0964 0.4375C6.55239 0.4375 0.4375 6.55273 0.4375 14.0964C0.4375 21.4208 6.20413 27.3985 13.4457 27.7383C13.6615 27.7484 13.8783 27.7546 14.0964 27.7546C17.5933 27.7546 20.7824 26.4397 23.1989 24.2787C21.5979 25.3405 19.7264 25.9514 17.7252 25.9514C14.4725 25.9514 11.5596 24.3382 9.60019 21.7936V21.7932Z" fill="url(#paint0_linear_7016_56290)"/>
<path d="M9.6001 6.39911C10.8532 4.91973 12.4726 4.02749 14.2414 4.02749C18.2168 4.02749 21.4405 8.53559 21.4405 14.0963C21.4405 19.6571 18.2175 24.1652 14.2407 24.1652C12.4726 24.1652 10.8532 23.2729 9.60044 21.7935C11.56 24.3385 14.4728 25.9513 17.7255 25.9513C19.7267 25.9513 21.5982 25.3408 23.1992 24.279C25.9955 21.7782 27.7556 18.1427 27.7556 14.096C27.7556 10.0503 25.9955 6.41576 23.2002 3.91469C21.5985 2.85222 19.7264 2.24097 17.7252 2.24097C14.4725 2.24097 11.5596 3.85489 9.6001 6.39911Z" fill="url(#paint1_linear_7016_56290)"/>
<defs>
<linearGradient id="paint0_linear_7016_56290" x1="11.8185" y1="0.882942" x2="11.8185" y2="27.357" gradientUnits="userSpaceOnUse">
<stop offset="0.3" stop-color="#FF1B2D"/>
<stop offset="0.438" stop-color="#FA1A2C"/>
<stop offset="0.594" stop-color="#ED1528"/>
<stop offset="0.758" stop-color="#D60E21"/>
<stop offset="0.927" stop-color="#B70519"/>
<stop offset="1" stop-color="#A70014"/>
</linearGradient>
<linearGradient id="paint1_linear_7016_56290" x1="18.6772" y1="2.44313" x2="18.6772" y2="25.8582" gradientUnits="userSpaceOnUse">
<stop stop-color="#9C0000"/>
<stop offset="0.7" stop-color="#FF4B4B"/>
</linearGradient>
</defs>
</svg>
