<svg width="28" height="28" viewBox="0 0 28 28" fill="none" xmlns="http://www.w3.org/2000/svg">
<path fill-rule="evenodd" clip-rule="evenodd" d="M18.1517 2.68283C18.1929 2.7525 18.1385 2.83862 18.0575 2.83862C16.4195 2.83862 15.0879 4.13548 15.0567 5.747C14.4958 5.64228 13.9146 5.63441 13.3405 5.73114C13.3008 4.12699 11.9726 2.83862 10.34 2.83862C10.259 2.83862 10.2046 2.75243 10.2457 2.68272C11.0387 1.33983 12.512 0.4375 14.1987 0.4375C15.8854 0.4375 17.3588 1.33989 18.1517 2.68283ZM23.7147 12.8653C23.951 12.9368 24.1759 12.729 24.1094 12.4912C22.8375 7.94331 17.8853 6.09892 14.1762 6.09892C10.4622 6.09892 5.39941 8.0006 4.25628 12.5024C4.19636 12.7384 4.42049 12.9391 4.65326 12.8678L13.9739 10.0118C14.0769 9.98018 14.1869 9.97997 14.2901 10.0112L23.7147 12.8653ZM4.38721 13.4264L13.9797 10.5171C14.082 10.4861 14.1913 10.486 14.2937 10.5169L23.9452 13.4278C24.7333 13.6654 25.2727 14.3915 25.2727 15.2147V23.7911C25.2361 25.8845 23.3555 27.5625 21.2627 27.5625H17.7868C17.4431 27.5625 17.1649 27.2846 17.1649 26.941V23.934C17.1649 22.7499 17.8656 21.6783 18.95 21.204C20.4036 20.5681 22.1231 19.7081 22.4466 17.9823C22.551 17.4252 22.1877 16.8879 21.6322 16.7775C20.2273 16.4983 18.6697 16.6061 17.3527 17.1952C15.8575 17.864 15.4664 18.9764 15.3215 20.4704L15.146 22.0799C15.0924 22.5718 14.6313 22.9486 14.1367 22.9486C13.625 22.9486 13.2413 22.559 13.1859 22.05L13.0136 20.4704C12.8896 19.1907 12.6647 17.9476 11.3418 17.3559C9.83278 16.681 8.31628 16.4568 6.70299 16.7775C6.14742 16.8879 5.78417 17.4252 5.88857 17.9823C6.21485 19.7231 7.9209 20.5634 9.38517 21.204C10.4695 21.6783 11.1703 22.7499 11.1703 23.934V26.9404C11.1703 27.284 10.8921 27.5625 10.5485 27.5625H7.07243C4.97967 27.5625 3.09905 25.8845 3.0625 23.7911V15.2124C3.0625 14.3903 3.60046 13.665 4.38721 13.4264Z" fill="url(#paint0_linear_21_2279)"/>
<defs>
<linearGradient id="paint0_linear_21_2279" x1="13.9498" y1="-1.02725" x2="23.6883" y2="27.6914" gradientUnits="userSpaceOnUse">
<stop stop-color="#F5D45E"/>
<stop offset="1" stop-color="#FF9600"/>
</linearGradient>
</defs>
</svg>
