<svg width="29" height="28" viewBox="0 0 29 28" fill="none" xmlns="http://www.w3.org/2000/svg">
<g clip-path="url(#clip0_21_2106)">
<path fill-rule="evenodd" clip-rule="evenodd" d="M8.72046 23.9295L12.2606 24.8688V23.6406L12.5496 23.3516H14.5725V24.7965V25.808H12.4051L9.73192 24.652L8.72046 23.9295Z" fill="#CDBDB2"/>
<path fill-rule="evenodd" clip-rule="evenodd" d="M20.2798 23.9295L16.8119 24.8688V23.6406L16.5229 23.3516H14.5V24.7965V25.808H16.6674L19.3405 24.652L20.2798 23.9295Z" fill="#CDBDB2"/>
<path fill-rule="evenodd" clip-rule="evenodd" d="M12.5495 21.2568L12.2605 23.6409L12.6217 23.3519H16.3785L16.812 23.6409L16.523 21.2568L15.945 20.8955L13.0551 20.9678L12.5495 21.2568Z" fill="#393939"/>
<path fill-rule="evenodd" clip-rule="evenodd" d="M10.5989 5.14551L12.3328 9.19134L13.1276 20.9676H15.9451L16.8121 9.19134L18.4015 5.14551H10.5989Z" fill="#F89C35"/>
<path fill-rule="evenodd" clip-rule="evenodd" d="M3.0129 14.0317L0.98999 19.8836L6.04727 19.5946H9.29832V17.066L9.15383 11.8643L8.43136 12.4422L3.0129 14.0317Z" fill="#F89D35"/>
<path fill-rule="evenodd" clip-rule="evenodd" d="M6.84204 14.6826L12.7663 14.8271L12.1161 17.8615L9.29844 17.139L6.84204 14.6826Z" fill="#D87C30"/>
<path fill-rule="evenodd" clip-rule="evenodd" d="M6.84204 14.7549L9.29844 17.0668V19.3787L6.84204 14.7549Z" fill="#EA8D3A"/>
<path fill-rule="evenodd" clip-rule="evenodd" d="M9.29834 17.1387L12.1882 17.8611L13.1275 20.9678L12.4772 21.329L9.29834 19.4506V17.1387Z" fill="#F89D35"/>
<path fill-rule="evenodd" clip-rule="evenodd" d="M9.29843 19.4502L8.72046 23.9295L12.5496 21.2564L9.29843 19.4502Z" fill="#EB8F35"/>
<path fill-rule="evenodd" clip-rule="evenodd" d="M12.7662 14.8271L13.1275 20.9682L12.0437 17.8254L12.7662 14.8271Z" fill="#EA8E3A"/>
<path fill-rule="evenodd" clip-rule="evenodd" d="M5.97485 19.5225L9.29821 19.4502L8.72024 23.9295L5.97485 19.5225Z" fill="#D87C30"/>
<path fill-rule="evenodd" clip-rule="evenodd" d="M2.57942 25.8802L8.72035 23.9295L5.97496 19.5225L0.98999 19.8836L2.57942 25.8802Z" fill="#EB8F35"/>
<path fill-rule="evenodd" clip-rule="evenodd" d="M12.3328 9.19141L9.22625 11.7923L6.84204 14.6822L12.7663 14.899L12.3328 9.19141Z" fill="#E8821E"/>
<path fill-rule="evenodd" clip-rule="evenodd" d="M8.72046 23.9299L12.5496 21.2568L12.2606 23.5687V24.8692L9.65973 24.3634L8.72046 23.9299Z" fill="#DFCEC3"/>
<path fill-rule="evenodd" clip-rule="evenodd" d="M20.2798 23.9299L16.5229 21.2568L16.8119 23.5687V24.8692L19.4128 24.3634L20.2798 23.9299Z" fill="#DFCEC3"/>
<path fill-rule="evenodd" clip-rule="evenodd" d="M11.1767 16.127L11.9714 17.7887L9.15374 17.0662L11.1767 16.127Z" fill="#393939"/>
<path fill-rule="evenodd" clip-rule="evenodd" d="M2.50708 1.75L12.3327 9.19137L10.671 5.14554L2.50708 1.75Z" fill="#E88F35"/>
<path fill-rule="evenodd" clip-rule="evenodd" d="M2.50723 1.75L1.20679 5.72358L1.92926 10.0584L1.42353 10.3474L2.146 10.9976L1.56802 11.5033L2.36274 12.2258L1.85701 12.6593L3.01296 14.1042L8.43148 12.4425C11.0805 10.3233 12.381 9.2396 12.3328 9.19143C12.2846 9.14327 9.00945 6.66279 2.50723 1.75Z" fill="#8E5A30"/>
<path fill-rule="evenodd" clip-rule="evenodd" d="M25.9873 14.0317L28.0103 19.8836L22.953 19.5946H19.7019V17.066L19.8464 11.8643L20.5689 12.4422L25.9873 14.0317Z" fill="#F89D35"/>
<path fill-rule="evenodd" clip-rule="evenodd" d="M22.1582 14.6826L16.234 14.8271L16.8841 17.8615L19.7018 17.139L22.1582 14.6826Z" fill="#D87C30"/>
<path fill-rule="evenodd" clip-rule="evenodd" d="M22.1582 14.7549L19.7018 17.0668V19.3787L22.1582 14.7549Z" fill="#EA8D3A"/>
<path fill-rule="evenodd" clip-rule="evenodd" d="M19.7019 17.1387L16.812 17.8611L15.8728 20.9678L16.523 21.329L19.7019 19.4506V17.1387Z" fill="#F89D35"/>
<path fill-rule="evenodd" clip-rule="evenodd" d="M19.7018 19.4502L20.2798 23.9295L16.5229 21.3286L19.7018 19.4502Z" fill="#EB8F35"/>
<path fill-rule="evenodd" clip-rule="evenodd" d="M16.2341 14.8271L15.8728 20.9682L16.9565 17.8254L16.2341 14.8271Z" fill="#EA8E3A"/>
<path fill-rule="evenodd" clip-rule="evenodd" d="M23.0254 19.5225L19.702 19.4502L20.28 23.9295L23.0254 19.5225Z" fill="#D87C30"/>
<path fill-rule="evenodd" clip-rule="evenodd" d="M26.4208 25.8802L20.2799 23.9295L23.0253 19.5225L28.0103 19.8836L26.4208 25.8802Z" fill="#EB8F35"/>
<path fill-rule="evenodd" clip-rule="evenodd" d="M16.6674 9.19141L19.774 11.7923L22.1582 14.6822L16.234 14.899L16.6674 9.19141Z" fill="#E8821E"/>
<path fill-rule="evenodd" clip-rule="evenodd" d="M17.8236 16.127L17.0288 17.7887L19.8465 17.0662L17.8236 16.127Z" fill="#393939"/>
<path fill-rule="evenodd" clip-rule="evenodd" d="M26.4932 1.75L16.6676 9.19137L18.3292 5.14554L26.4932 1.75Z" fill="#E88F35"/>
<path fill-rule="evenodd" clip-rule="evenodd" d="M26.493 1.75L27.7935 5.72358L27.071 10.0584L27.5767 10.3474L26.8542 10.9976L27.4322 11.5033L26.6375 12.2258L27.1432 12.6593L25.9873 14.1042L20.5688 12.4425C17.9197 10.3233 16.6193 9.2396 16.6674 9.19143C16.7156 9.14327 19.9908 6.66279 26.493 1.75Z" fill="#8E5A30"/>
</g>
<defs>
<clipPath id="clip0_21_2106">
<rect width="28" height="28" fill="white" transform="translate(0.5)"/>
</clipPath>
</defs>
</svg>
