<svg width="28" height="28" viewBox="0 0 28 28" fill="none" xmlns="http://www.w3.org/2000/svg">
<path d="M14.7017 7.17671C12.0699 7.17671 9.501 8.19149 7.58058 9.99165C5.47422 11.9666 4.14122 14.8834 3.37712 17.6271C2.87667 19.4226 2.62598 21.2847 2.62598 23.1478C2.62598 23.7112 2.6491 24.2699 2.69351 24.8222C2.74808 25.4937 3.4021 25.9591 4.05334 25.7833C4.62132 25.6307 5.21891 25.5483 5.835 25.5483C7.10047 25.5483 8.2864 25.8924 9.30303 26.4937C9.32801 26.5085 9.35206 26.5233 9.37704 26.5372C11.0292 27.5224 12.9783 28.0636 15.0569 27.9942C20.4786 27.8147 24.9078 23.4031 25.1076 17.9823C25.3259 12.0518 20.5841 7.17578 14.7026 7.17578L14.7017 7.17671ZM14.7017 22.3467C12.0736 22.3467 9.94317 20.2163 9.94317 17.5891C9.94317 14.962 12.0736 12.8306 14.7017 12.8306C17.3297 12.8306 19.4602 14.9611 19.4602 17.5891C19.4602 20.2172 17.3297 22.3467 14.7017 22.3467Z" fill="#14AAFF"/>
<path d="M10.4205 3.89819C10.4205 5.27005 9.70168 6.54292 8.52131 7.24227C7.78034 7.68167 7.08562 8.20063 6.45658 8.79174C5.06067 10.0998 4.01906 11.7047 3.24756 13.2958C3.09585 13.6094 2.625 13.4984 2.625 13.1497V3.89819C2.625 1.74558 4.37058 0 6.52319 0C8.67579 0 10.4214 1.74558 10.4214 3.89819H10.4205Z" fill="#0077FF"/>
</svg>
