<svg width="28" height="28" viewBox="0 0 28 28" fill="none" xmlns="http://www.w3.org/2000/svg">
<g clip-path="url(#clip0_21_2122)">
<path d="M14 28C21.732 28 28 21.732 28 14C28 6.26802 21.732 0 14 0C6.26802 0 0 6.26802 0 14C0 21.732 6.26802 28 14 28Z" fill="#3375BB"/>
<path fill-rule="evenodd" clip-rule="evenodd" d="M13.5383 5.45341C13.863 5.1822 14.3353 5.1822 14.66 5.45341C17.0388 7.44008 19.7512 7.42472 20.8009 7.41878C20.8532 7.41848 20.9014 7.41821 20.9453 7.41821C21.1796 7.41821 21.4042 7.51222 21.5686 7.67917C21.7331 7.84613 21.8237 8.07208 21.8202 8.30641C21.7705 11.5989 21.6385 13.9489 21.3795 15.6712C21.1207 17.3924 20.7239 18.572 20.0844 19.4607C19.4404 20.3558 18.6127 20.864 17.7313 21.3511C17.5786 21.4355 17.4229 21.52 17.2635 21.6064C16.4898 22.0261 15.6299 22.4925 14.6092 23.2247C14.3043 23.4434 13.894 23.4434 13.5891 23.2247C12.5694 22.4932 11.7105 22.027 10.9381 21.6076C10.7779 21.5207 10.6215 21.4357 10.4681 21.3509C9.58738 20.8637 8.76077 20.3553 8.118 19.46C7.47994 18.5712 7.08446 17.3916 6.82662 15.6707C6.5686 13.9486 6.43724 11.5988 6.38755 8.30641C6.38401 8.07208 6.47462 7.84613 6.63908 7.67917C6.80354 7.51222 7.0281 7.41821 7.26245 7.41821C7.30579 7.41821 7.35353 7.41848 7.40543 7.41878C8.44657 7.42473 11.1593 7.44023 13.5383 5.45341ZM8.15317 9.16274C8.21191 11.969 8.33966 13.9588 8.55731 15.4114C8.79729 17.0131 9.13541 17.8764 9.53961 18.4394C9.9391 18.9959 10.4634 19.3484 11.3152 19.8196C11.4539 19.8963 11.6003 19.9757 11.7539 20.059C12.4091 20.4143 13.1976 20.8419 14.0991 21.4484C15.0019 20.8411 15.7917 20.4132 16.4479 20.0577C16.6009 19.9748 16.7466 19.8958 16.8849 19.8194C17.7378 19.3481 18.2633 18.9954 18.6639 18.4387C19.0691 17.8756 19.4082 17.0124 19.649 15.411C19.8674 13.9585 19.9957 11.969 20.0545 9.1629C18.7074 9.11947 16.335 8.84128 14.0991 7.23185C11.866 8.83935 9.49691 9.11879 8.15317 9.16274Z" fill="white"/>
</g>
<defs>
<clipPath id="clip0_21_2122">
<rect width="28" height="28" fill="white"/>
</clipPath>
</defs>
</svg>
