<svg width="28" height="28" viewBox="0 0 28 28" fill="none" xmlns="http://www.w3.org/2000/svg">
<circle cx="14" cy="14" r="14" fill="#FF875B"/>
<path d="M15.4016 6.25586H11.0671C10.9223 6.25586 10.8062 6.37785 10.8031 6.52948C10.7155 10.7918 8.58583 14.8371 4.92023 17.7025C4.80386 17.7935 4.77735 17.9644 4.86243 18.0874L7.39849 21.7592C7.48474 21.8841 7.65283 21.9124 7.77119 21.8206C10.0632 20.0406 11.9067 17.8934 13.2343 15.5135C14.562 17.8934 16.4056 20.0406 18.6977 21.8206C18.8159 21.9124 18.9839 21.8841 19.0704 21.7592L21.6064 18.0874C21.6914 17.9644 21.6649 17.7935 21.5486 17.7025C17.8829 14.8371 15.7533 10.7918 15.6658 6.52948C15.6626 6.37785 15.5465 6.25586 15.4016 6.25586Z" fill="white"/>
<path d="M20.2666 9.74507L19.7937 8.36092C19.6975 8.0799 19.4632 7.86101 19.1649 7.77447L17.6968 7.34685C17.4942 7.28779 17.4921 7.01646 17.6941 6.95486L19.1547 6.50687C19.4514 6.41576 19.683 6.19329 19.7744 5.91126L20.2252 4.52048C20.2875 4.32805 20.574 4.326 20.6396 4.51742L21.1125 5.90158C21.2086 6.18259 21.443 6.4015 21.7412 6.48855L23.2094 6.91566C23.412 6.97472 23.4141 7.24605 23.2121 7.30816L21.7514 7.75614C21.4547 7.84675 21.2232 8.06921 21.1318 8.35176L20.6809 9.74201C20.6186 9.93444 20.3322 9.93651 20.2666 9.74507Z" fill="white"/>
</svg>
