<svg width="28" height="28" viewBox="0 0 28 28" fill="none" xmlns="http://www.w3.org/2000/svg">
<g clip-path="url(#clip0_21_2117)">
<path d="M14 28C21.732 28 28 21.732 28 14C28 6.26801 21.732 0 14 0C6.26801 0 0 6.26801 0 14C0 21.732 6.26801 28 14 28Z" fill="#4084ED"/>
<path d="M7.80075 10.0015C11.224 6.58284 16.776 6.58284 20.1993 10.0015L20.6109 10.4102C20.7842 10.5814 20.7842 10.8575 20.6109 11.0287L19.2026 12.437C19.1159 12.5199 18.9805 12.5199 18.8939 12.437L18.3251 11.8682C15.9364 9.48233 12.0636 9.48233 9.67488 11.8682L9.06822 12.4757C8.98156 12.5585 8.84614 12.5585 8.75948 12.4757L7.34576 11.0729C7.17243 10.9017 7.17243 10.6256 7.34576 10.4543L7.80075 10.0015ZM23.1134 12.912L24.37 14.1657C24.5433 14.3369 24.5433 14.613 24.37 14.7842L18.7097 20.4341C18.5364 20.6053 18.2601 20.6053 18.0922 20.4341L14.0785 16.4245C14.0352 16.3803 13.9648 16.3803 13.9215 16.4245L9.90779 20.4341C9.73446 20.6053 9.45822 20.6053 9.2903 20.4341L3.63 14.7842C3.45667 14.613 3.45667 14.3369 3.63 14.1657L4.88664 12.912C5.05997 12.7408 5.33621 12.7408 5.50413 12.912L9.5178 16.9216C9.56113 16.9658 9.63155 16.9658 9.67488 16.9216L13.6885 12.912C13.8619 12.7408 14.1381 12.7408 14.306 12.912L18.3197 16.9216C18.363 16.9658 18.4335 16.9658 18.4768 16.9216L22.4905 12.912C22.6638 12.7408 22.94 12.7408 23.1134 12.912Z" fill="white"/>
</g>
<defs>
<clipPath id="clip0_21_2117">
<rect width="28" height="28" fill="white"/>
</clipPath>
</defs>
</svg>
