<svg width="28" height="28" viewBox="0 0 28 28" fill="none" xmlns="http://www.w3.org/2000/svg">
<path d="M28 14C28 21.732 21.732 28 14 28C6.26801 28 0 21.732 0 14C0 6.26801 6.26801 0 14 0C21.732 0 28 6.26801 28 14Z" fill="#1648F9"/>
<path d="M23.625 14C23.625 19.3157 19.3157 23.625 14 23.625C8.68426 23.625 4.375 19.3157 4.375 14C4.375 8.68426 8.68426 4.375 14 4.375C19.3157 4.375 23.625 8.68426 23.625 14Z" fill="white"/>
<path d="M10.9375 11.375C10.9375 11.1334 11.1334 10.9375 11.375 10.9375H16.625C16.8666 10.9375 17.0625 11.1334 17.0625 11.375V16.625C17.0625 16.8666 16.8666 17.0625 16.625 17.0625H11.375C11.1334 17.0625 10.9375 16.8666 10.9375 16.625V11.375Z" fill="#1648F9"/>
</svg>
