<svg width="28" height="28" viewBox="0 0 28 28" fill="none" xmlns="http://www.w3.org/2000/svg">
<path fill-rule="evenodd" clip-rule="evenodd" d="M4.10084 4.10084C2.79884 5.39934 1.76629 6.94235 1.06253 8.64118C0.358766 10.34 -0.00232275 12.1612 1.12428e-05 14C1.12428e-05 21.7315 6.26851 28 14 28C21.7315 28 28 21.7315 28 14C28 6.26851 21.7315 1.12428e-05 14 1.12428e-05C12.1612 -0.00232275 10.34 0.358766 8.64118 1.06253C6.94235 1.76629 5.39934 2.79884 4.10084 4.10084V4.10084ZM4.10084 4.10084C9.56668 9.56668 9.56668 18.4322 4.10084 23.8992C9.56784 18.4322 18.4322 18.4322 23.8992 23.8992C18.4322 18.4322 18.4322 9.56784 23.8992 4.10084C18.4333 9.56668 9.56784 9.56668 4.10084 4.10084Z" fill="url(#paint0_linear_21_2204)"/>
<defs>
<linearGradient id="paint0_linear_21_2204" x1="3.93751" y1="3.71875" x2="23.625" y2="23.4062" gradientUnits="userSpaceOnUse">
<stop stop-color="#6429F0"/>
<stop offset="1" stop-color="#DE78F8"/>
</linearGradient>
</defs>
</svg>
