<svg width="28" height="28" viewBox="0 0 28 28" fill="none" xmlns="http://www.w3.org/2000/svg">
<g clip-path="url(#clip0_21_2305)">
<circle cx="14" cy="14" r="14" fill="#FC814A"/>
<g clip-path="url(#clip1_21_2305)">
<path d="M23.8575 14.1947C24.4109 20.3173 20.7859 24.201 14.1912 24.201C8.35439 24.201 3.8064 20.713 3.8064 14.2927C3.8064 11.8659 4.64132 9.82865 5.24779 8.21077C5.85426 6.59292 5.04151 4.75427 6.2792 4.03202C7.51689 3.30976 8.55837 4.87251 10.5 5.90636C11.4603 6.41813 11.9375 6.64503 13.6053 6.6569C13.8172 6.65845 15.8749 6.65896 16.1369 6.65896C17.06 6.65896 17.6933 6.52947 18.2595 6.30505C19.1161 5.9656 19.5426 5.5828 19.9758 5.2939C20.4306 4.99055 20.8102 4.72383 21.2898 4.83888C21.722 4.94257 21.8885 5.17679 21.9974 5.49613C22.3243 6.45466 21.6307 7.99719 21.9994 8.52908C23.0772 10.084 23.6419 11.8071 23.8575 14.1947Z" fill="white" stroke="black" stroke-width="0.5" stroke-miterlimit="10"/>
<path d="M19.1377 15.1117C19.1366 15.1003 19.1031 14.8656 19.1005 14.8532C18.9659 14.2145 18.0908 14.1418 17.5756 14.2197C17.0744 14.295 16.2631 14.6252 16.3508 15.2659C16.3555 15.2989 16.3745 15.4228 16.3787 15.4557C16.5664 16.8245 19.2527 16.4767 19.1377 15.1117ZM17.7556 15.3C17.2765 15.3717 16.8644 15.2696 16.8351 15.0725C16.8057 14.8754 17.1697 14.6571 17.6488 14.586C18.1279 14.5143 18.54 14.6164 18.5694 14.8135C18.5988 15.0106 18.2347 15.2283 17.7556 15.3Z" fill="black"/>
<path fill-rule="evenodd" clip-rule="evenodd" d="M8.00782 15.7672C8.1352 15.7115 8.28321 15.7698 8.3389 15.8967C9.3043 18.1053 11.1588 19.2036 13.0731 19.6906C14.8827 20.1513 16.7237 20.0585 17.8505 19.8459V17.286C17.8505 17.1472 17.963 17.0348 18.1022 17.0348C18.2415 17.0348 18.3539 17.1472 18.3539 17.286V19.7319C19.1744 19.5111 19.8148 19.1525 20.311 18.6433C20.8674 18.0717 21.2594 17.2917 21.5033 16.2542C21.5353 16.1191 21.6704 16.0355 21.8055 16.067C21.9406 16.0989 22.0247 16.2341 21.9927 16.3693C21.7343 17.4681 21.3084 18.3395 20.6709 18.9942C20.0325 19.6498 19.1986 20.0703 18.1558 20.2968C16.9934 20.5496 14.958 20.6889 12.9493 20.1776C10.9355 19.6648 8.92423 18.4901 7.87838 16.0979C7.82269 15.971 7.88045 15.8229 8.00782 15.7672Z" fill="black"/>
<path fill-rule="evenodd" clip-rule="evenodd" d="M24.1673 10.6277C24.1585 10.4564 24.0157 10.3223 23.8435 10.3223H4.1085C3.93728 10.3223 3.79907 10.461 3.79907 10.6318V11.8184C5.54473 11.8184 7.48584 11.8184 8.18101 11.8184C9.21757 11.8184 9.55176 14.3462 13.9043 14.243C16.6499 14.1781 16.835 11.8699 17.9232 11.8699C19.0113 11.8699 18.8561 13.7271 21.6543 13.7271C23.5433 13.7271 24.2101 11.4639 24.1673 10.6277Z" fill="black"/>
</g>
</g>
<defs>
<clipPath id="clip0_21_2305">
<rect width="28" height="28" fill="white"/>
</clipPath>
<clipPath id="clip1_21_2305">
<rect width="20.7607" height="21" fill="white" transform="translate(3.5 3.5)"/>
</clipPath>
</defs>
</svg>
