<svg width="28" height="28" viewBox="0 0 28 28" fill="none" xmlns="http://www.w3.org/2000/svg">
<g clip-path="url(#clip0_21_2210)">
<path d="M14 28C21.732 28 28 21.732 28 14C28 6.26801 21.732 0 14 0C6.26801 0 0 6.26801 0 14C0 21.732 6.26801 28 14 28Z" fill="url(#paint0_linear_21_2210)"/>
<path d="M24.0225 14.1702H21.5545C21.5545 9.14058 17.4629 5.06348 12.4153 5.06348C7.43032 5.06348 3.37742 9.04077 3.27822 13.9843C3.1756 19.0943 7.98677 23.5316 13.1156 23.5316H13.7607C18.2824 23.5316 24.3429 20.0045 25.2897 15.707C25.4646 14.9148 24.8366 14.1702 24.0225 14.1702ZM8.74776 14.3943C8.74776 15.0669 8.19568 15.617 7.52069 15.617C6.8457 15.617 6.29365 15.0666 6.29365 14.3943V12.4163C6.29365 11.7437 6.8457 11.1936 7.52069 11.1936C8.19568 11.1936 8.74776 11.7437 8.74776 12.4163V14.3943ZM13.0085 14.3943C13.0085 15.0669 12.4565 15.617 11.7816 15.617C11.1065 15.617 10.5545 15.0666 10.5545 14.3943V12.4163C10.5545 11.7437 11.1068 11.1936 11.7816 11.1936C12.4565 11.1936 13.0085 11.7437 13.0085 12.4163V14.3943Z" fill="url(#paint1_linear_21_2210)"/>
</g>
<defs>
<linearGradient id="paint0_linear_21_2210" x1="14" y1="0" x2="14" y2="28" gradientUnits="userSpaceOnUse">
<stop stop-color="#534BB1"/>
<stop offset="1" stop-color="#551BF9"/>
</linearGradient>
<linearGradient id="paint1_linear_21_2210" x1="14.2979" y1="5.06348" x2="14.2979" y2="23.5316" gradientUnits="userSpaceOnUse">
<stop stop-color="white"/>
<stop offset="1" stop-color="white" stop-opacity="0.82"/>
</linearGradient>
<clipPath id="clip0_21_2210">
<rect width="28" height="28" fill="white"/>
</clipPath>
</defs>
</svg>
