<svg width="28" height="28" viewBox="0 0 28 28" fill="none" xmlns="http://www.w3.org/2000/svg">
<path fill-rule="evenodd" clip-rule="evenodd" d="M25.2725 6.7167L25.9304 5.10513C25.9304 5.10513 25.0929 4.20973 24.0761 3.19474C23.0598 2.17975 20.9067 2.77668 20.9067 2.77668L18.4544 0H9.84274L7.39013 2.77668C7.39013 2.77668 5.23774 2.17975 4.22099 3.19509C3.59328 3.82236 2.97523 4.45923 2.36707 5.10548L3.02468 6.71705L2.1875 9.10478C2.1875 9.10478 4.64993 18.4147 4.93857 19.5518C5.50675 21.7904 5.89535 22.656 7.51008 23.7903C9.12481 24.9245 12.0555 26.8945 12.5338 27.1933C13.0122 27.4915 13.6106 28 14.1486 28C14.6869 28 15.2849 27.4915 15.7633 27.1933C16.2417 26.8945 19.1723 24.9245 20.7871 23.7903C22.4018 22.656 22.7904 21.7904 23.3586 19.5518C23.6472 18.4147 26.1096 9.10478 26.1096 9.10478L25.2725 6.7167V6.7167Z" fill="url(#paint0_linear_21_2132)"/>
<path fill-rule="evenodd" clip-rule="evenodd" d="M20.2184 4.53799C20.2184 4.53799 23.3725 8.34333 23.3725 9.15701C23.3725 9.97069 22.9758 10.185 22.5767 10.608L20.2121 13.1146C19.9883 13.3517 19.5226 13.7112 19.7965 14.3586C20.0704 15.0057 20.4744 15.8292 20.0252 16.6646C19.5755 17.4997 18.8057 18.057 18.3122 17.9651C17.8188 17.8728 16.6603 17.2685 16.2342 16.9922C15.8081 16.7162 14.4574 15.6044 14.4574 15.1789C14.4574 14.7535 15.8533 13.99 16.1114 13.8164C16.3692 13.6428 17.5459 12.9711 17.5698 12.7077C17.594 12.444 17.5848 12.3665 17.2376 11.7152C16.8904 11.0635 16.2651 10.1945 16.3692 9.61611C16.4734 9.03742 17.4817 8.73685 18.2011 8.46574C18.9207 8.19428 20.3061 7.68222 20.479 7.60261C20.6523 7.52264 20.6074 7.44689 20.083 7.39743C19.5591 7.34763 18.0713 7.15052 17.4004 7.33711C16.7298 7.52369 15.5836 7.80778 15.491 7.95824C15.3981 8.10905 15.3164 8.11396 15.4118 8.63338C15.5071 9.15245 15.9975 11.6447 16.0452 12.0873C16.0929 12.5303 16.1862 12.8228 15.7081 12.9318C15.2297 13.0409 14.4248 13.2303 14.1484 13.2303C13.8717 13.2303 13.0668 13.0409 12.5884 12.9318C12.1104 12.8228 12.2037 12.5303 12.2514 12.0873C12.2987 11.6447 12.7897 9.1528 12.8848 8.63338C12.9802 8.11396 12.8985 8.1087 12.8055 7.95824C12.7129 7.80743 11.5668 7.52369 10.8962 7.33746C10.2253 7.15052 8.73784 7.34798 8.21316 7.39708C7.68917 7.44689 7.64463 7.52264 7.81754 7.60261C7.9908 7.68222 9.37615 8.19428 10.0955 8.46539C10.8152 8.73685 11.8235 9.03742 11.9273 9.61576C12.0315 10.1945 11.4061 11.0635 11.0593 11.7152C10.7121 12.3665 10.7026 12.444 10.7268 12.7077C10.751 12.9711 11.9273 13.6428 12.1854 13.816C12.4432 13.99 13.8391 14.7535 13.8391 15.1789C13.8391 15.6044 12.4888 16.7162 12.0627 16.9922C11.6366 17.2685 10.4778 17.8728 9.98431 17.9651C9.49084 18.0573 8.721 17.4997 8.27138 16.6646C7.8221 15.8292 8.22613 15.0057 8.50005 14.3586C8.77396 13.7112 8.30855 13.352 8.08479 13.1146L5.71986 10.608C5.32074 10.185 4.92407 9.97034 4.92407 9.15701C4.92407 8.34333 8.07813 4.53799 8.07813 4.53799C8.07813 4.53799 10.7394 5.04548 11.0982 5.04548C11.457 5.04548 12.2345 4.74702 12.9521 4.50817C13.6701 4.26933 14.1481 4.26758 14.1481 4.26758C14.1481 4.26758 14.6268 4.26933 15.3444 4.50817C16.062 4.74667 16.8395 5.04548 17.1983 5.04548C17.5571 5.04548 20.2184 4.53799 20.2184 4.53799V4.53799ZM17.8545 19.0955C18.0495 19.2175 17.9303 19.4476 17.7528 19.5731C17.5747 19.6987 15.1848 21.546 14.953 21.7501C14.7208 21.9542 14.3799 22.2916 14.1484 22.2916C13.9166 22.2916 13.5757 21.9542 13.3439 21.7501C13.1117 21.546 10.7219 19.6984 10.5441 19.5731C10.3662 19.4476 10.2474 19.2175 10.4424 19.0955C10.6377 18.9738 11.2487 18.6658 12.0915 18.2302C12.9339 17.7953 13.9843 17.425 14.1484 17.425C14.3122 17.425 15.3627 17.795 16.2054 18.2302C17.0482 18.6658 17.6588 18.9738 17.8542 19.0955H17.8545Z" fill="white"/>
<mask id="mask0_21_2132" style="mask-type:alpha" maskUnits="userSpaceOnUse" x="4" y="0" width="21" height="6">
<path d="M20.9064 2.77668L18.4548 0H9.8421L7.39019 2.77668C7.39019 2.77668 5.23745 2.17975 4.2207 3.19509C4.2207 3.19509 7.09137 2.93626 8.07831 4.53836C8.07831 4.53836 10.7396 5.04586 11.0984 5.04586C11.4572 5.04586 12.2347 4.74739 12.9523 4.50855C13.6702 4.26971 14.1483 4.26795 14.1483 4.26795C14.1483 4.26795 14.627 4.26971 15.3446 4.50855C16.0622 4.74704 16.8397 5.04586 17.1985 5.04586C17.5573 5.04586 20.2189 4.53836 20.2189 4.53836C21.2055 2.93626 24.0762 3.19509 24.0762 3.19509C23.0595 2.1801 20.9064 2.77703 20.9064 2.77703V2.77668Z" fill="white"/>
</mask>
<g mask="url(#mask0_21_2132)">
<path d="M20.9064 2.77668L18.4548 0H9.8421L7.39019 2.77668C7.39019 2.77668 5.23745 2.17975 4.2207 3.19509C4.2207 3.19509 7.09137 2.93626 8.07831 4.53836C8.07831 4.53836 10.7396 5.04586 11.0984 5.04586C11.4572 5.04586 12.2347 4.74739 12.9523 4.50855C13.6702 4.26971 14.1483 4.26795 14.1483 4.26795C14.1483 4.26795 14.627 4.26971 15.3446 4.50855C16.0622 4.74704 16.8397 5.04586 17.1985 5.04586C17.5573 5.04586 20.2189 4.53836 20.2189 4.53836C21.2055 2.93626 24.0762 3.19509 24.0762 3.19509C23.0595 2.1801 20.9064 2.77703 20.9064 2.77703V2.77668Z" fill="url(#paint1_linear_21_2132)"/>
</g>
<defs>
<linearGradient id="paint0_linear_21_2132" x1="2.18755" y1="14.1976" x2="26.1097" y2="14.1976" gradientUnits="userSpaceOnUse">
<stop stop-color="#FF5500"/>
<stop offset="0.409877" stop-color="#FF5500"/>
<stop offset="0.581981" stop-color="#FF2000"/>
<stop offset="1" stop-color="#FF2000"/>
</linearGradient>
<linearGradient id="paint1_linear_21_2132" x1="4.64746" y1="2.55827" x2="24.0762" y2="2.55827" gradientUnits="userSpaceOnUse">
<stop stop-color="#FF452A"/>
<stop offset="1" stop-color="#FF2000"/>
</linearGradient>
</defs>
</svg>
